<?xml version="1.0" encoding="UTF-8"?>
<svg width="44px" height="40px" viewBox="0 0 44 40" version="1.1" xmlns="http://www.w3.org/2000/svg" xmlns:xlink="http://www.w3.org/1999/xlink">
    <!-- Generator: Sketch 43.1 (39012) - http://www.bohemiancoding.com/sketch -->
    <title>ic-develop</title>
    <desc>Created with Sketch.</desc>
    <defs>
        <linearGradient x1="-0.744930732%" y1="-0.477866667%" x2="100.255274%" y2="100.284667%" id="linearGradient-1">
            <stop stop-color="#1D9AD7" offset="0%"></stop>
            <stop stop-color="#A6449F" offset="100%"></stop>
        </linearGradient>
        <linearGradient x1="-321.116511%" y1="-392.229354%" x2="188%" y2="199.331507%" id="linearGradient-2">
            <stop stop-color="#1D9AD7" offset="0%"></stop>
            <stop stop-color="#A6449F" offset="100%"></stop>
        </linearGradient>
        <linearGradient x1="-130.455331%" y1="-171.600726%" x2="340.514121%" y2="377.016334%" id="linearGradient-3">
            <stop stop-color="#1D9AD7" offset="0%"></stop>
            <stop stop-color="#A6449F" offset="100%"></stop>
        </linearGradient>
        <linearGradient x1="-282.466466%" y1="-338.964644%" x2="418.119919%" y2="458.627968%" id="linearGradient-4">
            <stop stop-color="#1D9AD7" offset="0%"></stop>
            <stop stop-color="#A6449F" offset="100%"></stop>
        </linearGradient>
    </defs>
    <g id="Homepage-Josh" stroke="none" stroke-width="1" fill="none" fill-rule="evenodd">
        <g id="Homepage-3-Copy" transform="translate(-1106.000000, -1624.000000)" fill-rule="nonzero">
            <g id="3-Up" transform="translate(101.000000, 1579.000000)">
                <g id="ic-develop" transform="translate(1005.000000, 45.000000)">
                    <g id="Layer_1">
                        <g id="Group">
                            <path d="M41.3053297,16.3733333 L41.0921409,16.3733333 L41.0921409,3.09333333 C41.0921409,1.38666667 39.7064137,0 38.0009033,0 L3.83739837,0 C2.13188799,0 0.746160795,1.38666667 0.746160795,3.09333333 L0.746160795,21.3866667 C0.746160795,23.0933333 2.13188799,24.48 3.83739837,24.48 L18.5474255,24.48 L17.8545619,26.7733333 C17.4814815,26.56 17.1084011,26.4 16.6287263,26.4 L2.50496838,26.4 C1.27913279,26.4 0.319783198,27.36 0.319783198,28.5866667 L0.319783198,35.2 C0.319783198,36.4266667 1.27913279,37.3866667 2.50496838,37.3866667 L16.6820235,37.3866667 C17.9078591,37.3866667 18.8672087,36.4266667 18.8672087,35.2 L18.8672087,34.7733333 L26.2755194,34.7733333 L26.2755194,37.8133333 C26.2755194,39.04 27.234869,40 28.4607046,40 L41.2520325,40 C42.4778681,40 43.4372177,39.04 43.4372177,37.8133333 L43.4372177,18.56 C43.4905149,17.3333333 42.5311653,16.3733333 41.3053297,16.3733333 Z M42.0514905,18.56 L42.0514905,34.9866667 L27.767841,34.9866667 L27.767841,18.56 C27.767841,18.1333333 28.0876242,17.8133333 28.5140018,17.8133333 L41.3053297,17.8133333 C41.7317073,17.8133333 42.0514905,18.1333333 42.0514905,18.56 Z M26.3288166,26.1333333 L26.3288166,29.7066667 L25.7425474,29.6 C25.1562782,29.4933333 24.6233062,29.0133333 24.5167118,28.4266667 L23.5573622,24.48 L26.3288166,24.48 L26.3288166,26.1333333 L26.3288166,26.1333333 Z M3.83739837,1.44 L38.0009033,1.44 C38.9069557,1.44 39.5998193,2.18666667 39.5998193,3.04 L39.5998193,16.32 L28.5140018,16.32 C27.3947606,16.32 26.4887082,17.1733333 26.3288166,18.24 L2.23848238,18.24 L2.23848238,3.09333333 C2.23848238,2.18666667 2.93134598,1.44 3.83739837,1.44 Z M3.83739837,22.9866667 C2.93134598,22.9866667 2.23848238,22.24 2.23848238,21.3866667 L2.23848238,19.7866667 L26.3288166,19.7866667 L26.3288166,22.9866667 L3.83739837,22.9866667 Z M1.75880759,35.2 L1.75880759,28.5333333 C1.75880759,28.1066667 2.07859079,27.7866667 2.50496838,27.7866667 L14.6034327,27.7866667 L14.6034327,35.8933333 L2.50496838,35.8933333 C2.07859079,35.9466667 1.75880759,35.6266667 1.75880759,35.2 Z M17.4281843,35.2 C17.4281843,35.6266667 17.1084011,35.9466667 16.6820235,35.9466667 L16.0424571,35.9466667 L16.0424571,27.84 L16.6820235,27.84 C17.1084011,27.84 17.4281843,28.16 17.4281843,28.5866667 L17.4281843,35.2 Z M18.8672087,33.3333333 L18.8672087,28.5333333 C18.8672087,28.4266667 18.8672087,28.32 18.8139115,28.2133333 C18.9205059,28.1066667 19.0271003,28 19.0271003,27.8933333 L20.0397471,24.4266667 L21.9584463,24.4266667 L23.0243902,28.7466667 C23.2908762,29.92 24.2502258,30.8266667 25.4227642,31.04 L26.2755194,31.2 L26.2755194,33.3333333 L18.8672087,33.3333333 L18.8672087,33.3333333 Z M41.3053297,38.56 L28.5140018,38.56 C28.0876242,38.56 27.767841,38.24 27.767841,37.8133333 L27.767841,36.48 L42.0514905,36.48 L42.0514905,37.8133333 C42.0514905,38.1866667 41.7317073,38.56 41.3053297,38.56 Z" id="Fill-5" fill="url(#linearGradient-1)"></path>
                            <path d="M38.2140921,22.9333333 L33.364047,27.7866667 L32.1915086,26.6133333 C31.9250226,26.3466667 31.4453478,26.3466667 31.1788618,26.6133333 C30.9123758,26.88 30.9123758,27.36 31.1788618,27.6266667 L32.8843722,29.3333333 C33.0442638,29.4933333 33.2041554,29.5466667 33.4173442,29.5466667 C33.5772358,29.5466667 33.7904246,29.4933333 33.9503162,29.3333333 L39.3333333,23.9466667 C39.5998193,23.68 39.5998193,23.2 39.3333333,22.9333333 C38.9602529,22.6666667 38.5338753,22.6666667 38.2140921,22.9333333 Z" id="Fill-1" fill="url(#linearGradient-2)"></path>
                            <path d="M19.7732611,13.44 C19.9331527,13.6 20.0930443,13.6533333 20.3062331,13.6533333 C20.5194219,13.6533333 20.6793135,13.6 20.8392051,13.44 L26.7551942,7.52 C27.0216802,7.25333333 27.0216802,6.77333333 26.7551942,6.50666667 C26.4887082,6.24 26.0090334,6.24 25.7425474,6.50666667 L20.3062331,11.8933333 L18.9205059,10.5066667 C18.6540199,10.24 18.1743451,10.24 17.9078591,10.5066667 C17.6413731,10.7733333 17.6413731,11.2533333 17.9078591,11.52 L19.7732611,13.44 Z" id="Fill-2" fill="url(#linearGradient-3)"></path>
                            <path d="M12.0984643,29.5466667 C11.8319783,29.28 11.3523035,29.28 11.0858175,29.5466667 L7.99457995,32.64 L7.30171635,32 C7.03523035,31.7333333 6.55555556,31.7333333 6.28906956,32 C6.02258356,32.2666667 6.02258356,32.7466667 6.28906956,33.0133333 L7.46160795,34.1866667 C7.62149955,34.3466667 7.78139115,34.4 7.99457995,34.4 C8.20776874,34.4 8.36766034,34.3466667 8.52755194,34.1866667 L12.1517615,30.56 C12.3649503,30.2933333 12.3649503,29.8133333 12.0984643,29.5466667 Z" id="Fill-3" fill="url(#linearGradient-4)"></path>
                        </g>
                    </g>
                </g>
            </g>
        </g>
    </g>
</svg>