<?xml version="1.0" encoding="UTF-8"?>
<svg width="33px" height="49px" viewBox="0 0 33 49" version="1.1" xmlns="http://www.w3.org/2000/svg" xmlns:xlink="http://www.w3.org/1999/xlink">
    <!-- Generator: Sketch 42 (36781) - http://www.bohemiancoding.com/sketch -->
    <title>ic-elixir</title>
    <desc>Created with Sketch.</desc>
    <defs></defs>
    <g id="Homepage-Josh" stroke="none" stroke-width="1" fill="none" fill-rule="evenodd">
        <g id="Homepage-3-Copy" transform="translate(-1066.000000, -1386.000000)" fill-rule="nonzero" fill="#FFFFFF">
            <g id="Tech" transform="translate(0.000000, 1201.000000)">
                <g id="Technologies" transform="translate(218.000000, 182.000000)">
                    <g id="ic-elixir" transform="translate(848.000000, 3.000000)">
                        <path d="M25.8673333,18.8643401 C22.3866667,14.1495337 18.78525,9.27345623 18.44025,4.53777946 L18.11825,0.0164983165 L14.8388333,3.17361616 C8.86458333,8.91676263 0,23.7404175 0,32.4338754 C0,41.341729 7.32166667,48.5913367 16.3223333,48.5913367 C25.3210833,48.5913367 32.64275,41.341729 32.64275,32.4338754 C32.64275,28.0321246 29.348,23.5772492 25.8673333,18.8643401 Z M16.9903112,46.2519531 C8.70800781,46.2519531 2.25,39.0156313 2.25,32.4338754 C2.25,26.6224259 8.67724609,13.1357422 15.9887695,6.2578125 C18.9404297,13.1357422 20.7107396,15.2415195 23.4726563,18.9697266 C26.5354896,23.121033 30.515625,29.409569 30.515625,32.4338754 C30.515625,39.0156313 25.2726146,46.2519531 16.9903112,46.2519531 Z" id="Fill-1"></path>
                        <path d="M12.86275,38.3933148 C12.4966667,38.0214428 12.1593333,37.5850623 11.8296667,37.1391953 C11.477,36.6648687 11.22975,36.2588451 10.9384167,35.7029343 L10.7065,35.2646566 L10.58575,35.0426717 L10.557,34.9914444 L10.5493333,34.976266 C10.5263333,34.9231414 10.58575,35.0350825 10.58,35.019904 L10.58,35.0123148 L10.5646667,34.9914444 L10.5263333,34.8870926 L10.212,34.109197 C10.13725,33.8340875 10.0395,33.5684646 9.95708333,33.2933552 C9.90533333,33.0201431 9.84591667,32.7374444 9.77883333,32.4642323 C9.69641667,31.8931431 9.62166667,31.3296431 9.58333333,30.7661431 C9.545,29.6315539 9.59866667,28.5349108 9.68875,27.5710791 C9.89766667,25.6453131 10.1295833,24.2375118 10.1295833,24.2375118 C10.1295833,24.2375118 9.00641667,25.1709865 8.07875,27.111931 C7.83916667,27.5938468 7.62833333,28.1345791 7.45008333,28.7360253 C7.36766667,29.0320051 7.28525,29.3431633 7.19516667,29.6619108 C7.14916667,29.9882475 7.09741667,30.3221734 7.04566667,30.6693805 C7.02266667,31.0108956 6.99966667,31.3656919 6.97091667,31.7299747 C6.97858333,32.0923603 7.00733333,32.4566431 7.02266667,32.8342071 C7.12041667,33.5741566 7.28525,34.3311818 7.55358333,35.0578502 C7.69733333,35.4126465 7.86216667,35.7693401 8.03275,36.1165471 L8.10175,36.2436667 L8.16116667,36.3537104 L8.18991667,36.406835 L8.326,36.6212306 L8.58666667,37.04433 C8.99108333,37.6059327 9.51625,38.2586061 9.99541667,38.7253434 C10.4899167,39.2300269 11.0591667,39.6227694 11.5900833,39.9775657 C12.1286667,40.3342593 12.6979167,40.5638333 13.2154167,40.7649478 C14.2561667,41.1425118 15.1761667,41.2316852 15.8048333,41.2165067 C16.4335,41.2013283 16.7785,41.1121549 16.7785,41.1121549 C16.7785,41.1121549 15.43875,40.586601 13.9629167,39.4083737 C13.5891667,39.1180859 13.2365,38.7557003 12.86275,38.3933148 Z" id="Fill-2"></path>
                    </g>
                </g>
            </g>
        </g>
    </g>
</svg>