<?xml version="1.0" encoding="UTF-8"?>
<svg width="49px" height="49px" viewBox="0 0 49 49" version="1.1" xmlns="http://www.w3.org/2000/svg" xmlns:xlink="http://www.w3.org/1999/xlink">
    <!-- Generator: Sketch 42 (36781) - http://www.bohemiancoding.com/sketch -->
    <title>ic-javascript</title>
    <desc>Created with Sketch.</desc>
    <defs>
        <rect id="path-1" x="0" y="0" width="49" height="49"></rect>
    </defs>
    <g id="Homepage-Josh" stroke="none" stroke-width="1" fill="none" fill-rule="evenodd">
        <g id="Homepage-3-Copy" transform="translate(-791.000000, -1386.000000)">
            <g id="Tech" transform="translate(0.000000, 1201.000000)">
                <g id="Technologies" transform="translate(218.000000, 182.000000)">
                    <g id="ic-javascript" transform="translate(573.000000, 3.000000)">
                        <mask id="mask-2" fill="white">
                            <use xlink:href="#path-1"></use>
                        </mask>
                        <g id="path-1"></g>
                        <rect id="path-1" stroke="#FFFFFF" stroke-width="4" mask="url(#mask-2)" x="0" y="0" width="49" height="49"></rect>
                        <path d="M26.865,37.084 L26.865,25.292 L24.775,25.292 L24.775,36.776 C24.775,37.6413377 24.5953351,38.3306641 24.236,38.844 C23.8766649,39.3573359 23.2203381,39.614 22.267,39.614 C21.7536641,39.614 21.3320016,39.5370008 21.002,39.383 C20.6719983,39.2289992 20.4153342,39.0126681 20.232,38.734 C20.0486657,38.4553319 19.9203337,38.1253352 19.847,37.744 C19.7736663,37.3626648 19.737,36.9446689 19.737,36.49 L19.737,35.83 L17.647,35.83 L17.647,36.798 C17.647,38.2940075 18.042996,39.4269961 18.835,40.197 C19.627004,40.9670038 20.756326,41.352 22.223,41.352 C23.1030044,41.352 23.839997,41.2310012 24.434,40.989 C25.028003,40.7469988 25.5046649,40.4243353 25.864,40.021 C26.2233351,39.6176646 26.4799992,39.1593359 26.634,38.646 C26.7880008,38.1326641 26.865,37.6120026 26.865,37.084 Z M39.383,29.89 L41.363,29.89 C41.3336665,29.0246623 41.1686682,28.2803364 40.868,27.657 C40.5673318,27.0336635 40.1566693,26.5166687 39.636,26.106 C39.1153307,25.6953313 38.5103368,25.3946676 37.821,25.204 C37.1316632,25.0133324 36.3836707,24.918 35.577,24.918 C34.8583297,24.918 34.1580034,25.0096657 33.476,25.193 C32.7939966,25.3763342 32.185336,25.6549981 31.65,26.029 C31.114664,26.4030019 30.6856683,26.8796638 30.363,27.459 C30.0403317,28.0383362 29.879,28.723996 29.879,29.516 C29.879,30.2346703 30.0219986,30.8323309 30.308,31.309 C30.5940014,31.785669 30.9753309,32.1743318 31.452,32.475 C31.928669,32.7756682 32.4676637,33.0176657 33.069,33.201 C33.6703363,33.3843342 34.2826635,33.545666 34.906,33.685 C35.5293364,33.824334 36.1416637,33.9599993 36.743,34.092 C37.3443363,34.2240007 37.8833309,34.3963323 38.36,34.609 C38.836669,34.8216677 39.2179986,35.096665 39.504,35.434 C39.7900014,35.771335 39.933,36.2113306 39.933,36.754 C39.933,37.3260029 39.8156678,37.7953315 39.581,38.162 C39.3463322,38.5286685 39.0383352,38.8183323 38.657,39.031 C38.2756648,39.2436677 37.846669,39.3939996 37.37,39.482 C36.8933309,39.5700004 36.4203357,39.614 35.951,39.614 C35.3643304,39.614 34.7923361,39.5406674 34.235,39.394 C33.6776639,39.2473326 33.1900021,39.0200015 32.772,38.712 C32.3539979,38.4039985 32.0166679,38.011669 31.76,37.535 C31.503332,37.0583309 31.375,36.4900033 31.375,35.83 L29.395,35.83 C29.395,36.7833381 29.5673316,37.6083298 29.912,38.305 C30.2566684,39.0016701 30.725997,39.5736644 31.32,40.021 C31.914003,40.4683356 32.6033294,40.8019989 33.388,41.022 C34.1726706,41.2420011 35.0049956,41.352 35.885,41.352 C36.6036703,41.352 37.3259964,41.2676675 38.052,41.099 C38.7780036,40.9303325 39.4343304,40.6590019 40.021,40.285 C40.6076696,39.9109981 41.0879981,39.427003 41.462,38.833 C41.8360019,38.238997 42.023,37.5240042 42.023,36.688 C42.023,35.9106628 41.8800014,35.2653359 41.594,34.752 C41.3079986,34.2386641 40.926669,33.813335 40.45,33.476 C39.9733309,33.138665 39.4343363,32.871001 38.833,32.673 C38.2316637,32.474999 37.6193364,32.3026674 36.996,32.156 C36.3726635,32.0093326 35.7603363,31.8736673 35.159,31.749 C34.5576637,31.6243327 34.018669,31.4666676 33.542,31.276 C33.0653309,31.0853324 32.6840014,30.8396682 32.398,30.539 C32.1119986,30.2383318 31.969,29.8460024 31.969,29.362 C31.969,28.8486641 32.067999,28.4196684 32.266,28.075 C32.464001,27.7303316 32.7279983,27.4553344 33.058,27.25 C33.3880016,27.0446656 33.7656645,26.8980004 34.191,26.81 C34.6163355,26.7219996 35.0489978,26.678 35.489,26.678 C36.5743388,26.678 37.4653298,26.9309975 38.162,27.437 C38.8586701,27.9430025 39.2656661,28.760661 39.383,29.89 Z" id="JS" fill="#FFFFFF" mask="url(#mask-2)"></path>
                    </g>
                </g>
            </g>
        </g>
    </g>
</svg>