<?xml version="1.0" encoding="UTF-8"?>
<svg width="56px" height="49px" viewBox="0 0 56 49" version="1.1" xmlns="http://www.w3.org/2000/svg" xmlns:xlink="http://www.w3.org/1999/xlink">
    <!-- Generator: Sketch 42 (36781) - http://www.bohemiancoding.com/sketch -->
    <title>ic-react</title>
    <desc>Created with Sketch.</desc>
    <defs></defs>
    <g id="Homepage-Josh" stroke="none" stroke-width="1" fill="none" fill-rule="evenodd">
        <g id="Homepage-3-Copy" transform="translate(-1325.000000, -1386.000000)" fill-rule="nonzero" fill="#FFFFFF">
            <g id="Tech" transform="translate(0.000000, 1201.000000)">
                <g id="Technologies" transform="translate(218.000000, 182.000000)">
                    <g id="ic-react" transform="translate(1107.000000, 3.000000)">
                        <path d="M45.2816805,15.8818162 C51.2298796,17.9294782 55.0737553,21.1369395 55.0737553,24.4536068 C55.0737553,27.9123205 50.9658837,31.2940803 44.6522264,33.3859539 C44.3186285,33.4965323 43.9765017,33.6028954 43.6280032,33.7059258 C43.7524039,34.2058814 43.8631783,34.6971125 43.9583661,35.1779524 C45.2047267,41.4738659 44.2447133,46.6486041 41.290759,48.3586492 C38.430718,50.0143851 33.8078917,48.3879602 29.1273253,44.3601793 C28.633055,43.9347267 28.1361386,43.4811394 27.6384373,43.0018682 C27.2544518,43.3730117 26.8711524,43.7270979 26.4892252,44.06099 C21.6570057,48.28493 16.6945036,50.0376183 13.7376083,48.3324749 C10.8749203,46.6813464 9.97539207,41.8642236 11.1272509,35.7976034 C11.2487108,35.1575619 11.3934039,34.5013456 11.5597617,33.8316987 C11.047258,33.684653 10.5499491,33.5297648 10.0706777,33.3659556 C3.99748951,31.2901591 0,27.8667364 0,24.4536068 C0,21.1488992 3.72378823,17.9629066 9.55454694,15.9300472 C10.206254,15.7029104 10.8873702,15.4893999 11.592896,15.2891235 C11.438694,14.6699626 11.3023335,14.0609969 11.1856772,13.4646771 C9.97764677,7.29090949 10.8276696,2.35722831 13.6980039,0.695610604 C16.6913666,-1.03727532 21.6764159,0.823638473 26.6497995,5.23952235 C26.9533019,5.50900831 27.2575886,5.79074808 27.5623658,6.08229092 C28.019776,5.64164364 28.4773828,5.22119064 28.933715,4.8240689 C33.6791776,0.694238175 38.3778794,-1.03325606 41.2509586,0.623558143 C44.2472623,2.35144451 45.1247337,7.59950964 43.7826955,14.1139334 C43.7009378,14.510663 43.6089855,14.9142547 43.508798,15.3231401 C44.118352,15.4991049 44.7103585,15.6851669 45.2816805,15.8818162 Z M43.9122919,31.1527202 C49.3636725,29.3464093 52.7210224,26.5826343 52.7210224,24.4536068 C52.7210224,22.4548621 49.6122777,19.8608759 44.5158661,18.1064233 C43.9889518,17.9249688 43.4421374,17.7530232 42.8787558,17.5899984 C42.2012667,19.7822555 41.2969351,22.0986191 40.1984048,24.4650765 C41.3495774,26.8892738 42.2902786,29.2356349 42.9872756,31.4422044 C43.3021497,31.3487813 43.611142,31.2524171 43.9122919,31.1527202 Z M41.6503351,35.6348725 C41.5643623,35.2003032 41.4645673,34.7558327 41.3522242,34.3026376 C39.0711517,34.8299438 36.5557856,35.2161844 33.8933743,35.4524378 C32.3796847,37.6437147 30.8287434,39.6167752 29.2769198,41.3139779 C29.7406043,41.7602132 30.2028184,42.1818425 30.6616993,42.5767096 C34.6645807,46.0213068 38.3762128,47.3271717 40.1118436,46.3225546 C40.9274577,45.8504395 41.5871053,44.6716223 41.9151154,42.9035434 C42.2801811,40.9358743 42.2014626,38.4188421 41.6503351,35.6348725 Z M18.7758881,46.1489426 C20.6629761,45.4824329 22.8042571,44.157256 24.9410289,42.28948 C25.2890372,41.9851933 25.6390064,41.6622805 25.9903479,41.3230949 C24.3822549,39.5973653 22.7865136,37.6264614 21.2626288,35.4822391 C18.5938453,35.2658856 16.0969093,34.9068979 13.8408344,34.4080205 C13.6860442,35.031887 13.5517424,35.6422248 13.4389092,36.2363881 C12.4538003,41.4245566 13.1759913,45.2922536 14.9131905,46.2942237 C15.7295889,46.7649666 17.0801557,46.7478112 18.7758881,46.1489426 Z M10.8315908,31.139682 C11.2684149,31.2888846 11.7223944,31.4306366 12.1909804,31.5653306 C12.8868992,29.2972962 13.8037789,26.916134 14.9088772,24.5108567 C13.8178953,22.1407723 12.9138576,19.79696 12.2247029,17.5551976 C11.5674081,17.7419458 10.9340328,17.9407517 10.3289882,18.1517134 C5.34246858,19.8902851 2.35263502,22.4481961 2.35263502,24.4536068 C2.35263502,25.3959746 3.04227992,26.5573425 4.40823748,27.727141 C5.92839715,29.0288884 8.14614212,30.2218221 10.8315908,31.139682 Z M13.4945906,13.0128543 C13.6029143,13.5666288 13.7298638,14.1330493 13.8731845,14.7095669 C16.1527867,14.1931421 18.6321753,13.8074899 21.2223385,13.5674131 C22.732695,11.4358369 24.3138296,9.47973547 25.9139822,7.76155415 C25.637634,7.49765591 25.3620701,7.24258045 25.0875847,6.9988765 C20.7934546,3.1859785 16.7192073,1.66513267 14.8767232,2.73180302 C13.1469743,3.733087 12.4595841,7.72332224 13.4945906,13.0128543 Z M37.2509202,18.878904 C37.8073417,19.8400935 38.3357265,20.7963814 38.8352899,21.7448269 C39.531699,20.1142849 40.1233131,18.5237393 40.5979772,17.0025014 C39.0169404,16.6416509 37.3333642,16.3467751 35.5761666,16.1246378 C36.1465081,17.0185784 36.7059687,17.9376147 37.2509202,18.878904 Z M27.5631499,9.44297402 C26.4609925,10.6321825 25.364815,11.943047 24.2948116,13.3540006 C25.3653052,13.304005 26.4477584,13.2781249 27.5368778,13.2781249 C28.6363881,13.2781249 29.72688,13.3045932 30.8040398,13.355471 C29.7351146,11.9312833 28.648348,10.6186543 27.5631499,9.44297402 Z M17.8133261,18.8951771 L17.8133261,18.894981 C18.3591602,17.9484961 18.923228,17.0226956 19.5016082,16.1205206 C17.7555862,16.3384425 16.0799501,16.625966 14.5086185,16.9776016 C14.9873997,18.5204063 15.5735243,20.1182061 16.2586598,21.7430625 C16.750381,20.7902055 17.2689625,19.8391132 17.8133261,18.8951771 Z M19.5518978,32.9545215 C18.958617,32.0339166 18.3806289,31.0898826 17.8227371,30.1261445 L17.8226391,30.1261445 C17.2749424,29.1801496 16.7543022,28.228665 16.2613066,27.2764944 C15.5616626,28.9363477 14.9625979,30.568262 14.4761704,32.1386132 C16.0471098,32.480544 17.7479398,32.7532647 19.5518978,32.9545215 Z M27.6282423,39.6301074 C28.7060881,38.4434477 29.7889333,37.1105267 30.8613877,35.6532044 C29.7691312,35.7018276 28.6594256,35.7271196 27.5368778,35.7271196 C26.4442291,35.7271196 25.3691282,35.7059447 24.3146137,35.6645759 C25.4008902,37.096116 26.5131447,38.4269785 27.6282423,39.6301074 Z M38.857739,27.1918941 C38.3540581,28.1627888 37.8213602,29.1371143 37.2603311,30.1099692 C36.7057725,31.0715507 36.1414109,32.0063701 35.5696966,32.9123686 C37.3862025,32.6943486 39.1102657,32.400943 40.7070852,32.0366616 C40.2143836,30.4930726 39.5938503,28.8696868 38.857739,27.1918941 Z M35.2223742,28.934583 C36.0821023,27.4436367 36.8736009,25.9509254 37.5888316,24.4766442 C36.8714441,23.0272624 36.0781811,21.5494522 35.2146299,20.0578193 C34.3607839,18.5827537 33.4717448,17.165134 32.5610409,15.8208412 C30.9236369,15.6959503 29.2419229,15.630858 27.5368778,15.630858 L27.5367798,15.630858 C25.8393809,15.630858 24.1598235,15.6954601 22.5219291,15.8192727 C21.597109,17.1734666 20.7019921,18.5956938 19.8514792,20.0705633 L19.8516752,20.0702692 C19.0034169,21.5412175 18.2202509,23.0289291 17.5089413,24.5100726 C18.220447,25.9877849 19.0056716,27.47383 19.8588315,28.947425 L19.8586354,28.947425 C20.71405,30.4250395 21.6171073,31.8542268 22.5505542,33.2169493 C24.1559023,33.3211557 25.8230099,33.3743864 27.5368778,33.3743864 C29.2577058,33.3743864 30.9460858,33.3141956 32.5803531,33.1973434 C33.4776266,31.852266 34.36147,30.4272941 35.2223742,28.934583 Z M40.0757685,2.6618092 C38.344353,1.66336812 34.5441989,3.0604014 30.478284,6.59881387 C30.0574391,6.965154 29.6348294,7.35335497 29.2116314,7.76047578 C30.7857079,9.45660026 32.3539025,11.4157407 33.8672002,13.5707461 C36.4649113,13.8144501 38.9460643,14.2067683 41.2309603,14.7339765 C41.3213448,14.3635191 41.4045723,13.9979632 41.4784875,13.6390734 C42.6372084,8.01457098 41.9200172,3.72534257 40.0757685,2.6618092 Z M27.5368778,19.5357086 C30.252912,19.5357086 32.4547759,21.7374746 32.4547759,24.4536068 C32.4547759,27.169641 30.252912,29.3715053 27.5368778,29.3715053 C24.8208436,29.3715053 22.6189794,27.169641 22.6189794,24.4536068 C22.6189794,21.7374746 24.8208436,19.5357086 27.5368778,19.5357086 Z"></path>
                    </g>
                </g>
            </g>
        </g>
    </g>
</svg>