<?xml version="1.0" encoding="UTF-8"?>
<svg width="63px" height="45px" viewBox="0 0 63 45" version="1.1" xmlns="http://www.w3.org/2000/svg" xmlns:xlink="http://www.w3.org/1999/xlink">
    <!-- Generator: Sketch 42 (36781) - http://www.bohemiancoding.com/sketch -->
    <title>ic-ruby</title>
    <desc>Created with Sketch.</desc>
    <defs></defs>
    <g id="Homepage-Josh" stroke="none" stroke-width="1" fill="none" fill-rule="evenodd">
        <g id="Homepage-3-Copy" transform="translate(-503.000000, -1388.000000)" fill-rule="nonzero" fill="#FFFFFF">
            <g id="Tech" transform="translate(0.000000, 1201.000000)">
                <g id="Technologies" transform="translate(218.000000, 182.000000)">
                    <path d="M336.219358,5 L296.332737,5 L285,20.1066799 L316.279164,49.085951 L347.553653,20.1129127 L336.219358,5 Z M328.191548,21.2020895 L316.279164,44.6232866 L304.471178,21.2020895 L328.191548,21.2020895 Z M305.57282,18.7136555 L316.279164,8.00575405 L326.979274,18.7136555 L305.57282,18.7136555 Z M319.286476,7.49466678 L333.766762,7.49466678 L329.682739,17.8846969 L319.286476,7.49466678 Z M303.028291,17.7273194 L299.620524,7.49466678 L313.267177,7.49466678 L303.028291,17.7273194 Z M301.683571,21.2020895 L312.04867,41.7686772 L289.850654,21.2020895 L301.683571,21.2020895 Z M330.991621,21.2020895 L342.70144,21.2020895 L320.557961,41.7203733 L330.991621,21.2020895 Z M332.038726,18.7136555 L335.938883,8.7801759 L343.390161,18.7136555 L332.038726,18.7136555 Z M297.172603,8.0369179 L300.734632,18.7136555 L289.163491,18.7136555 L297.172603,8.0369179 Z" id="ic-ruby"></path>
                </g>
            </g>
        </g>
    </g>
</svg>