<?xml version="1.0" encoding="UTF-8"?>
<svg width="59px" height="55px" viewBox="0 0 59 55" version="1.1" xmlns="http://www.w3.org/2000/svg" xmlns:xlink="http://www.w3.org/1999/xlink">
    <!-- Generator: Sketch 42 (36781) - http://www.bohemiancoding.com/sketch -->
    <title>ic-swift</title>
    <desc>Created with Sketch.</desc>
    <defs></defs>
    <g id="Homepage-Josh" stroke="none" stroke-width="1" fill="none" fill-rule="evenodd">
        <g id="Homepage-3-Copy" transform="translate(-218.000000, -1383.000000)" fill-rule="nonzero" fill="#FFFFFF">
            <g id="Tech" transform="translate(0.000000, 1201.000000)">
                <g id="Technologies" transform="translate(218.000000, 182.000000)">
                    <g id="ic-swift">
                        <path d="M21.6865836,13.8267023 C21.873806,14.0932029 22.0634259,14.3625544 22.255342,14.6346247 C24.0551057,17.1860647 25.983931,19.8742734 27.9128227,22.5317761 C28.5879827,23.4619681 29.2148948,24.3218372 29.7774551,25.0904806 C29.9743008,25.3594369 30.1490241,25.5977545 30.2996127,25.8028213 C30.4521025,26.010349 30.4521025,26.010349 30.4839293,26.0535625 L33.3757964,29.9800731 L29.272846,27.3445127 C29.2124293,27.3057036 29.0953754,27.2293468 28.9219028,27.1144517 C28.6351423,26.9245233 28.2924003,26.6940754 27.8938953,26.4221174 C26.7583342,25.6471586 25.4023443,24.6942724 23.8276742,23.5555341 C20.4074282,21.0821493 16.4924637,18.1228737 12.0889507,14.6497415 C17.518186,21.5816003 29.0993291,33.6030287 34.6937718,37.6590113 L35.0441042,37.9130031 L35.0644997,38.3452399 C35.0888059,39.3571099 34.0381245,40.4085835 31.4192446,41.2729477 C30.0824447,41.71416 28.3637109,42.0980008 26.2169926,42.412929 C19.3170829,43.4251523 14.7605728,42.3392689 5.7570541,37.6103992 C6.09055448,38.1114736 6.36806459,38.5271714 6.49987462,38.7201041 C10.2572973,44.21991 13.6553149,46.8535174 21.8057565,49.5976565 C28.6360709,51.8973198 33.8169244,51.4245001 41.8901161,48.8792707 C47.1158273,47.2317645 47.1255758,47.2288752 48.90299,46.9084387 L49.06267,46.89416 C49.1449963,46.89416 49.101553,46.8965688 49.5488926,46.8690833 C51.7362582,46.7346865 53.4183845,47.0764353 55.230243,48.56896 C55.9056808,49.1253542 56.534209,49.8189329 57.1122385,50.6591973 C57.1875999,47.3410644 55.2585387,41.1712496 52.7904208,37.8374988 L52.5192021,37.4711567 L52.6540402,37.0357434 C52.9995509,35.9200354 53.1981549,34.5667228 53.2635502,33.0302656 C53.343669,31.1478817 53.2227592,29.1173988 52.9716235,27.1155605 C52.9024313,26.5640195 52.8283602,26.0573264 52.7544362,25.6073543 C52.7104723,25.3397482 52.6766842,25.1522712 52.6702683,25.1104338 C52.6224744,24.9257001 52.5165627,24.5632774 52.3464819,24.0487148 C52.0599938,23.1819738 51.6971921,22.2138053 51.2521296,21.1697705 C49.9790261,18.1833038 48.3052394,15.1962623 46.1852671,12.4120894 C44.2642606,9.88921967 42.0739062,7.66576712 39.5976283,5.81097964 C44.1545367,14.2288288 44.8417485,19.5011408 42.3357359,28.4666097 L42.0241165,29.5814544 L41.0204908,29.0046347 C39.1192333,27.9119136 37.0914603,26.4672715 34.9161933,24.6848835 C32.6186457,22.8023002 30.2089654,20.5900889 27.5000714,17.921125 C25.4349198,15.8864146 19.3061015,9.58267244 18.8073981,9.08289491 C18.381565,8.65614448 17.9829486,8.26322493 17.6110753,7.90368994 C18.7392592,9.59216552 20.1107634,11.5836097 21.6865836,13.8267023 Z M20.7844596,15.6721723 C20.5918871,15.3991714 20.4016046,15.1288789 20.2137128,14.8614253 C16.9341893,10.1932057 14.5342968,6.60922809 13.3275814,4.51034409 L12.3059816,2.73343835 L14.3055515,3.1837496 C15.4676148,3.44545097 17.0952472,4.8187284 20.081559,7.81147278 C20.593666,8.32468294 26.715143,14.6208742 28.7633784,16.6389178 C31.4363032,19.2724426 33.8077422,21.4495465 36.0570271,23.2925839 C37.7754315,24.7006241 39.3908744,25.8852071 40.9093726,26.8377255 C43.1680691,18.0392528 41.9158328,13.107298 36.1863217,3.45955385 L34.4390178,0.517323591 L37.4077561,2.21919988 C41.4088273,4.51287741 44.7951148,7.61515411 47.617367,11.3216355 C49.8341132,14.2329022 51.579722,17.3481173 52.9079548,20.4639073 C53.37336,21.5556624 53.7537352,22.5707273 54.0555412,23.4838111 C54.1618291,23.8053744 54.2508524,24.0918781 54.3234084,24.3401598 C54.3678628,24.49228 54.3974266,24.59981 54.4250464,24.7132917 C54.4468563,24.8255006 54.483734,25.0301209 54.5306262,25.3155514 C54.608129,25.7873069 54.6854846,26.3164683 54.7576241,26.8915022 C55.0202747,28.9851282 55.1468669,31.1110369 55.061922,33.1068086 C54.9983971,34.5993205 54.8173738,35.9508121 54.4994545,37.1322402 C57.8317508,41.9241135 60.0860428,50.7692177 58.1608095,53.5165005 L57.2813526,54.7714741 L56.6136821,53.3921194 C55.8663913,51.8482753 55.0167089,50.7251339 54.0857844,49.9582816 C52.6948031,48.8124559 51.4353121,48.5565717 49.6592806,48.6656952 C49.2653691,48.689898 49.2050211,48.6938521 49.142487,48.6942839 C47.5569184,48.9803821 47.4570159,49.0115346 42.4313404,50.5959757 C34.0280519,53.2452745 28.4976419,53.7499958 21.2314026,51.3035632 C12.7030531,48.4321878 8.98797865,45.5528479 5.01361634,39.7355037 C4.59384978,39.121084 2.779466,36.3737145 2.25649661,35.6070216 L0.129086671,32.4881581 L3.43474529,34.3118367 C14.3272336,40.3210469 18.7688325,41.6863152 25.9557263,40.6319911 C28.0057988,40.3312411 29.6250462,39.9696183 30.8550864,39.5636422 C31.854825,39.2336773 32.5291616,38.8996476 32.9346332,38.5906199 C25.1269023,32.5828278 8.80222379,14.9403233 7.50727674,10.7969654 L6.6224281,7.96577272 L8.93130854,9.82794354 C15.0934302,14.7978515 20.4151429,18.8663793 24.8824558,22.0969609 C25.2362213,22.3527899 25.5787534,22.599087 25.9100317,22.8359444 C24.1598018,20.419241 22.4194451,17.9900141 20.7844596,15.6721723 Z" id="Path-3-Copy"></path>
                    </g>
                </g>
            </g>
        </g>
    </g>
</svg>