<?xml version="1.0" encoding="UTF-8" standalone="no"?>
<svg width="921px" height="576px" viewBox="0 0 921 576" version="1.1" xmlns="http://www.w3.org/2000/svg" xmlns:xlink="http://www.w3.org/1999/xlink">
    <!-- Generator: Sketch 39.1 (31720) - http://www.bohemiancoding.com/sketch -->
    <title>gfx-hero-lockup</title>
    <desc>Created with Sketch.</desc>
    <defs>
        <filter x="-50%" y="-50%" width="200%" height="200%" filterUnits="objectBoundingBox" id="filter-1">
            <feOffset dx="0" dy="30" in="SourceAlpha" result="shadowOffsetOuter1"></feOffset>
            <feGaussianBlur stdDeviation="19" in="shadowOffsetOuter1" result="shadowBlurOuter1"></feGaussianBlur>
            <feColorMatrix values="0 0 0 0 0   0 0 0 0 0   0 0 0 0 0  0 0 0 0.200000003 0" type="matrix" in="shadowBlurOuter1" result="shadowMatrixOuter1"></feColorMatrix>
            <feMerge>
                <feMergeNode in="shadowMatrixOuter1"></feMergeNode>
                <feMergeNode in="SourceGraphic"></feMergeNode>
            </feMerge>
        </filter>
        <path d="M831.054688,466.256649 C831.054688,466.256649 803.613231,477.533396 735.014817,477.533396 C735.014817,477.533396 505.28125,479.554521 415.527344,479.554521 C325.773438,479.554521 96.0398707,477.533396 96.0398707,477.533396 C27.4414568,477.533396 0,466.256649 0,466.256649 L831.054688,466.256649 Z" id="path-2"></path>
        <filter x="-50%" y="-50%" width="200%" height="200%" filterUnits="objectBoundingBox" id="filter-3">
            <feGaussianBlur stdDeviation="12.5 0" in="SourceGraphic"></feGaussianBlur>
        </filter>
        <filter x="-50%" y="-50%" width="200%" height="200%" filterUnits="objectBoundingBox" id="filter-4">
            <feOffset dx="0" dy="1" in="SourceAlpha" result="shadowOffsetOuter1"></feOffset>
            <feGaussianBlur stdDeviation="2.5" in="shadowOffsetOuter1" result="shadowBlurOuter1"></feGaussianBlur>
            <feColorMatrix values="0 0 0 0 0   0 0 0 0 0   0 0 0 0 0  0 0 0 1 0" type="matrix" in="shadowBlurOuter1"></feColorMatrix>
        </filter>
        <linearGradient x1="50%" y1="100%" x2="50%" y2="95.3611898%" id="linearGradient-5">
            <stop stop-color="#000000" offset="0%"></stop>
            <stop stop-color="#000000" stop-opacity="0" offset="100%"></stop>
        </linearGradient>
        <path d="M99.0617188,0 L730.663281,0 C743.671123,0 754.597656,10.9333745 754.597656,23.9361702 L754.597656,445.478723 C754.597656,458.481519 754.517855,469.414894 741.300781,469.414894 L89.7539063,469.414894 C76.3692946,469.414894 75.1273438,458.481519 75.1273438,445.478723 L75.1273438,23.9361702 C75.1273438,10.9333745 86.0538772,0 99.0617188,0 L99.0617188,0 Z" id="path-6"></path>
        <mask id="mask-7" maskContentUnits="userSpaceOnUse" maskUnits="objectBoundingBox" x="0" y="0" width="679.470312" height="469.414894" fill="white">
            <use xlink:href="#path-6"></use>
        </mask>
        <rect id="path-8" x="100.391406" y="34.5744681" width="628.942188" height="392.287234"></rect>
        <polygon id="path-10" points="729.333594 34.5744681 729.333594 426.861702 100.391406 426.861702"></polygon>
        <rect id="path-12" x="100.391406" y="34.5744681" width="628.942188" height="392.287234"></rect>
        <mask id="mask-13" maskContentUnits="userSpaceOnUse" maskUnits="objectBoundingBox" x="0" y="0" width="628.942188" height="392.287234" fill="white">
            <use xlink:href="#path-12"></use>
        </mask>
        <mask id="mask-15" maskContentUnits="userSpaceOnUse" maskUnits="objectBoundingBox" x="0" y="0" width="628.942188" height="392.287234" fill="white">
            <use xlink:href="#path-12"></use>
        </mask>
        <linearGradient x1="50%" y1="99.740912%" x2="50%" y2="0%" id="linearGradient-16">
            <stop stop-color="#D0D0D0" offset="0%"></stop>
            <stop stop-color="#E7E7E7" offset="100%"></stop>
        </linearGradient>
        <linearGradient x1="100%" y1="59.0212107%" x2="0%" y2="59.0212107%" id="linearGradient-17">
            <stop stop-color="#000000" offset="0%"></stop>
            <stop stop-color="#FFFFFF" stop-opacity="0.5" offset="49.648972%"></stop>
            <stop stop-color="#000000" offset="100%"></stop>
        </linearGradient>
        <rect id="path-18" x="0.66484375" y="461.43617" width="831.054688" height="2.65957447"></rect>
        <filter x="-50%" y="-50%" width="200%" height="200%" filterUnits="objectBoundingBox" id="filter-19">
            <feOffset dx="0" dy="1" in="SourceAlpha" result="shadowOffsetInner1"></feOffset>
            <feComposite in="shadowOffsetInner1" in2="SourceAlpha" operator="arithmetic" k2="-1" k3="1" result="shadowInnerInner1"></feComposite>
            <feColorMatrix values="0 0 0 0 1   0 0 0 0 1   0 0 0 0 1  0 0 0 0.300000012 0" type="matrix" in="shadowInnerInner1"></feColorMatrix>
        </filter>
        <linearGradient x1="50%" y1="2.0567602%" x2="50%" y2="100%" id="linearGradient-20">
            <stop stop-color="#000000" offset="0%"></stop>
            <stop stop-color="#9A9A9A" offset="100%"></stop>
        </linearGradient>
        <linearGradient x1="50%" y1="50%" x2="50%" y2="0%" id="linearGradient-21">
            <stop stop-color="#000000" stop-opacity="0" offset="0%"></stop>
            <stop stop-color="#000000" offset="100%"></stop>
        </linearGradient>
        <linearGradient x1="50%" y1="20.7927981%" x2="50%" y2="100%" id="linearGradient-22">
            <stop stop-color="#FFFFFF" stop-opacity="-0.0636196476" offset="0%"></stop>
            <stop stop-color="#FFFFFF" stop-opacity="0" offset="0%"></stop>
            <stop stop-color="#FFFFFF" offset="100%"></stop>
        </linearGradient>
        <path d="M415.527344,468.085106 C385.318909,468.085106 343.641113,467.346336 335.746094,465.868794 L335.746094,461.43617 L495.308594,461.43617 L495.308594,465.868794 C487.413574,467.346336 445.735778,468.085106 415.527344,468.085106 Z" id="path-23"></path>
        <filter x="-50%" y="-50%" width="200%" height="200%" filterUnits="objectBoundingBox" id="filter-24">
            <feOffset dx="0" dy="30" in="SourceAlpha" result="shadowOffsetOuter1"></feOffset>
            <feGaussianBlur stdDeviation="19" in="shadowOffsetOuter1" result="shadowBlurOuter1"></feGaussianBlur>
            <feColorMatrix values="0 0 0 0 0   0 0 0 0 0   0 0 0 0 0  0 0 0 0.200000003 0" type="matrix" in="shadowBlurOuter1" result="shadowMatrixOuter1"></feColorMatrix>
            <feMerge>
                <feMergeNode in="shadowMatrixOuter1"></feMergeNode>
                <feMergeNode in="SourceGraphic"></feMergeNode>
            </feMerge>
        </filter>
        <linearGradient x1="50%" y1="0%" x2="50%" y2="100%" id="linearGradient-25">
            <stop stop-color="#ECEFF0" offset="0%"></stop>
            <stop stop-color="#EDEFF0" offset="100%"></stop>
        </linearGradient>
        <rect id="path-26" x="1.3296875" y="0" width="170.2" height="352.393617" rx="20"></rect>
        <filter x="-50%" y="-50%" width="200%" height="200%" filterUnits="objectBoundingBox" id="filter-27">
            <feGaussianBlur stdDeviation="1" in="SourceAlpha" result="shadowBlurInner1"></feGaussianBlur>
            <feOffset dx="0" dy="0" in="shadowBlurInner1" result="shadowOffsetInner1"></feOffset>
            <feComposite in="shadowOffsetInner1" in2="SourceAlpha" operator="arithmetic" k2="-1" k3="1" result="shadowInnerInner1"></feComposite>
            <feColorMatrix values="0 0 0 0 0   0 0 0 0 0   0 0 0 0 0  0 0 0 0.200000003 0" type="matrix" in="shadowInnerInner1"></feColorMatrix>
        </filter>
        <rect id="path-28" x="3.9890625" y="2.65957447" width="164.88125" height="347.074468" rx="17.1"></rect>
        <rect id="path-29" x="5.31875" y="3.9893617" width="162.221875" height="344.414894" rx="16.2"></rect>
        <filter x="-50%" y="-50%" width="200%" height="200%" filterUnits="objectBoundingBox" id="filter-30">
            <feGaussianBlur stdDeviation="0.5" in="SourceAlpha" result="shadowBlurInner1"></feGaussianBlur>
            <feOffset dx="0" dy="1" in="shadowBlurInner1" result="shadowOffsetInner1"></feOffset>
            <feComposite in="shadowOffsetInner1" in2="SourceAlpha" operator="arithmetic" k2="-1" k3="1" result="shadowInnerInner1"></feComposite>
            <feColorMatrix values="0 0 0 0 1   0 0 0 0 1   0 0 0 0 1  0 0 0 1 0" type="matrix" in="shadowInnerInner1"></feColorMatrix>
        </filter>
        <linearGradient x1="50%" y1="100%" x2="50%" y2="0%" id="linearGradient-31">
            <stop stop-color="#E0E2E3" stop-opacity="0" offset="0%"></stop>
            <stop stop-color="#DADEDF" offset="100%"></stop>
        </linearGradient>
        <linearGradient x1="50%" y1="50%" x2="50%" y2="72.2616838%" id="linearGradient-32">
            <stop stop-color="#FFFFFF" stop-opacity="0.5" offset="0%"></stop>
            <stop stop-color="#FFFFFF" offset="100%"></stop>
        </linearGradient>
        <ellipse id="path-33" cx="86.4296875" cy="329.787234" rx="11.9671875" ry="11.9680851"></ellipse>
        <filter x="-50%" y="-50%" width="200%" height="200%" filterUnits="objectBoundingBox" id="filter-34">
            <feOffset dx="0" dy="1" in="SourceAlpha" result="shadowOffsetInner1"></feOffset>
            <feComposite in="shadowOffsetInner1" in2="SourceAlpha" operator="arithmetic" k2="-1" k3="1" result="shadowInnerInner1"></feComposite>
            <feColorMatrix values="0 0 0 0 0   0 0 0 0 0   0 0 0 0 0  0 0 0 0.02 0" type="matrix" in="shadowInnerInner1"></feColorMatrix>
        </filter>
        <linearGradient x1="50%" y1="100%" x2="50%" y2="0%" id="linearGradient-35">
            <stop stop-color="#E0E2E3" stop-opacity="0" offset="0%"></stop>
            <stop stop-color="#E6E9EB" offset="100%"></stop>
        </linearGradient>
        <path d="M73.2403608,21.2765957 L98.2893267,21.2765957 C99.0830915,21.2765957 99.7265625,21.8719605 99.7265625,22.606383 C99.7265625,23.3408055 99.0830915,23.9361702 98.2893267,23.9361702 L73.2403608,23.9361702 C72.446596,23.9361702 71.803125,23.3408055 71.803125,22.606383 C71.803125,21.8719605 72.446596,21.2765957 73.2403608,21.2765957 L73.2403608,21.2765957 Z" id="path-36"></path>
        <filter x="-50%" y="-50%" width="200%" height="200%" filterUnits="objectBoundingBox" id="filter-37">
            <feOffset dx="0" dy="1" in="SourceAlpha" result="shadowOffsetInner1"></feOffset>
            <feComposite in="shadowOffsetInner1" in2="SourceAlpha" operator="arithmetic" k2="-1" k3="1" result="shadowInnerInner1"></feComposite>
            <feColorMatrix values="0 0 0 0 0   0 0 0 0 0   0 0 0 0 0  0 0 0 0.01 0" type="matrix" in="shadowInnerInner1"></feColorMatrix>
        </filter>
    </defs>
    <g id="Page-1" stroke="none" stroke-width="1" fill="none" fill-rule="evenodd">
        <g id="Artboard" transform="translate(-342.000000, -200.000000)">
            <g id="Lockup" transform="translate(374.000000, 208.000000)">
                <g id="macbook" filter="url(#filter-1)">
                    <g id="shadow" opacity="0.1" filter="url(#filter-3)" fill-opacity="1" fill="black">
                        <use filter="url(#filter-4)" xlink:href="#path-2"></use>
                    </g>
                    <g id="top">
                        <use fill="#EFEFEF" fill-rule="evenodd" xlink:href="#path-6"></use>
                        <use fill-opacity="0.1" fill="url(#linearGradient-5)" fill-rule="evenodd" style="mix-blend-mode: multiply;" xlink:href="#path-6"></use>
                        <use stroke-opacity="0.25" stroke="#FFFFFF" mask="url(#mask-7)" stroke-width="7.5" xlink:href="#path-6"></use>
                    </g>
                    <mask id="mask-9" fill="white">
                        <use xlink:href="#path-8"></use>
                    </mask>
                    <use id="screen" fill="#2B2B2B" xlink:href="#path-8"></use>
                    <mask id="mask-11" fill="white">
                        <use xlink:href="#path-10"></use>
                    </mask>
                    <use id="screen" fill-opacity="0.02" fill="#FFFFFF" xlink:href="#path-10"></use>
                    <mask id="mask-14" fill="white">
                        <use xlink:href="#path-12"></use>
                    </mask>
                    <g id="screen" stroke="#000000" mask="url(#mask-13)" stroke-width="2.5">
                        <use mask="url(#mask-15)" xlink:href="#path-12"></use>
                    </g>
                    <path d="M831.719531,464.095745 C831.719531,464.095745 804.278074,477.627841 735.982031,476.861702 C735.679661,477.627841 505.946094,480.053191 416.857031,480.053191 C326.438281,480.053191 96.7047144,477.627841 96.4023437,476.861702 C28.1063005,477.627841 0.66484375,464.095745 0.66484375,464.095745 L831.719531,464.095745 Z" id="bottom" fill="url(#linearGradient-16)"></path>
                    <g id="bottomfront">
                        <use fill="#F3F3F3" fill-rule="evenodd" xlink:href="#path-18"></use>
                        <use fill-opacity="0.02" fill="url(#linearGradient-17)" fill-rule="evenodd" style="mix-blend-mode: multiply;" xlink:href="#path-18"></use>
                        <use fill="black" fill-opacity="1" filter="url(#filter-19)" xlink:href="#path-18"></use>
                    </g>
                    <g id="shadows">
                        <use fill="#FAFAFA" xlink:href="#path-23"></use>
                        <use fill-opacity="0.03" fill="url(#linearGradient-20)" style="mix-blend-mode: multiply;" xlink:href="#path-23"></use>
                        <use fill-opacity="0.04" fill="url(#linearGradient-21)" style="mix-blend-mode: multiply;" xlink:href="#path-23"></use>
                        <use fill-opacity="0.3" fill="url(#linearGradient-22)" style="mix-blend-mode: soft-light;" xlink:href="#path-23"></use>
                    </g>
                </g>
                <g id="iPhone" filter="url(#filter-24)" transform="translate(676.810937, 147.606383)">
                    <g id="buttons" transform="translate(0.000000, 44.922699)" fill="#DEDEDE">
                        <path d="M1.3296875,0.290066904 L1.3296875,0.290066904 C1.2105475,0.290066904 1.3296875,0.383683925 1.3296875,0.290066904 L1.3296875,14.9177265 C1.3296875,14.8241095 1.2105475,14.9177265 1.3296875,14.9177265 L1.3296875,14.9177265 C0.357154062,14.9177265 0,14.6370844 0,14.9177265 L0,0.290066904 C0,0.570709001 0.357154062,0.290066904 1.3296875,0.290066904 L1.3296875,0.290066904 Z" id="Shape"></path>
                        <path d="M172.859375,29.5453861 L174.189063,29.5453861 C173.965841,29.5453861 174.189063,29.8180432 174.189063,29.5453861 L174.189063,56.1411307 C174.189063,55.8684736 173.965841,56.1411307 174.189063,56.1411307 L172.859375,56.1411307 C172.933838,56.1411307 172.859375,56.0501773 172.859375,56.1411307 L172.859375,29.5453861 C172.859375,29.6363394 172.933838,29.5453861 172.859375,29.5453861 L172.859375,29.5453861 Z" id="Shape"></path>
                        <path d="M0,62.7900669 L1.3296875,62.7900669 C1.26349861,62.7900669 1.3296875,62.8810203 1.3296875,62.7900669 L1.3296875,89.3858116 C1.3296875,89.2948582 1.26349861,89.3858116 1.3296875,89.3858116 L0,89.3858116 C0.198418924,89.3858116 0,89.1131544 0,89.3858116 L0,62.7900669 C0,63.062724 0.198418924,62.7900669 0,62.7900669 L0,62.7900669 Z" id="Shape"></path>
                        <path d="M0,30.8751733 L1.3296875,30.8751733 C1.26349861,30.8751733 1.3296875,30.9661267 1.3296875,30.8751733 L1.3296875,57.470918 C1.3296875,57.3799646 1.26349861,57.470918 1.3296875,57.470918 L0,57.470918 C0.198418924,57.470918 0,57.1982608 0,57.470918 L0,30.8751733 C0,31.1478304 0.198418924,30.8751733 0,30.8751733 L0,30.8751733 Z" id="Shape"></path>
                    </g>
                    <g id="base">
                        <use fill="url(#linearGradient-25)" fill-rule="evenodd" xlink:href="#path-26"></use>
                        <use fill-opacity="0.04" fill="#000000" fill-rule="evenodd" style="mix-blend-mode: multiply;" xlink:href="#path-26"></use>
                        <use fill="black" fill-opacity="1" filter="url(#filter-27)" xlink:href="#path-26"></use>
                    </g>
                    <g id="front">
                        <use fill="url(#linearGradient-25)" xlink:href="#path-28"></use>
                        <use fill-opacity="0.8" fill="#FFFFFF" style="mix-blend-mode: screen;" xlink:href="#path-28"></use>
                    </g>
                    <g id="inner">
                        <use fill="black" fill-opacity="1" filter="url(#filter-30)" xlink:href="#path-29"></use>
                        <use stroke-opacity="0.1" stroke="#000000" stroke-width="0.5" xlink:href="#path-29"></use>
                    </g>
                    <ellipse id="homeborder" fill="#E7E8E8" cx="86.4296875" cy="329.787234" rx="13.296875" ry="13.2978723"></ellipse>
                    <g id="homebutton">
                        <use fill="url(#linearGradient-31)" fill-rule="evenodd" xlink:href="#path-33"></use>
                        <use fill-opacity="0.3" fill="url(#linearGradient-32)" fill-rule="evenodd" style="mix-blend-mode: screen;" xlink:href="#path-33"></use>
                        <use fill="black" fill-opacity="1" filter="url(#filter-34)" xlink:href="#path-33"></use>
                    </g>
                    <path d="M73.2403608,21.2765957 L98.2893267,21.2765957 C99.0830915,21.2765957 99.7265625,21.8719605 99.7265625,22.606383 C99.7265625,23.3408055 99.0830915,23.9361702 98.2893267,23.9361702 L73.2403608,23.9361702 C72.446596,23.9361702 71.803125,23.3408055 71.803125,22.606383 C71.803125,21.8719605 72.446596,21.2765957 73.2403608,21.2765957 L73.2403608,21.2765957 Z" id="earborder" fill="#E7E8E8"></path>
                    <g id="ear">
                        <use fill="url(#linearGradient-35)" fill-rule="evenodd" xlink:href="#path-36"></use>
                        <use fill="black" fill-opacity="1" filter="url(#filter-37)" xlink:href="#path-36"></use>
                    </g>
                    <ellipse id="circle" fill="#E7E8E8" cx="59.8359375" cy="22.606383" rx="1.3296875" ry="1.32978723"></ellipse>
                    <ellipse id="circle" fill="#E7E8E8" opacity="0.4" cx="86.4296875" cy="10.6382979" rx="1.3296875" ry="1.32978723"></ellipse>
                    <rect id="screen" fill="#323232" x="10.6375" y="42.5531915" width="151.584375" height="268.617021" rx="0.6"></rect>
                    <path d="M161.922573,43.0835732 C162.087873,42.7906515 162.221875,42.8271952 162.221875,43.1447273 L162.221875,310.578677 C162.221875,310.905373 161.955233,311.170213 161.626893,311.170213 L11.232482,311.170213 C10.9038825,311.170213 10.7688032,310.937535 10.9368019,310.639831 L161.922573,43.0835732 Z" id="screen" fill-opacity="0.02" fill="#FFFFFF"></path>
                </g>
                        <g id="NEXT-BIG-THING-HERE" transform="translate(713.000000, 241.000000)" fill="#FFFFFF">
                            <path d="M29.706094,9.519681 L29.706094,30.744681 L28.986094,30.744681 C28.8560934,30.744681 28.7485944,30.7221812 28.663594,30.677181 C28.5785936,30.6321808 28.4960944,30.5546816 28.416094,30.444681 L14.631094,12.024681 C14.6610942,12.3246825 14.676094,12.6096797 14.676094,12.879681 L14.676094,30.744681 L13.326094,30.744681 L13.326094,9.519681 L14.091094,9.519681 C14.2310947,9.519681 14.3385936,9.53718083 14.413594,9.572181 C14.4885944,9.60718118 14.5710936,9.6846804 14.661094,9.804681 L28.416094,28.179681 C28.3860939,27.8796795 28.371094,27.5946824 28.371094,27.324681 L28.371094,9.519681 L29.706094,9.519681 Z M48.726094,29.469681 L48.696094,30.744681 L35.976094,30.744681 L35.976094,9.519681 L48.696094,9.519681 L48.696094,10.794681 L37.521094,10.794681 L37.521094,19.374681 L46.821094,19.374681 L46.821094,20.619681 L37.521094,20.619681 L37.521094,29.469681 L48.726094,29.469681 Z M68.301094,30.744681 L66.786094,30.744681 C66.6460933,30.744681 66.5360944,30.7021814 66.456094,30.617181 C66.3760936,30.5321806 66.3110943,30.4496814 66.261094,30.369681 L59.571094,20.574681 C59.5310938,20.7246818 59.4610945,20.8746803 59.361094,21.024681 L52.791094,30.369681 C52.7210937,30.4596815 52.6485944,30.5446806 52.573594,30.624681 C52.4985936,30.7046814 52.4010946,30.744681 52.281094,30.744681 L50.841094,30.744681 L58.521094,19.854681 L51.186094,9.519681 L52.701094,9.519681 C52.8410947,9.519681 52.9435937,9.5496807 53.008594,9.609681 C53.0735943,9.6696813 53.1310938,9.7396806 53.181094,9.819681 L59.631094,19.104681 C59.6910943,18.9546803 59.7660936,18.8046818 59.856094,18.654681 L66.081094,9.834681 C66.1310943,9.74468055 66.1935936,9.6696813 66.268594,9.609681 C66.3435944,9.5496807 66.4310935,9.519681 66.531094,9.519681 L68.001094,9.519681 L60.666094,19.764681 L68.301094,30.744681 Z M85.866094,10.824681 L78.411094,10.824681 L78.411094,30.744681 L76.866094,30.744681 L76.866094,10.824681 L69.366094,10.824681 L69.366094,9.519681 L85.866094,9.519681 L85.866094,10.824681 Z" id="NEXT"></path>
                            <path d="M33.561094,63.594681 C34.3110978,63.594681 34.9410915,63.5046819 35.451094,63.324681 C35.9610966,63.1446801 36.3685925,62.9046825 36.673594,62.604681 C36.9785955,62.3046795 37.1985933,61.954683 37.333594,61.554681 C37.4685947,61.154679 37.536094,60.7296833 37.536094,60.279681 C37.536094,59.8096787 37.4610948,59.3871829 37.311094,59.012181 C37.1610933,58.6371791 36.9260956,58.3171823 36.606094,58.052181 C36.2860924,57.7871797 35.8735965,57.5846817 35.368594,57.444681 C34.8635915,57.3046803 34.2560976,57.234681 33.546094,57.234681 L29.481094,57.234681 L29.481094,63.594681 L33.561094,63.594681 Z M29.481094,48.174681 L29.481094,54.444681 L32.691094,54.444681 C34.0711009,54.444681 35.1135905,54.1946835 35.818594,53.694681 C36.5235975,53.1946785 36.876094,52.3996865 36.876094,51.309681 C36.876094,50.1796754 36.5560972,49.3746834 35.916094,48.894681 C35.2760908,48.4146786 34.2761008,48.174681 32.916094,48.174681 L29.481094,48.174681 Z M32.916094,45.054681 C34.3361011,45.054681 35.551089,45.1896797 36.561094,45.459681 C37.5710991,45.7296824 38.3985908,46.1146785 39.043594,46.614681 C39.6885972,47.1146835 40.1610925,47.7196775 40.461094,48.429681 C40.7610955,49.1396846 40.911094,49.9396766 40.911094,50.829681 C40.911094,51.3396836 40.8360948,51.8271787 40.686094,52.292181 C40.5360933,52.7571833 40.3035956,53.192179 39.988594,53.597181 C39.6735924,54.002183 39.2735964,54.3696794 38.788594,54.699681 C38.3035916,55.0296827 37.7260974,55.3096799 37.056094,55.539681 C40.0361089,56.2096844 41.526094,57.8196683 41.526094,60.369681 C41.526094,61.2896856 41.3510958,62.1396771 41.001094,62.919681 C40.6510923,63.6996849 40.1410974,64.3721782 39.471094,64.937181 C38.8010907,65.5021838 37.9760989,65.9446794 36.996094,66.264681 C36.0160891,66.5846826 34.8961003,66.744681 33.636094,66.744681 L25.446094,66.744681 L25.446094,45.054681 L32.916094,45.054681 Z M49.251094,66.744681 L45.201094,66.744681 L45.201094,45.054681 L49.251094,45.054681 L49.251094,66.744681 Z M71.976094,55.869681 L71.976094,64.644681 C70.8760885,65.4546851 69.7036002,66.0471791 68.458594,66.422181 C67.2135878,66.7971829 65.8811011,66.984681 64.461094,66.984681 C62.6910852,66.984681 61.0886012,66.7096838 59.653594,66.159681 C58.2185868,65.6096783 56.9935991,64.8446859 55.978594,63.864681 C54.9635889,62.8846761 54.1810968,61.7146878 53.631094,60.354681 C53.0810913,58.9946742 52.806094,57.5096891 52.806094,55.899681 C52.806094,54.2696729 53.0710914,52.7746878 53.601094,51.414681 C54.1310967,50.0546742 54.8835891,48.8846859 55.858594,47.904681 C56.8335989,46.9246761 58.0160871,46.1646837 59.406094,45.624681 C60.796101,45.0846783 62.3560854,44.814681 64.086094,44.814681 C64.9660984,44.814681 65.7885902,44.8846803 66.553594,45.024681 C67.3185978,45.1646817 68.0285907,45.3571798 68.683594,45.602181 C69.3385973,45.8471822 69.9360913,46.1446793 70.476094,46.494681 C71.0160967,46.8446828 71.5110918,47.2296789 71.961094,47.649681 L70.806094,49.479681 C70.6260931,49.7696825 70.3910955,49.9471807 70.101094,50.012181 C69.8110926,50.0771813 69.4960957,50.0046821 69.156094,49.794681 L68.166094,49.224681 C67.8360924,49.0346801 67.468596,48.8696817 67.063594,48.729681 C66.658592,48.5896803 66.2035965,48.4746815 65.698594,48.384681 C65.1935915,48.2946806 64.6110973,48.249681 63.951094,48.249681 C62.8810887,48.249681 61.9135983,48.4296792 61.048594,48.789681 C60.1835897,49.1496828 59.4460971,49.6646777 58.836094,50.334681 C58.226091,51.0046844 57.7560957,51.8096763 57.426094,52.749681 C57.0960924,53.6896857 56.931094,54.7396752 56.931094,55.899681 C56.931094,57.1396872 57.1085922,58.2471761 57.463594,59.222181 C57.8185958,60.1971859 58.3185908,61.0221776 58.963594,61.697181 C59.6085972,62.3721844 60.3860895,62.8871792 61.296094,63.242181 C62.2060986,63.5971828 63.2210884,63.774681 64.341094,63.774681 C65.141098,63.774681 65.8560909,63.6896819 66.486094,63.519681 C67.1160972,63.3496802 67.731091,63.1196825 68.331094,62.829681 L68.331094,58.899681 L65.601094,58.899681 C65.3410927,58.899681 65.1385947,58.8271817 64.993594,58.682181 C64.8485933,58.5371803 64.776094,58.3596821 64.776094,58.149681 L64.776094,55.869681 L71.976094,55.869681 Z" id="BIG"></path>
                            <path d="M18.358594,84.369681 L11.818594,84.369681 L11.818594,102.744681 L7.783594,102.744681 L7.783594,84.369681 L1.243594,84.369681 L1.243594,81.054681 L18.358594,81.054681 L18.358594,84.369681 Z M39.493594,81.054681 L39.493594,102.744681 L35.443594,102.744681 L35.443594,93.264681 L25.258594,93.264681 L25.258594,102.744681 L21.208594,102.744681 L21.208594,81.054681 L25.258594,81.054681 L25.258594,90.384681 L35.443594,90.384681 L35.443594,81.054681 L39.493594,81.054681 Z M48.373594,102.744681 L44.323594,102.744681 L44.323594,81.054681 L48.373594,81.054681 L48.373594,102.744681 Z M71.503594,81.054681 L71.503594,102.744681 L69.433594,102.744681 C69.1135924,102.744681 68.8460951,102.692182 68.631094,102.587181 C68.4160929,102.48218 68.208595,102.304682 68.008594,102.054681 L56.683594,87.594681 C56.7435943,88.2546843 56.773594,88.8646782 56.773594,89.424681 L56.773594,102.744681 L53.218594,102.744681 L53.218594,81.054681 L55.333594,81.054681 C55.5035948,81.054681 55.6510934,81.0621809 55.776094,81.077181 C55.9010946,81.0921811 56.0110935,81.1221808 56.106094,81.167181 C56.2010945,81.2121812 56.2935935,81.2771806 56.383594,81.362181 C56.4735944,81.4471814 56.5735934,81.5596803 56.683594,81.699681 L68.053594,96.219681 C68.0235938,95.8696793 67.9985941,95.5246827 67.978594,95.184681 C67.9585939,94.8446793 67.948594,94.5296825 67.948594,94.239681 L67.948594,81.054681 L71.503594,81.054681 Z M94.213594,91.869681 L94.213594,100.644681 C93.1135885,101.454685 91.9411002,102.047179 90.696094,102.422181 C89.4510878,102.797183 88.1186011,102.984681 86.698594,102.984681 C84.9285851,102.984681 83.3261012,102.709684 81.891094,102.159681 C80.4560868,101.609678 79.2310991,100.844686 78.216094,99.864681 C77.2010889,98.8846761 76.4185967,97.7146878 75.868594,96.354681 C75.3185912,94.9946742 75.043594,93.5096891 75.043594,91.899681 C75.043594,90.2696729 75.3085913,88.7746878 75.838594,87.414681 C76.3685966,86.0546742 77.1210891,84.8846859 78.096094,83.904681 C79.0710989,82.9246761 80.253587,82.1646837 81.643594,81.624681 C83.0336009,81.0846783 84.5935853,80.814681 86.323594,80.814681 C87.2035984,80.814681 88.0260902,80.8846803 88.791094,81.024681 C89.5560978,81.1646817 90.2660907,81.3571798 90.921094,81.602181 C91.5760973,81.8471822 92.1735913,82.1446793 92.713594,82.494681 C93.2535967,82.8446828 93.7485917,83.2296789 94.198594,83.649681 L93.043594,85.479681 C92.8635931,85.7696825 92.6285954,85.9471807 92.338594,86.012181 C92.0485925,86.0771813 91.7335957,86.0046821 91.393594,85.794681 L90.403594,85.224681 C90.0735923,85.0346801 89.706096,84.8696817 89.301094,84.729681 C88.896092,84.5896803 88.4410965,84.4746815 87.936094,84.384681 C87.4310915,84.2946806 86.8485973,84.249681 86.188594,84.249681 C85.1185886,84.249681 84.1510983,84.4296792 83.286094,84.789681 C82.4210897,85.1496828 81.683597,85.6646777 81.073594,86.334681 C80.4635909,87.0046844 79.9935956,87.8096763 79.663594,88.749681 C79.3335923,89.6896857 79.168594,90.7396752 79.168594,91.899681 C79.168594,93.1396872 79.3460922,94.2471761 79.701094,95.222181 C80.0560958,96.1971859 80.5560908,97.0221776 81.201094,97.697181 C81.8460972,98.3721844 82.6235894,98.8871792 83.533594,99.242181 C84.4435985,99.5971828 85.4585884,99.774681 86.578594,99.774681 C87.378598,99.774681 88.0935908,99.6896819 88.723594,99.519681 C89.3535971,99.3496802 89.968591,99.1196825 90.568594,98.829681 L90.568594,94.899681 L87.838594,94.899681 C87.5785927,94.899681 87.3760947,94.8271817 87.231094,94.682181 C87.0860933,94.5371803 87.013594,94.3596821 87.013594,94.149681 L87.013594,91.869681 L94.213594,91.869681 Z" id="THING"></path>
                            <path d="M29.931094,117.519681 L29.931094,138.744681 L28.386094,138.744681 L28.386094,128.574681 L15.096094,128.574681 L15.096094,138.744681 L13.551094,138.744681 L13.551094,117.519681 L15.096094,117.519681 L15.096094,127.419681 L28.386094,127.419681 L28.386094,117.519681 L29.931094,117.519681 Z M48.951094,137.469681 L48.921094,138.744681 L36.201094,138.744681 L36.201094,117.519681 L48.921094,117.519681 L48.921094,118.794681 L37.746094,118.794681 L37.746094,127.374681 L47.046094,127.374681 L47.046094,128.619681 L37.746094,128.619681 L37.746094,137.469681 L48.951094,137.469681 Z M58.821094,128.004681 C59.7610987,128.004681 60.6035903,127.892182 61.348594,127.667181 C62.0935977,127.44218 62.7235914,127.119683 63.238594,126.699681 C63.7535966,126.279679 64.1460927,125.774684 64.416094,125.184681 C64.6860954,124.594678 64.821094,123.929685 64.821094,123.189681 C64.821094,121.679673 64.3285989,120.559685 63.343594,119.829681 C62.3585891,119.099677 60.9211035,118.734681 59.031094,118.734681 L55.146094,118.734681 L55.146094,128.004681 L58.821094,128.004681 Z M68.241094,138.744681 L66.921094,138.744681 C66.7510932,138.744681 66.6085946,138.717181 66.493594,138.662181 C66.3785934,138.607181 66.2710945,138.504682 66.171094,138.354681 L59.361094,129.744681 C59.2810936,129.63468 59.1985944,129.539681 59.113594,129.459681 C59.0285936,129.379681 58.9335945,129.317181 58.828594,129.272181 C58.7235935,129.227181 58.5985947,129.194681 58.453594,129.174681 C58.3085933,129.154681 58.1310951,129.144681 57.921094,129.144681 L55.146094,129.144681 L55.146094,138.744681 L53.601094,138.744681 L53.601094,117.519681 L59.031094,117.519681 C61.4711062,117.519681 63.2985879,117.992176 64.513594,118.937181 C65.7286001,119.882186 66.336094,121.269672 66.336094,123.099681 C66.336094,123.909685 66.1960954,124.649678 65.916094,125.319681 C65.6360926,125.989684 65.2335966,126.577178 64.708594,127.082181 C64.1835914,127.587184 63.5485977,127.999679 62.803594,128.319681 C62.0585903,128.639683 61.2210987,128.85468 60.291094,128.964681 C60.5310952,129.114682 60.7460931,129.31468 60.936094,129.564681 L68.241094,138.744681 Z M84.561094,137.469681 L84.531094,138.744681 L71.811094,138.744681 L71.811094,117.519681 L84.531094,117.519681 L84.531094,118.794681 L73.356094,118.794681 L73.356094,127.374681 L82.656094,127.374681 L82.656094,128.619681 L73.356094,128.619681 L73.356094,137.469681 L84.561094,137.469681 Z" id="HERE"></path>
                        </g>
                <g id="INSERT-GAME-CHANGER" transform="translate(255.000000, 115.000000)" fill="#FFFFFF">
                            <path d="M102.292187,39.638298 L100.232187,39.638298 L100.232187,11.338298 L102.292187,11.338298 L102.292187,39.638298 Z M132.492187,11.338298 L132.492187,39.638298 L131.532187,39.638298 C131.358853,39.638298 131.215521,39.6082983 131.102187,39.548298 C130.988853,39.4882977 130.878854,39.3849654 130.772187,39.238298 L112.392187,14.678298 C112.432187,15.0783 112.452187,15.4582962 112.452187,15.818298 L112.452187,39.638298 L110.652187,39.638298 L110.652187,11.338298 L111.672187,11.338298 C111.858855,11.338298 112.002187,11.3616311 112.102187,11.408298 C112.202188,11.4549649 112.312186,11.5582972 112.432187,11.718298 L130.772187,36.218298 C130.732187,35.818296 130.712187,35.4382998 130.712187,35.078298 L130.712187,11.338298 L132.492187,11.338298 Z M154.592187,14.778298 C154.472186,15.0049658 154.298855,15.118298 154.072187,15.118298 C153.898853,15.118298 153.675522,14.9949659 153.402187,14.748298 C153.128852,14.5016301 152.758856,14.2282995 152.292187,13.928298 C151.825518,13.6282965 151.24219,13.3516326 150.542187,13.098298 C149.842184,12.8449634 148.978859,12.718298 147.952187,12.718298 C146.925515,12.718298 146.022191,12.8649632 145.242187,13.158298 C144.462183,13.4516328 143.808856,13.8516288 143.282187,14.358298 C142.755518,14.8649672 142.355522,15.451628 142.082187,16.118298 C141.808852,16.784968 141.672187,17.484961 141.672187,18.218298 C141.672187,19.1783028 141.875518,19.9716282 142.282187,20.598298 C142.688856,21.2249678 143.225517,21.7582958 143.892187,22.198298 C144.558857,22.6383002 145.315516,23.0082965 146.162187,23.308298 C147.008858,23.6082995 147.878849,23.9049632 148.772187,24.198298 C149.665525,24.4916328 150.535516,24.8149629 151.382187,25.168298 C152.228858,25.5216331 152.985517,25.964962 153.652187,26.498298 C154.318857,27.031634 154.855518,27.6882941 155.262187,28.468298 C155.668856,29.2483019 155.872187,30.2182922 155.872187,31.378298 C155.872187,32.5649706 155.668856,33.6816261 155.262187,34.728298 C154.855518,35.7749699 154.265524,36.6849608 153.492187,37.458298 C152.71885,38.2316352 151.772193,38.8416291 150.652187,39.288298 C149.532181,39.7349669 148.252194,39.958298 146.812187,39.958298 C144.945511,39.958298 143.33886,39.6283013 141.992187,38.968298 C140.645514,38.3082947 139.465525,37.4049704 138.452187,36.258298 L139.012187,35.378298 C139.172188,35.178297 139.358853,35.078298 139.572187,35.078298 C139.692188,35.078298 139.845519,35.1582972 140.032187,35.318298 C140.218855,35.4782988 140.445519,35.6749635 140.712187,35.908298 C140.978855,36.1416325 141.298852,36.3949633 141.672187,36.668298 C142.045522,36.9416327 142.478851,37.1949635 142.972187,37.428298 C143.465523,37.6616325 144.032184,37.8582972 144.672187,38.018298 C145.31219,38.1782988 146.03885,38.258298 146.852187,38.258298 C147.972193,38.258298 148.972183,38.0882997 149.852187,37.748298 C150.732191,37.4082963 151.475517,36.9449676 152.082187,36.358298 C152.688857,35.7716284 153.152185,35.0749687 153.472187,34.268298 C153.792189,33.4616273 153.952187,32.5983026 153.952187,31.678298 C153.952187,30.678293 153.748856,29.8549679 153.342187,29.208298 C152.935518,28.5616281 152.398857,28.0216335 151.732187,27.588298 C151.065517,27.1549625 150.308858,26.7916328 149.462187,26.498298 C148.615516,26.2049632 147.745525,25.9182994 146.852187,25.638298 C145.958849,25.3582966 145.088858,25.0449664 144.242187,24.698298 C143.395516,24.3516296 142.638857,23.9083007 141.972187,23.368298 C141.305517,22.8282953 140.768856,22.1549687 140.362187,21.348298 C139.955518,20.5416273 139.752187,19.5316374 139.752187,18.318298 C139.752187,17.3716266 139.932185,16.4583024 140.292187,15.578298 C140.652189,14.6982936 141.17885,13.9216347 141.872187,13.248298 C142.565524,12.5749613 143.422182,12.0349667 144.442187,11.628298 C145.462192,11.2216293 146.625514,11.018298 147.932187,11.018298 C149.398861,11.018298 150.715514,11.251629 151.882187,11.718298 C153.048859,12.184967 154.112182,12.8982932 155.072187,13.858298 L154.592187,14.778298 Z M179.252187,37.938298 L179.212187,39.638298 L162.252187,39.638298 L162.252187,11.338298 L179.212187,11.338298 L179.212187,13.038298 L164.312187,13.038298 L164.312187,24.478298 L176.712187,24.478298 L176.712187,26.138298 L164.312187,26.138298 L164.312187,37.938298 L179.252187,37.938298 Z M192.412187,25.318298 C193.665527,25.318298 194.788849,25.1682995 195.782187,24.868298 C196.775525,24.5682965 197.615517,24.1383008 198.302187,23.578298 C198.988857,23.0182952 199.512185,22.3449686 199.872187,21.558298 C200.232189,20.7716274 200.412187,19.8849696 200.412187,18.898298 C200.412187,16.8849546 199.755527,15.3916362 198.442187,14.418298 C197.128847,13.4449598 195.2122,12.958298 192.692187,12.958298 L187.512187,12.958298 L187.512187,25.318298 L192.412187,25.318298 Z M204.972187,39.638298 L203.212187,39.638298 C202.985519,39.638298 202.795521,39.6016317 202.642187,39.528298 C202.488853,39.4549643 202.345521,39.318299 202.212187,39.118298 L193.132187,27.638298 C193.02552,27.4916306 192.915521,27.3649652 192.802187,27.258298 C192.688853,27.1516308 192.562188,27.0682983 192.422187,27.008298 C192.282186,26.9482977 192.115521,26.9049648 191.922187,26.878298 C191.728853,26.8516312 191.492188,26.838298 191.212187,26.838298 L187.512187,26.838298 L187.512187,39.638298 L185.452187,39.638298 L185.452187,11.338298 L192.692187,11.338298 C195.945537,11.338298 198.382179,11.9682917 200.002187,13.228298 C201.622195,14.4883043 202.432187,16.3382858 202.432187,18.778298 C202.432187,19.8583034 202.245522,20.8449602 201.872187,21.738298 C201.498852,22.6316358 200.962191,23.4149613 200.262187,24.088298 C199.562184,24.7616347 198.715525,25.3116292 197.722187,25.738298 C196.728849,26.1649668 195.612193,26.4516306 194.372187,26.598298 C194.692189,26.798299 194.978852,27.064963 195.232187,27.398298 L204.972187,39.638298 Z M226.952187,13.078298 L217.012187,13.078298 L217.012187,39.638298 L214.952187,39.638298 L214.952187,13.078298 L204.952187,13.078298 L204.952187,11.338298 L226.952187,11.338298 L226.952187,13.078298 Z" id="INSERT"></path>
                            <path d="M27.932187,73.138298 L27.932187,84.838298 C26.465513,85.9183034 24.9021953,86.7082955 23.242187,87.208298 C21.5821787,87.7083005 19.8055298,87.958298 17.912187,87.958298 C15.5521752,87.958298 13.4155299,87.591635 11.502187,86.858298 C9.5888441,86.124961 7.9555271,85.1049712 6.602187,83.798298 C5.2488469,82.4916248 4.205524,80.9316404 3.472187,79.118298 C2.73885,77.3049556 2.372187,75.3249754 2.372187,73.178298 C2.372187,71.0049538 2.7255168,69.0116404 3.432187,67.198298 C4.1388572,65.3849556 5.1421805,63.8249712 6.442187,62.518298 C7.7421935,61.2116248 9.3188444,60.1983016 11.172187,59.478298 C13.0255296,58.7582944 15.1055088,58.398298 17.412187,58.398298 C18.5855262,58.398298 19.6821819,58.4916304 20.702187,58.678298 C21.7221921,58.8649656 22.6688493,59.1216297 23.542187,59.448298 C24.4155247,59.7749663 25.2121834,60.171629 25.932187,60.638298 C26.6521906,61.104967 27.312184,61.6182952 27.912187,62.178298 L26.372187,64.618298 C26.1321858,65.0049666 25.8188556,65.2416309 25.432187,65.328298 C25.0455184,65.4149651 24.6255226,65.3182994 24.172187,65.038298 L22.852187,64.278298 C22.4121848,64.0249634 21.9221897,63.8049656 21.382187,63.618298 C20.8421843,63.4316304 20.2355237,63.2782986 19.562187,63.158298 C18.8888503,63.0382974 18.1121914,62.978298 17.232187,62.978298 C15.8055132,62.978298 14.5155261,63.2182956 13.362187,63.698298 C12.2088479,64.1783004 11.2255244,64.8649602 10.412187,65.758298 C9.5988496,66.6516358 8.9721892,67.7249584 8.532187,68.978298 C8.0921848,70.2316376 7.872187,71.6316236 7.872187,73.178298 C7.872187,74.8316396 8.1088513,76.3082915 8.582187,77.608298 C9.0555227,78.9083045 9.7221827,80.0082935 10.582187,80.908298 C11.4421913,81.8083025 12.4788476,82.4949623 13.692187,82.968298 C14.9055264,83.4416337 16.2588462,83.678298 17.752187,83.678298 C18.818859,83.678298 19.7721828,83.5649658 20.612187,83.338298 C21.4521912,83.1116302 22.272183,82.8049666 23.072187,82.418298 L23.072187,77.178298 L19.432187,77.178298 C19.0855186,77.178298 18.8155213,77.0816323 18.622187,76.888298 C18.4288527,76.6949637 18.332187,76.4582994 18.332187,76.178298 L18.332187,73.138298 L27.932187,73.138298 Z M48.072187,76.718298 L44.552187,67.098298 C44.3788528,66.6716292 44.1988546,66.1649676 44.012187,65.578298 C43.8255194,64.9916284 43.6388546,64.3583014 43.452187,63.678298 C43.2788528,64.3583014 43.0988546,64.9949617 42.912187,65.588298 C42.7255194,66.1816343 42.5455212,66.6982958 42.372187,67.138298 L38.872187,76.718298 L48.072187,76.718298 Z M57.572187,87.638298 L53.412187,87.638298 C52.945518,87.638298 52.5655218,87.5216325 52.272187,87.288298 C51.9788522,87.0549635 51.7588544,86.7649664 51.612187,86.418298 L49.452187,80.518298 L37.472187,80.518298 L35.312187,86.418298 C35.2055198,86.7249662 34.9988552,87.0049634 34.692187,87.258298 C34.3855188,87.5116326 34.0055226,87.638298 33.552187,87.638298 L29.352187,87.638298 L40.732187,58.718298 L46.212187,58.718298 L57.572187,87.638298 Z M91.932187,58.718298 L91.932187,87.638298 L87.192187,87.638298 L87.192187,68.958298 C87.192187,68.2116276 87.2321866,67.404969 87.312187,66.538298 L78.572187,82.958298 C78.1588516,83.7449686 77.5255246,84.138298 76.672187,84.138298 L75.912187,84.138298 C75.0588494,84.138298 74.4255224,83.7449686 74.012187,82.958298 L65.172187,66.478298 C65.2121872,66.9183002 65.2455202,67.3516292 65.272187,67.778298 C65.2988538,68.2049668 65.312187,68.5982962 65.312187,68.958298 L65.312187,87.638298 L60.572187,87.638298 L60.572187,58.718298 L64.632187,58.718298 C64.8721882,58.718298 65.0788528,58.7249646 65.252187,58.738298 C65.4255212,58.7516314 65.5821863,58.7849644 65.722187,58.838298 C65.8621877,58.8916316 65.9888531,58.9782974 66.102187,59.098298 C66.2155209,59.2182986 66.3255198,59.378297 66.432187,59.578298 L75.092187,75.638298 C75.3188548,76.0649668 75.5288527,76.5049624 75.722187,76.958298 C75.9155213,77.4116336 76.1055194,77.8782956 76.292187,78.358298 C76.4788546,77.8649622 76.672186,77.3883003 76.872187,76.928298 C77.072188,76.4682957 77.2855192,76.0249668 77.512187,75.598298 L86.052187,59.578298 C86.1588542,59.378297 86.2721864,59.2182986 86.392187,59.098298 C86.5121876,58.9782974 86.6421863,58.8916316 86.782187,58.838298 C86.9221877,58.7849644 87.0788528,58.7516314 87.252187,58.738298 C87.4255212,58.7249646 87.6321858,58.718298 87.872187,58.718298 L91.932187,58.718298 Z M103.772187,62.998298 L103.772187,71.018298 L113.892187,71.018298 L113.892187,75.158298 L103.772187,75.158298 L103.772187,83.338298 L116.612187,83.338298 L116.612187,87.638298 L98.372187,87.638298 L98.372187,58.718298 L116.612187,58.718298 L116.612187,62.998298 L103.772187,62.998298 Z M150.952187,80.818298 C151.245522,80.818298 151.505519,80.9316302 151.732187,81.158298 L153.852187,83.458298 C152.678848,84.9116386 151.235529,86.0249608 149.522187,86.798298 C147.808845,87.5716352 145.752199,87.958298 143.352187,87.958298 C141.20551,87.958298 139.275529,87.591635 137.562187,86.858298 C135.848845,86.124961 134.385526,85.1049712 133.172187,83.798298 C131.958848,82.4916248 131.028857,80.9316404 130.382187,79.118298 C129.735517,77.3049556 129.412187,75.3249754 129.412187,73.178298 C129.412187,71.0049538 129.75885,69.0149737 130.452187,67.208298 C131.145524,65.4016223 132.122181,63.8449712 133.382187,62.538298 C134.642193,61.2316248 136.145512,60.2149683 137.892187,59.488298 C139.638862,58.7616277 141.572176,58.398298 143.692187,58.398298 C145.798864,58.398298 147.668846,58.7449612 149.302187,59.438298 C150.935529,60.1316348 152.325515,61.0382924 153.472187,62.158298 L151.672187,64.658298 C151.56552,64.8182988 151.428854,64.9582974 151.262187,65.078298 C151.095519,65.1982986 150.865522,65.258298 150.572187,65.258298 C150.372186,65.258298 150.165521,65.2016319 149.952187,65.088298 C149.738853,64.9749641 149.505522,64.8349655 149.252187,64.668298 C148.998852,64.5016305 148.705522,64.318299 148.372187,64.118298 C148.038852,63.918297 147.652189,63.7349655 147.212187,63.568298 C146.772185,63.4016305 146.26219,63.2616319 145.682187,63.148298 C145.102184,63.0349641 144.432191,62.978298 143.672187,62.978298 C142.378847,62.978298 141.195526,63.2082957 140.122187,63.668298 C139.048848,64.1283003 138.125524,64.7949603 137.352187,65.668298 C136.57885,66.5416357 135.978856,67.6082917 135.552187,68.868298 C135.125518,70.1283043 134.912187,71.5649566 134.912187,73.178298 C134.912187,74.8049728 135.142185,76.251625 135.602187,77.518298 C136.062189,78.784971 136.685516,79.851627 137.472187,80.718298 C138.258858,81.584969 139.185515,82.2482957 140.252187,82.708298 C141.318859,83.1683003 142.465514,83.398298 143.692187,83.398298 C144.425524,83.398298 145.088851,83.3582984 145.682187,83.278298 C146.275523,83.1982976 146.822184,83.0716322 147.322187,82.898298 C147.822189,82.7249638 148.295518,82.5016327 148.742187,82.228298 C149.188856,81.9549633 149.632185,81.6183 150.072187,81.218298 C150.205521,81.0982974 150.34552,81.0016317 150.492187,80.928298 C150.638854,80.8549643 150.792186,80.818298 150.952187,80.818298 Z M181.932187,58.718298 L181.932187,87.638298 L176.532187,87.638298 L176.532187,74.998298 L162.952187,74.998298 L162.952187,87.638298 L157.552187,87.638298 L157.552187,58.718298 L162.952187,58.718298 L162.952187,71.158298 L176.532187,71.158298 L176.532187,58.718298 L181.932187,58.718298 Z M203.652187,76.718298 L200.132187,67.098298 C199.958853,66.6716292 199.778855,66.1649676 199.592187,65.578298 C199.405519,64.9916284 199.218855,64.3583014 199.032187,63.678298 C198.858853,64.3583014 198.678855,64.9949617 198.492187,65.588298 C198.305519,66.1816343 198.125521,66.6982958 197.952187,67.138298 L194.452187,76.718298 L203.652187,76.718298 Z M213.152187,87.638298 L208.992187,87.638298 C208.525518,87.638298 208.145522,87.5216325 207.852187,87.288298 C207.558852,87.0549635 207.338854,86.7649664 207.192187,86.418298 L205.032187,80.518298 L193.052187,80.518298 L190.892187,86.418298 C190.78552,86.7249662 190.578855,87.0049634 190.272187,87.258298 C189.965519,87.5116326 189.585523,87.638298 189.132187,87.638298 L184.932187,87.638298 L196.312187,58.718298 L201.792187,58.718298 L213.152187,87.638298 Z M240.532187,58.718298 L240.532187,87.638298 L237.772187,87.638298 C237.345518,87.638298 236.988855,87.5682987 236.702187,87.428298 C236.415519,87.2882973 236.138855,87.051633 235.872187,86.718298 L220.772187,67.438298 C220.852187,68.3183024 220.892187,69.1316276 220.892187,69.878298 L220.892187,87.638298 L216.152187,87.638298 L216.152187,58.718298 L218.972187,58.718298 C219.198855,58.718298 219.395519,58.7282979 219.562187,58.748298 C219.728855,58.7682981 219.87552,58.8082977 220.002187,58.868298 C220.128854,58.9282983 220.252186,59.0149641 220.372187,59.128298 C220.492188,59.2416319 220.62552,59.3916304 220.772187,59.578298 L235.932187,78.938298 C235.892187,78.471629 235.858854,78.0116336 235.832187,77.558298 C235.80552,77.1049624 235.792187,76.6849666 235.792187,76.298298 L235.792187,58.718298 L240.532187,58.718298 Z M270.812187,73.138298 L270.812187,84.838298 C269.345513,85.9183034 267.782195,86.7082955 266.122187,87.208298 C264.462179,87.7083005 262.68553,87.958298 260.792187,87.958298 C258.432175,87.958298 256.29553,87.591635 254.382187,86.858298 C252.468844,86.124961 250.835527,85.1049712 249.482187,83.798298 C248.128847,82.4916248 247.085524,80.9316404 246.352187,79.118298 C245.61885,77.3049556 245.252187,75.3249754 245.252187,73.178298 C245.252187,71.0049538 245.605517,69.0116404 246.312187,67.198298 C247.018857,65.3849556 248.02218,63.8249712 249.322187,62.518298 C250.622193,61.2116248 252.198844,60.1983016 254.052187,59.478298 C255.90553,58.7582944 257.985509,58.398298 260.292187,58.398298 C261.465526,58.398298 262.562182,58.4916304 263.582187,58.678298 C264.602192,58.8649656 265.548849,59.1216297 266.422187,59.448298 C267.295525,59.7749663 268.092183,60.171629 268.812187,60.638298 C269.532191,61.104967 270.192184,61.6182952 270.792187,62.178298 L269.252187,64.618298 C269.012186,65.0049666 268.698856,65.2416309 268.312187,65.328298 C267.925518,65.4149651 267.505523,65.3182994 267.052187,65.038298 L265.732187,64.278298 C265.292185,64.0249634 264.80219,63.8049656 264.262187,63.618298 C263.722184,63.4316304 263.115524,63.2782986 262.442187,63.158298 C261.76885,63.0382974 260.992191,62.978298 260.112187,62.978298 C258.685513,62.978298 257.395526,63.2182956 256.242187,63.698298 C255.088848,64.1783004 254.105524,64.8649602 253.292187,65.758298 C252.47885,66.6516358 251.852189,67.7249584 251.412187,68.978298 C250.972185,70.2316376 250.752187,71.6316236 250.752187,73.178298 C250.752187,74.8316396 250.988851,76.3082915 251.462187,77.608298 C251.935523,78.9083045 252.602183,80.0082935 253.462187,80.908298 C254.322191,81.8083025 255.358848,82.4949623 256.572187,82.968298 C257.785526,83.4416337 259.138846,83.678298 260.632187,83.678298 C261.698859,83.678298 262.652183,83.5649658 263.492187,83.338298 C264.332191,83.1116302 265.152183,82.8049666 265.952187,82.418298 L265.952187,77.178298 L262.312187,77.178298 C261.965519,77.178298 261.695521,77.0816323 261.502187,76.888298 C261.308853,76.6949637 261.212187,76.4582994 261.212187,76.178298 L261.212187,73.138298 L270.812187,73.138298 Z M281.412187,62.998298 L281.412187,71.018298 L291.532187,71.018298 L291.532187,75.158298 L281.412187,75.158298 L281.412187,83.338298 L294.252187,83.338298 L294.252187,87.638298 L276.012187,87.638298 L276.012187,58.718298 L294.252187,58.718298 L294.252187,62.998298 L281.412187,62.998298 Z M307.752187,72.478298 C308.765525,72.478298 309.64885,72.3516326 310.402187,72.098298 C311.155524,71.8449634 311.775518,71.4949669 312.262187,71.048298 C312.748856,70.6016291 313.112186,70.0716344 313.352187,69.458298 C313.592188,68.8449616 313.712187,68.171635 313.712187,67.438298 C313.712187,65.971624 313.228859,64.8449686 312.262187,64.058298 C311.295516,63.2716274 309.818864,62.878298 307.832187,62.878298 L304.392187,62.878298 L304.392187,72.478298 L307.752187,72.478298 Z M321.592187,87.638298 L316.732187,87.638298 C315.812182,87.638298 315.145522,87.2783016 314.732187,86.558298 L308.652187,77.298298 C308.425519,76.9516296 308.175522,76.7049654 307.902187,76.558298 C307.628852,76.4116306 307.225523,76.338298 306.692187,76.338298 L304.392187,76.338298 L304.392187,87.638298 L299.012187,87.638298 L299.012187,58.718298 L307.832187,58.718298 C309.792197,58.718298 311.475513,58.9216293 312.882187,59.328298 C314.288861,59.7349667 315.442183,60.304961 316.342187,61.038298 C317.242191,61.771635 317.905518,62.6482929 318.332187,63.668298 C318.758856,64.6883031 318.972187,65.8116252 318.972187,67.038298 C318.972187,68.0116362 318.828855,68.931627 318.542187,69.798298 C318.255519,70.664969 317.84219,71.4516278 317.302187,72.158298 C316.762184,72.8649682 316.095524,73.484962 315.302187,74.018298 C314.50885,74.551634 313.605525,74.9716298 312.592187,75.278298 C312.938855,75.478299 313.258852,75.7149633 313.552187,75.988298 C313.845522,76.2616327 314.112186,76.5849628 314.352187,76.958298 L321.592187,87.638298 Z" id="GAME-CHANGER"></path>
                            <path d="M136.772187,107.338298 L136.772187,135.638298 L134.712187,135.638298 L134.712187,122.078298 L116.992187,122.078298 L116.992187,135.638298 L114.932187,135.638298 L114.932187,107.338298 L116.992187,107.338298 L116.992187,120.538298 L134.712187,120.538298 L134.712187,107.338298 L136.772187,107.338298 Z M162.132187,133.938298 L162.092187,135.638298 L145.132187,135.638298 L145.132187,107.338298 L162.092187,107.338298 L162.092187,109.038298 L147.192187,109.038298 L147.192187,120.478298 L159.592187,120.478298 L159.592187,122.138298 L147.192187,122.138298 L147.192187,133.938298 L162.132187,133.938298 Z M175.292187,121.318298 C176.545527,121.318298 177.668849,121.168299 178.662187,120.868298 C179.655525,120.568296 180.495517,120.138301 181.182187,119.578298 C181.868857,119.018295 182.392185,118.344969 182.752187,117.558298 C183.112189,116.771627 183.292187,115.88497 183.292187,114.898298 C183.292187,112.884955 182.635527,111.391636 181.322187,110.418298 C180.008847,109.44496 178.0922,108.958298 175.572187,108.958298 L170.392187,108.958298 L170.392187,121.318298 L175.292187,121.318298 Z M187.852187,135.638298 L186.092187,135.638298 C185.865519,135.638298 185.675521,135.601632 185.522187,135.528298 C185.368853,135.454964 185.225521,135.318299 185.092187,135.118298 L176.012187,123.638298 C175.90552,123.491631 175.795521,123.364965 175.682187,123.258298 C175.568853,123.151631 175.442188,123.068298 175.302187,123.008298 C175.162186,122.948298 174.995521,122.904965 174.802187,122.878298 C174.608853,122.851631 174.372188,122.838298 174.092187,122.838298 L170.392187,122.838298 L170.392187,135.638298 L168.332187,135.638298 L168.332187,107.338298 L175.572187,107.338298 C178.825537,107.338298 181.262179,107.968292 182.882187,109.228298 C184.502195,110.488304 185.312187,112.338286 185.312187,114.778298 C185.312187,115.858303 185.125522,116.84496 184.752187,117.738298 C184.378852,118.631636 183.84219,119.414961 183.142187,120.088298 C182.442183,120.761635 181.595525,121.311629 180.602187,121.738298 C179.608849,122.164967 178.492193,122.451631 177.252187,122.598298 C177.572189,122.798299 177.858852,123.064963 178.112187,123.398298 L187.852187,135.638298 Z M209.612187,133.938298 L209.572187,135.638298 L192.612187,135.638298 L192.612187,107.338298 L209.572187,107.338298 L209.572187,109.038298 L194.672187,109.038298 L194.672187,120.478298 L207.072187,120.478298 L207.072187,122.138298 L194.672187,122.138298 L194.672187,133.938298 L209.612187,133.938298 Z" id="HERE"></path>
                        </g>
            </g>
        </g>
    </g>
</svg>
