<?xml version="1.0" encoding="UTF-8" standalone="no"?>
<svg width="1407px" height="261px" viewBox="0 0 1407 261" version="1.1" xmlns="http://www.w3.org/2000/svg" xmlns:xlink="http://www.w3.org/1999/xlink">
    <!-- Generator: Sketch 43.1 (39012) - http://www.bohemiancoding.com/sketch -->
    <title>Group</title>
    <desc>Created with Sketch.</desc>
    <defs></defs>
    <g id="Page-8" stroke="none" stroke-width="1" fill="none" fill-rule="evenodd">
        <g id="Group" fill-rule="nonzero" fill="#004466">
            <g id="Group-11">
                <polygon id="Shape" points="1247.3 223 1232 240.7 1247.3 242.7"></polygon>
                <path d="M1338,213 L1338,219 C1341.8,219.3 1369.3,221.4 1378.4,228.9 L1378.4,227.5 C1378.4,227.5 1378.5,227.4 1378.6,227.3 C1378.7,226.2 1378.3,225.1 1377.5,224.1 C1371.3,216.1 1342,213.3 1338,213 Z" id="Shape"></path>
                <polygon id="Shape" points="1247.3 195.9 1232 193 1247.3 218.6"></polygon>
                <polygon id="Shape" points="1230.1 195 1215 220.5 1230.1 217"></polygon>
                <polygon id="Shape" points="1017.9 171.5 977 163 977 207.6 1017.9 206.8"></polygon>
                <polygon id="Shape" points="1215 242.7 1230.2 240.7 1215 223"></polygon>
                <polygon id="Shape" points="1232 195 1232 217 1247.2 220.5"></polygon>
                <path d="M1338,212.6 C1342,212.9 1371.6,215.6 1378.1,224 C1378.6,224.6 1378.9,225.2 1379.1,225.8 C1379.1,225.5 1379.2,225.2 1379.2,224.8 C1379.2,221.9 1376.2,219.6 1372,217.6 C1357.6,213.1 1341,210.5 1338,210 L1338,212.6 L1338,212.6 Z" id="Shape"></path>
                <polygon id="Shape" points="1232 218 1232 239.4 1247.3 221.5"></polygon>
                <path d="M1123.5,219 L1123.5,213 C1119.5,213.3 1090.2,216.1 1084.1,224.1 C1083.3,225.1 1083,226.2 1083,227.3 C1083.1,227.4 1083.2,227.5 1083.2,227.5 L1083.2,228.9 C1092.3,221.3 1119.7,219.2 1123.5,219 Z" id="Shape"></path>
                <polygon id="Shape" points="1179 242.3 1191.7 240.3 1179 223"></polygon>
                <polygon id="Shape" points="1179 219 1191.5 194 1179 199.8"></polygon>
                <polygon id="Shape" points="1247.1 179 1232 192.3 1247.1 195.3"></polygon>
                <polygon id="Shape" points="1192.6 195 1180 220.3 1192.6 216.6"></polygon>
                <polygon id="Shape" points="1179 179 1179 197.8 1191.8 191.9"></polygon>
                <path d="M1381.8,258.2 L1382.2,256.3 L1382.2,239.8 L1380.5,232 L1380.5,231.1 L1380.2,231.1 L1379.7,231.3 L1379.3,231.1 C1379.3,230.9 1379.3,230.8 1379.2,230.6 C1372.2,222.4 1342.2,220 1338.2,219.7 L1338.2,225 C1355,226.3 1366.9,228 1373.4,230.2 C1378.9,232 1379.5,233.8 1379.5,235 C1379.5,236.3 1377.7,237.6 1376.2,238.4 L1376.2,258.1 L1375.4,258.1 L1375.4,238.8 C1375,239 1374.7,239.1 1374.6,239.2 L1374.3,239.2 L1372.1,238.4 L1372.1,258.1 L1371.3,258.1 L1371.3,238.1 L1366.9,236.5 L1366.9,258.2 L1366.1,258.2 L1366.1,236.2 L1361.4,234.5 L1361.4,258.2 L1360.6,258.2 L1360.6,234.2 L1354.5,231.9 L1354.5,258.2 L1353.7,258.2 L1353.7,231.6 L1346,228.8 L1346,258.2 L1345.2,258.2 L1345.2,228.5 L1338.1,225.9 L1337.8,225.5 L1337.8,209.4 L1335.7,208.3 L1335.7,258.3 L1334.9,258.3 L1334.9,207.7 L1322.4,200.8 L1322.4,258.1 L1321.6,258.1 L1321.6,200.3 L1305.3,191.7 L1305.3,258.2 L1304.5,258.2 L1304.5,191.3 L1284,180 L1284,243.2 L1283.3,243.8 L1268.9,241.6 L1248.1,243.8 L1248.1,243.7 L1248,243.8 L1231,241.6 L1214,243.8 L1213.9,243.7 L1213.9,243.8 L1193.1,241.6 L1178.7,243.8 L1178,243.2 L1178,180 L1157.5,191.3 L1157.5,258.2 L1156.7,258.2 L1156.7,191.7 L1140.9,200.4 L1140.9,258.2 L1140.1,258.2 L1140.1,200.9 L1127.3,207.7 L1127.3,258.2 L1126.5,258.2 L1126.5,208.2 L1124.4,209.3 L1124.4,225.4 L1124.1,225.8 L1117,228.4 L1117,258.1 L1116.2,258.1 L1116.2,228.7 L1108.5,231.5 L1108.5,258.1 L1107.7,258.1 L1107.7,231.8 L1101.6,234.1 L1101.6,258.1 L1100.8,258.1 L1100.8,234.4 L1096.1,236.1 L1096.1,258.1 L1095.3,258.1 L1095.3,236.4 L1090.9,238 L1090.9,258 L1090.1,258 L1090.1,238.3 L1087.9,239.1 L1087.6,239.1 C1087.5,239.1 1087.2,238.9 1086.8,238.7 L1086.8,258 L1086,258 L1086,238.3 C1084.5,237.5 1082.7,236.2 1082.7,234.9 C1082.7,233.7 1083.3,231.9 1088.8,230.1 C1095.3,227.9 1107.2,226.1 1124,224.9 L1124,219.7 C1120,220 1089.9,222.4 1083,230.6 C1082.9,230.8 1082.9,230.9 1082.9,231.1 L1082.5,231.3 L1082,231.1 L1081.7,231.1 L1081.7,232 L1080,239.8 L1080,256.3 L1080.4,258.2 L1078.7,258.2 L1078.7,217.2 L1080,217.2 L1080,212.7 L1078.7,212.7 L1078.7,172 L1040.8,171.4 L1040.8,206.2 L1054.2,208.1 L1054.2,258.2 L1052.9,258.2 L1052.9,209.2 L1039.1,207.2 L1039.1,258.2 L1037.8,258.2 L1037.8,207.1 L977.9,208.3 L977.9,258.1 L976.6,258.1 L976.6,208.3 L968.2,208.5 L968.2,258.1 L945,258.1 L945,234.8 L967,236.4 L967,230 L966.1,230 L966.1,227.8 L967,227.8 L967,226.8 L966.1,226.8 L966.1,224.6 L967,224.6 L967,219 L966.1,219 L966.1,217 L967,217 L967,216.2 L966.1,216.2 L966.1,214 L967,214 L967,208.6 L936.7,209.2 L936.7,258.2 L936.3,258.2 L936.3,236.9 L883.3,236.9 L883.3,232.9 L880.4,232.9 C880.3,232.9 877.5,233.1 876.1,231.8 C875.5,231.3 875.3,230.6 875.3,229.8 L875.3,226.3 C875.1,225.9 874.3,224.5 872.8,224.5 C871.4,224.5 870.5,226 870.3,226.3 L870.3,229.8 C870.3,230.6 870,231.3 869.5,231.8 C868.1,233.1 865.3,232.9 865.2,232.9 L862.3,232.9 L862.3,236.9 L809.3,236.9 L809.3,258.2 L807.5,258.2 L807.5,200.5 L805.5,199.9 L805.5,189.4 L809.4,188.1 L809.4,236 L815.2,236 L815.2,111.9 L809.4,111.9 L809.4,137 L809.4,186.7 L755,166.3 L747.5,171 L747.5,173.1 L750.1,174.1 L750.1,181.8 L746.9,180.8 L746.9,178.4 L746.2,178.1 L746.2,258.3 L744.6,258.3 L744.6,178.4 L691.2,201.1 L691.2,258.3 L681.6,258.3 L681.6,247.7 L689.6,247.1 L689.6,200 L690.1,199.8 L740.2,178.5 L740.2,5.5 L734.9,7.1 C734.9,7.1 730.8,0 721.5,0 C699.5,0 682.7,31.2 678.7,39.2 L678.7,258.2 L677.1,258.2 L677.1,40.3 L676.8,40 L628.8,127.1 L628.8,128.9 L657.5,76.7 L657.5,218.4 L623.8,230.7 L623.8,245.4 L614.8,245.4 L614.8,225.5 C610.9,224 601.7,221.5 585.5,221.5 C564.1,221.5 549.5,228.9 547.5,229.9 L547.5,234.3 C586.2,226.7 607.8,230.1 608,230.1 L608.4,230.2 L608.4,246 L610.4,246 L620.7,254.3 L620.7,258.3 L619.8,258.3 L619.8,254.7 L610.1,246.9 L608.4,246.9 L608.4,251.5 L616.4,257.1 L616.4,258.2 L615.5,258.2 L615.5,257.6 L608.4,252.6 L608.4,252.7 L603.7,252.8 L603.7,258.2 L552.6,258.2 L552.6,253.6 L547.5,253.7 L547.5,258.2 L546.6,258.2 L546.6,235.2 L524.5,235.2 L524.5,177.7 L525.1,177.9 C525.2,177.9 538.5,182 547.5,182 C554.1,182 560.3,181.8 567.3,179.5 L533.5,177.2 L533.5,173.6 L532.5,173.6 L532.5,177.1 L519.9,176.5 L519.9,258.3 L519,258.3 L519,176.4 L519,154.9 L515.1,154.9 L515.1,153.7 L502.5,152.6 L503.7,155.8 L503.7,159 L515.5,160 L515.5,258.2 L514.6,258.2 L514.6,160.9 L503.7,159.9 L503.7,162.1 L509.9,162.4 L509.9,258.2 L509,258.2 L509,163.3 L503.7,163 L503.7,163.6 L506,169.5 L506,258.3 L505.1,258.3 L505.1,172 L503.6,172 L502.2,165.2 L502.2,258.3 L501.3,258.3 L501.3,163 L499.3,162.9 L499.3,188.7 L470.7,188.7 L470.7,196.6 L472.4,196.6 L470,202.9 L470,258.3 L468.6,258.3 L468.6,202.7 L470.4,198 L463.8,198 L465.6,202.7 L465.6,258.3 L464.2,258.3 L464.2,202.9 L462.1,197.3 L440.3,197.3 L438.2,202.9 L438.2,258.3 L436.8,258.3 L436.8,202.7 L438.6,198 L432,198 L433.8,202.7 L433.8,258.3 L432.4,258.3 L432.4,202.9 L430.3,197.3 L413.4,197.3 L411.3,202.9 L411.3,258.3 L409.9,258.3 L409.9,202.7 L411.7,198 L405.1,198 L406.9,202.7 L406.9,258.3 L405.5,258.3 L405.5,202.9 L403.4,197.3 L381.7,197.3 L379.6,202.9 L379.6,258.3 L378.3,258.3 L378.3,202.7 L380.1,198 L373.5,198 L375.3,202.7 L375.3,258.3 L373.9,258.3 L373.9,202.9 L371.5,196.6 L373.2,196.6 L373.2,188.7 L343.6,188.7 L343.6,189.5 L350.3,193.9 L350.3,213.6 L335,214.8 L335,205.3 L329.6,191.3 L329.6,238.2 L350.3,237.2 L350.3,238.5 L245.2,243.6 L245.2,258.4 L243.9,258.4 L243.9,238.1 L237.9,236.9 L237.9,236.9 L199.6,225.6 L189.7,227.4 L189.7,258.5 L188.4,258.5 L188.4,227.4 L160.3,220.2 L173,258.5 L171.3,258.5 L165,239.5 L112.3,237.1 L100.1,239.1 L100.1,239.5 L110.6,240.7 L105.1,243.4 L105.1,258.6 L0,258.6 L0,260.5 L105.1,260.5 L112.3,260.5 L149.8,260.5 L172,260.5 L173.4,260.5 L188.2,260.5 L189.5,260.5 L243.7,260.5 L245,260.5 L349,260.5 L350.3,260.5 L373.6,260.5 L375,260.5 L378.1,260.5 L379.5,260.5 L405.3,260.5 L406.7,260.5 L409.8,260.5 L411.2,260.5 L432.2,260.5 L433.6,260.5 L436.7,260.5 L438.1,260.5 L463.9,260.5 L465.3,260.5 L468.4,260.5 L469.8,260.5 L494.4,260.5 L499.1,260.5 L501.1,260.5 L502,260.5 L504.9,260.5 L505.8,260.5 L508.8,260.5 L509.7,260.5 L514.4,260.5 L515.3,260.5 L518.8,260.5 L519.7,260.5 L546.5,260.5 L547.4,260.5 L552.5,260.5 L603.6,260.5 L615.4,260.5 L616.3,260.5 L619.6,260.5 L620.5,260.5 L623.7,260.5 L624.2,260.5 L625.7,260.5 L630.3,260.5 L631,260.5 L635.9,260.5 L636.9,260.5 L642.9,260.5 L644,260.5 L651,260.5 L652.5,260.5 L661.3,260.5 L663,260.5 L673.4,260.5 L676.4,260.5 L678,260.5 L680.8,260.5 L690.4,260.5 L692.4,260.5 L710.1,260.5 L714.2,260.5 L738.4,260.5 L743.8,260.5 L745.4,260.5 L746.2,260.5 L752.9,260.5 L756.7,260.5 L764.5,260.5 L768.4,260.5 L772.5,260.5 L781.3,260.5 L795.9,260.5 L799.1,260.5 L804.3,260.5 L806.7,260.5 L808.5,260.5 L812.3,260.5 L857.7,260.5 L866.2,260.5 L878,260.5 L886.5,260.5 L931.9,260.5 L935.7,260.5 L936.1,260.5 L944.4,260.5 L967.6,260.5 L976,260.5 L977.3,260.5 L981.4,260.5 L1031.1,260.5 L1037.3,260.5 L1038.6,260.5 L1040.7,260.5 L1050.5,260.5 L1052.3,260.5 L1053.6,260.5 L1054.7,260.5 L1076.8,260.5 L1078.2,260.5 L1080.3,260.5 L1085.5,260.5 L1086.3,260.5 L1089.7,260.5 L1090.5,260.5 L1094.9,260.5 L1095.7,260.5 L1100.4,260.5 L1101.2,260.5 L1107.3,260.5 L1108.1,260.5 L1115.8,260.5 L1116.6,260.5 L1126.1,260.5 L1126.9,260.5 L1139.4,260.5 L1140.2,260.5 L1156,260.5 L1156.8,260.5 L1180.8,260.5 L1211.7,260.5 L1215.1,260.5 L1245.8,260.5 L1249.2,260.5 L1280.1,260.5 L1304.1,260.5 L1304.9,260.5 L1320.7,260.5 L1321.5,260.5 L1334,260.5 L1334.8,260.5 L1344.3,260.5 L1345.1,260.5 L1352.8,260.5 L1353.6,260.5 L1359.7,260.5 L1360.5,260.5 L1365.2,260.5 L1366,260.5 L1370.4,260.5 L1371.2,260.5 L1374.6,260.5 L1375.4,260.5 L1380.6,260.5 L1406.6,260.5 L1406.6,258.6 L1381.8,258.6 L1381.8,258.2 Z M149.8,258.2 L112.3,258.2 L112.3,241.3 L149.8,240.5 L149.8,258.2 Z M370.5,245.7 L363.8,245.7 L363.8,232 C363.8,232 364.1,228.8 367.2,228.8 C370.3,228.8 370.6,232 370.6,232 L370.6,245.7 L370.5,245.7 Z M370.5,219.2 L363.8,219.2 L363.8,209.3 C363.8,209.3 364.1,206.4 367.2,206.4 C370.2,206.4 370.6,209.3 370.6,209.3 L370.6,219.2 L370.5,219.2 Z M395.7,206.1 C398.7,206.1 401.1,208.5 401.1,211.5 C401.1,214.5 398.7,216.9 395.7,216.9 C392.7,216.9 390.3,214.5 390.3,211.5 C390.2,208.5 392.7,206.1 395.7,206.1 Z M401.8,256.4 L395.7,256.4 L389.6,256.4 L389.6,233.8 C389.6,233.8 389.9,228.2 395.7,228.2 C401.5,228.2 401.8,233.8 401.8,233.8 L401.8,256.4 Z M421.9,206.1 C424.9,206.1 427.3,208.5 427.3,211.5 C427.3,214.5 424.9,216.9 421.9,216.9 C418.9,216.9 416.5,214.5 416.5,211.5 C416.4,208.5 418.9,206.1 421.9,206.1 Z M428,256.4 L421.9,256.4 L415.8,256.4 L415.8,233.8 C415.8,233.8 416.1,228.2 421.9,228.2 C427.7,228.2 428,233.8 428,233.8 L428,256.4 Z M448.1,206.1 C451.1,206.1 453.5,208.5 453.5,211.5 C453.5,214.5 451.1,216.9 448.1,216.9 C445.1,216.9 442.7,214.5 442.7,211.5 C442.6,208.5 445.1,206.1 448.1,206.1 Z M454.2,256.4 L448.1,256.4 L442,256.4 L442,233.8 C442,233.8 442.3,228.2 448.1,228.2 C453.9,228.2 454.2,233.8 454.2,233.8 L454.2,256.4 Z M479.9,245.7 L473.2,245.7 L473.2,232 C473.2,232 473.5,228.8 476.6,228.8 C479.7,228.8 480,232 480,232 L480,245.7 L479.9,245.7 Z M479.9,219.2 L473.2,219.2 L473.2,209.3 C473.2,209.3 473.5,206.4 476.6,206.4 C479.6,206.4 480,209.3 480,209.3 L480,219.2 L479.9,219.2 Z M499.3,258.2 L494.6,258.2 L494.6,257.3 L493.6,256.1 L493.6,193.7 L499.3,190 L499.3,258.2 Z M630.4,258.2 L625.8,258.2 L625.8,250.8 L630.4,250.5 L630.4,258.2 Z M636,258.2 L631.1,258.2 L631.1,250.5 L636,250.2 L636,258.2 Z M642.9,258.2 L636.9,258.2 L636.9,250.2 L642.9,249.9 L642.9,258.2 Z M651,258.2 L644,258.2 L644,249.8 L651,249.4 L651,258.2 Z M661.3,258.2 L652.5,258.2 L652.5,247.9 L661.3,247.2 L661.3,258.2 Z M673.5,258.2 L663.1,258.2 L663.1,247 L673.5,246.1 L673.5,258.2 Z M710.2,258.2 L692.5,258.2 L692.5,247 L710.2,245.9 L710.2,258.2 Z M738.5,258.2 L714.3,258.2 L714.3,245.7 L738.5,244.3 L738.5,258.2 Z M753,258.2 L746.3,258.2 L746.3,249.3 L753,249.5 L753,258.2 Z M787.6,187 L791.6,188.3 L791.6,193.9 L787.6,192.7 L787.6,187 Z M755.3,182.8 L755.3,176.3 L761.5,178.3 L761.5,184.6 L755.3,182.8 Z M764.6,258.2 L756.8,258.2 L756.8,249.6 L764.6,249.8 L764.6,258.2 Z M772.6,258.2 L768.5,258.2 L768.5,250 L772.6,250.1 L772.6,258.2 Z M773.4,188.4 L766.2,186.2 L766.2,180 L773.4,182.4 L773.4,188.4 Z M778.1,189.8 L778.1,183.9 L782.9,185.5 L782.9,191.3 L778.1,189.8 Z M796.1,258.2 L781.5,258.2 L781.5,243.2 L796.1,244 L796.1,258.2 Z M796.4,195.4 L796.4,189.9 L800.3,191.2 L800.3,196.6 L796.4,195.4 Z M804.5,258.2 L799.3,258.2 L799.3,251.6 L804.5,251.9 L804.5,258.2 Z M857.9,258.2 L812.5,258.2 L812.5,249.5 L857.9,249.5 L857.9,258.2 Z M857.9,247.6 L812.5,247.6 L812.5,242.9 L857.9,242.9 L857.9,247.6 Z M878.1,245.3 L878.1,258.2 L866.3,258.2 L866.3,245.3 C866.3,245.3 865.8,239.5 872.2,239.5 C878.6,239.5 878.1,245.3 878.1,245.3 Z M932,258.2 L886.6,258.2 L886.6,249.5 L932,249.5 L932,258.2 Z M932,247.6 L886.6,247.6 L886.6,242.9 L932,242.9 L932,247.6 Z M954.9,229.5 L953.2,229.4 L953.2,227.3 L954.9,227.4 L954.9,229.5 Z M954.9,226.4 L953.2,226.3 L953.2,224.2 L954.9,224.3 L954.9,226.4 Z M954.9,218.9 L953.2,218.9 L953.2,216.9 L954.9,216.9 L954.9,218.9 Z M960,229.7 L958.4,229.6 L958.4,227.5 L960,227.6 L960,229.7 Z M960,226.6 L958.4,226.5 L958.4,224.4 L960,224.4 L960,226.6 Z M960,219 L958.4,219 L958.4,217 L960,217 L960,219 Z M962.5,214 L964.3,214 L964.3,216.2 L962.5,216.2 L962.5,214 Z M962.5,217 L964.3,217 L964.3,219 L962.5,219 L962.5,217 Z M962.5,224.5 L964.3,224.6 L964.3,226.8 L962.5,226.7 L962.5,224.5 Z M962.5,227.7 L964.3,227.8 L964.3,230 L962.5,229.9 L962.5,227.7 Z M956.2,214.1 L960,214.1 L960,216.3 L958.4,216.3 L958.1,216.3 L956.2,216.3 L956.2,214.1 Z M956.2,217 L957.8,217 L957.8,219 L956.2,219 L956.2,217 Z M956.2,224.3 L957.8,224.3 L957.8,226.4 L956.2,226.3 L956.2,224.3 Z M956.2,227.4 L957.8,227.5 L957.8,229.6 L956.2,229.5 L956.2,227.4 Z M954.9,214.1 L954.9,216.2 L953.2,216.2 L953.2,214.1 L954.9,214.1 Z M950.7,229.3 L949.2,229.2 L949.2,227.2 L950.7,227.3 L950.7,229.3 Z M950.7,226.2 L949.2,226.1 L949.2,224 L950.7,224 L950.7,226.2 Z M950.7,218.9 L949.2,218.9 L949.2,217 L950.7,217 L950.7,218.9 Z M947.2,214.2 L950.6,214.2 L950.6,216.2 L949.1,216.2 L948.7,216.2 L947.1,216.2 L947.2,214.2 Z M947.2,216.9 L948.5,216.9 L948.5,218.8 L947.2,218.8 L947.2,216.9 Z M947.2,224.1 L948.6,224.1 L948.6,226.2 L947.2,226.2 L947.2,224.1 Z M947.2,227.1 L948.6,227.2 L948.6,229.2 L947.2,229.1 L947.2,227.1 Z M942.2,225.9 L940.8,225.9 L940.8,223.9 L942.2,224 L942.2,225.9 Z M942.1,218.8 L940.8,218.8 L940.8,216.9 L942.1,216.9 L942.1,218.8 Z M940.2,228.7 L938.8,228.6 L938.8,226.7 L940.2,226.8 L940.2,228.7 Z M940.2,225.9 L938.8,225.8 L938.8,223.8 L940.2,223.8 L940.2,225.9 Z M940.2,218.8 L938.8,218.8 L938.8,216.9 L940.2,216.9 L940.2,218.8 Z M938.7,216.2 L938.7,214.3 L942.1,214.3 L942.1,216.2 L940.8,216.2 L940.4,216.2 L938.7,216.2 Z M940.8,228.8 L940.8,226.8 L942.2,226.9 L942.2,228.9 L940.8,228.8 Z M944.2,214.2 L945.9,214.2 L945.9,216.2 L944.2,216.2 L944.2,214.2 Z M944.2,216.9 L945.9,216.9 L945.9,218.8 L944.2,218.8 L944.2,216.9 Z M944.2,224 L945.9,224 L945.9,226.1 L944.2,226 L944.2,224 Z M944.3,228.9 L944.3,226.9 L945.9,227 L945.9,229 L944.3,228.9 Z M980,230.7 L978.1,230.6 L978.1,228.3 L980,228.4 L980,230.7 Z M980,227.3 L978.1,227.2 L978.1,225 L980,225.1 L980,227.3 Z M980,219.1 L978.1,219.1 L978.1,217.1 L980,217.1 L980,219.1 Z M980,216.3 L978.1,216.3 L978.1,213.9 L980,213.9 L980,216.3 Z M1028.2,213.4 L1030.5,213.4 L1030.5,216.5 L1028.2,216.5 L1028.2,213.4 Z M1028.2,217.5 L1030.5,217.5 L1030.5,219.6 L1028.2,219.6 L1028.2,217.5 Z M1028.2,226.4 L1030.5,226.5 L1030.5,229 L1028.2,228.9 L1028.2,226.4 Z M1028.2,230.3 L1030.5,230.4 L1030.5,233.2 L1028.2,233.1 L1028.2,230.3 Z M1020.1,213.4 L1025.6,213.3 L1025.6,216.4 L1020.1,216.4 L1020.1,213.4 Z M1023.4,228.8 L1023.4,226.3 L1025.7,226.4 L1025.7,228.9 L1023.4,228.8 Z M1025.6,230.2 L1025.6,232.9 L1023.3,232.8 L1023.3,230.1 L1025.6,230.2 Z M1023.4,219.5 L1023.4,217.4 L1025.7,217.4 L1025.7,219.5 L1023.4,219.5 Z M1020.1,217.4 L1022.2,217.4 L1022.2,219.5 L1020.1,219.5 L1020.1,217.4 Z M1020.1,226.2 L1022.2,226.3 L1022.2,228.8 L1020.1,228.7 L1020.1,226.2 Z M1020.1,229.9 L1022.2,230 L1022.2,232.7 L1020.1,232.6 L1020.1,229.9 Z M1013.9,213.5 L1016.1,213.5 L1016.1,216.4 L1013.9,216.4 L1013.9,213.5 Z M1013.9,217.4 L1016.1,217.4 L1016.1,219.5 L1013.9,219.5 L1013.9,217.4 Z M1013.9,226 L1016.1,226.1 L1016.1,228.5 L1013.9,228.4 L1013.9,226 Z M1013.9,229.7 L1016.1,229.8 L1016.1,232.5 L1013.9,232.4 L1013.9,229.7 Z M1006.4,213.6 L1011.7,213.5 L1011.7,216.4 L1009.6,216.4 L1009.1,216.4 L1006.4,216.4 L1006.4,213.6 Z M1009.7,228.3 L1009.7,225.9 L1011.8,226 L1011.8,228.4 L1009.7,228.3 Z M1011.8,229.6 L1011.8,232.2 L1009.7,232.1 L1009.7,229.5 L1011.8,229.6 Z M1009.7,219.4 L1009.7,217.3 L1011.8,217.3 L1011.8,219.4 L1009.7,219.4 Z M1006.4,217.3 L1008.6,217.3 L1008.6,219.4 L1006.4,219.4 L1006.4,217.3 Z M1006.4,225.8 L1008.6,225.9 L1008.6,228.3 L1006.4,228.2 L1006.4,225.8 Z M1006.4,229.4 L1008.6,229.5 L1008.6,232.1 L1006.4,232 L1006.4,229.4 Z M1001.2,213.6 L1003.2,213.6 L1003.2,216.4 L1001.2,216.4 L1001.2,213.6 Z M1001.2,217.3 L1003.2,217.3 L1003.2,219.3 L1001.2,219.3 L1001.2,217.3 Z M1001.2,225.7 L1003.2,225.8 L1003.2,228.2 L1001.2,228.1 L1001.2,225.7 Z M1001.2,229.2 L1003.2,229.3 L1003.2,231.8 L1001.2,231.7 L1001.2,229.2 Z M994.4,213.7 L999,213.7 L999,216.4 L997.3,216.4 L996.9,216.4 L994.5,216.4 L994.5,213.7 L994.4,213.7 Z M997.2,227.9 L997.2,225.6 L998.9,225.7 L998.9,228.1 L997.2,227.9 Z M998.9,229.1 L998.9,231.6 L997.2,231.5 L997.2,229 L998.9,229.1 Z M997.2,219.3 L997.2,217.3 L998.9,217.3 L998.9,219.3 L997.2,219.3 Z M994.4,217.2 L996.3,217.2 L996.3,219.2 L994.4,219.2 L994.4,217.2 Z M994.4,225.5 L996.4,225.6 L996.4,227.9 L994.4,227.8 L994.4,225.5 Z M994.4,228.9 L996.4,229 L996.4,231.5 L994.4,231.4 L994.4,228.9 Z M989.6,213.8 L991.3,213.8 L991.3,216.4 L989.6,216.4 L989.6,213.8 Z M989.6,217.2 L991.3,217.2 L991.3,219.2 L989.6,219.2 L989.6,217.2 Z M989.6,225.3 L991.3,225.4 L991.3,227.7 L989.6,227.6 L989.6,225.3 Z M989.6,228.7 L991.3,228.8 L991.3,231.2 L989.6,231.1 L989.6,228.7 Z M983.2,213.8 L987.5,213.8 L987.5,216.3 L985.7,216.3 L985.3,216.3 L983.2,216.3 L983.2,213.8 Z M985.6,227.5 L985.6,225.2 L987.4,225.3 L987.4,227.6 L985.6,227.5 Z M987.4,228.7 L987.4,231.1 L985.6,231 L985.6,228.6 L987.4,228.7 Z M985.6,219.2 L985.6,217.2 L987.4,217.2 L987.4,219.2 L985.6,219.2 Z M983.2,217.2 L984.9,217.2 L984.9,219.2 L983.2,219.2 L983.2,217.2 Z M983.2,225.1 L984.9,225.1 L984.9,227.4 L983.2,227.3 L983.2,225.1 Z M983.2,228.5 L984.9,228.6 L984.9,231 L983.2,230.9 L983.2,228.5 Z M1031.2,258.2 L981.5,258.2 L981.5,237.6 L1031.2,241.3 L1031.2,258.2 Z M1048.7,212.9 L1050.2,212.8 L1050.2,214.8 L1048.7,215 L1048.7,212.9 Z M1048.7,215.8 L1050.2,215.6 L1050.2,217.7 L1048.7,218 L1048.7,215.8 Z M1048.7,223.2 L1050.2,222.6 L1050.2,224.3 L1048.7,225 L1048.7,223.2 Z M1048.7,226 L1050.2,225.3 L1050.2,227.7 L1048.7,228.5 L1048.7,226 Z M1047.4,213 L1048,213 L1048,215.1 L1047.4,215.2 L1047.4,213 Z M1047.4,216 L1048,215.9 L1048,218.1 L1047.4,218.2 L1047.4,216 Z M1047.4,223.7 L1048,223.5 L1048,225.4 L1047.4,225.7 L1047.4,223.7 Z M1047.4,226.7 L1048,226.4 L1048,228.9 L1047.4,229.2 L1047.4,226.7 Z M1045.3,213.1 L1046.8,213 L1046.8,215.2 L1045.3,215.4 L1045.3,213.1 Z M1045.3,216.3 L1046.8,216.1 L1046.8,218.4 L1045.3,218.7 L1045.3,216.3 Z M1045.3,224.5 L1046.8,223.9 L1046.8,225.9 L1045.3,226.6 L1045.3,224.5 Z M1045.3,227.8 L1046.8,227.1 L1046.8,229.7 L1045.3,230.5 L1045.3,227.8 Z M1044,213.1 L1044.6,213.1 L1044.6,215.4 L1044,215.5 L1044,213.1 Z M1044,216.5 L1044.6,216.4 L1044.6,218.8 L1044,218.9 L1044,216.5 Z M1044,225.1 L1044.6,224.9 L1044.6,227.1 L1044,227.4 L1044,225.1 Z M1044,228.4 L1044.6,228.1 L1044.6,230.8 L1044,231.1 L1044,228.4 Z M1041.9,213.3 L1043.4,213.2 L1043.4,215.6 L1041.9,215.8 L1041.9,213.3 Z M1041.9,216.8 L1043.4,216.6 L1043.4,219 L1041.9,219.3 L1041.9,216.8 Z M1041.9,225.9 L1043.4,225.3 L1043.4,227.6 L1041.9,228.3 L1041.9,225.9 Z M1041.9,229.5 L1043.4,228.8 L1043.4,231.6 L1041.9,232.4 L1041.9,229.5 Z M1040.5,213.3 L1041.2,213.3 L1041.2,215.9 L1040.5,216 L1040.5,213.3 Z M1040.5,217 L1041.2,216.9 L1041.2,219.4 L1040.5,219.5 L1040.5,217 Z M1040.5,226.4 L1041.2,226.1 L1041.2,228.6 L1040.5,228.9 L1040.5,226.4 Z M1040.5,233.1 L1040.5,230.2 L1041.2,229.8 L1041.2,232.7 L1040.5,233.1 Z M1050.6,258.2 L1040.8,258.2 L1040.8,239.8 L1050.6,232.8 L1050.6,258.2 Z M1051.5,226.9 L1050.9,227.2 L1050.9,224.9 L1051.5,224.6 L1051.5,226.9 Z M1051.5,223.7 L1050.9,224 L1050.9,222.3 L1051.5,222.1 L1051.5,223.7 Z M1051.5,217.4 L1050.9,217.5 L1050.9,215.4 L1051.5,215.3 L1051.5,217.4 Z M1051.5,214.6 L1050.9,214.7 L1050.9,212.8 L1051.5,212.8 L1051.5,214.6 Z M1059.5,177.5 L1075.6,177.5 L1075.6,179.4 L1059.5,179.4 L1059.5,177.5 Z M1044.3,177.5 L1058,177.5 L1058,179.4 L1044.3,179.4 L1044.3,177.5 Z M1044.3,180.2 L1075.6,180.2 L1075.6,181.7 L1073.1,181.7 L1073.1,183.2 L1068.4,183.2 L1068.4,181.7 L1065.8,181.7 L1065.8,183.2 L1063.4,183.2 L1063.4,181.7 L1051.5,181.7 L1051.5,183.2 L1046.8,183.2 L1046.8,181.7 L1044.4,181.7 L1044.4,180.2 L1044.3,180.2 Z M1075.6,186.6 L1075.6,188.2 L1059.5,188.2 L1059.5,186.6 L1075.6,186.6 Z M1044.3,186.6 L1058,186.6 L1058,188.2 L1044.3,188.2 L1044.3,186.6 Z M1044.3,189.2 L1058,189.2 L1059.4,189.2 L1075.5,189.2 L1075.5,190.5 L1068.5,190.5 L1068.5,192 L1063.3,192 L1063.3,190.5 L1056.2,190.5 L1056.2,192 L1053.9,192 L1053.9,190.5 L1049.1,190.5 L1049.1,192 L1046.8,192 L1046.8,190.5 L1044.4,190.5 L1044.4,189.2 L1044.3,189.2 Z M1075.6,195.4 L1075.6,197 L1059.5,197 L1059.5,195.4 L1075.6,195.4 Z M1044.3,195.4 L1058,195.4 L1058,197 L1044.3,197 L1044.3,195.4 Z M1044.3,197.6 L1058,197.6 L1059.4,197.6 L1075.5,197.6 L1075.5,199.3 L1072.8,199.3 L1072.8,200.7 L1070.6,200.7 L1070.6,199.3 L1063.8,199.3 L1063.8,200.7 L1061.4,200.7 L1061.4,199.3 L1058.7,199.3 L1058.7,200.7 L1054.1,200.7 L1054.1,199.3 L1046.7,199.3 L1046.7,200.7 L1044.3,200.7 L1044.3,197.6 L1044.3,197.6 Z M1066,208.3 L1066,209.4 L1064.1,209.4 L1064.1,208.3 L1061.6,208.3 L1061.6,209.4 L1056.4,209.4 L1056.4,208.3 L1054.3,208.3 L1054.3,206.8 L1075.6,206.8 L1075.6,208.3 L1073.2,208.3 L1073.2,209.4 L1070.7,209.4 L1070.7,208.3 L1066,208.3 Z M1075.6,224.6 L1075.6,225.7 L1073.2,225.7 L1073.2,226.7 L1070.7,226.7 L1070.7,225.7 L1066.2,225.7 L1066.2,226.7 L1061.4,226.7 L1061.4,225.7 L1054.3,225.7 L1054.3,224.6 L1075.6,224.6 Z M1059.7,223.3 L1059.7,221.7 L1075.6,221.7 L1075.6,223.3 L1059.7,223.3 Z M1075.6,230.4 L1075.6,231.9 L1059.7,231.9 L1059.7,230.4 L1075.6,230.4 Z M1058.5,230.4 L1058.5,231.9 L1054.3,231.9 L1054.3,230.4 L1058.5,230.4 Z M1058.5,223.3 L1054.3,223.3 L1054.3,221.7 L1058.5,221.7 L1058.5,223.3 Z M1059.8,205.7 L1059.8,204.1 L1075.6,204.1 L1075.6,205.7 L1059.8,205.7 Z M1044.3,205.7 L1044.3,204.1 L1058,204.1 L1058,205.7 L1044.3,205.7 Z M1054.3,234.5 L1054.3,233.3 L1075.6,233.3 L1075.6,234.5 L1066.5,234.5 L1066.5,235.5 L1061.4,235.5 L1061.4,234.5 L1054.3,234.5 Z M1076.9,258.2 L1054.8,258.2 L1054.8,245.1 L1076.9,244 L1076.9,258.2 Z M1075.6,216.8 L1059.5,216.8 L1059.5,213.1 L1075.6,213.1 L1076.1,213.1 L1078.9,213.1 L1078.9,216.8 L1075.6,216.8 Z M1081.1,258.2 L1080.4,258.2 L1080,256.4 L1080,256 L1081.1,255.9 L1081.1,258.2 L1081.1,258.2 Z M1081.1,255.4 L1080,255.5 L1081.1,250.2 L1081.1,255.4 Z M1080,253.2 L1080,248.1 L1081.1,247.8 L1080,253.2 Z M1081.1,247.4 L1080,247.6 L1080,242.2 L1081.1,247 L1081.1,247.4 Z M1081.1,240.9 L1081.1,244.6 L1080,240.3 L1081.1,239.6 L1081.1,240.9 Z M1081.1,239.2 L1080.2,239.6 L1081.1,235.1 L1081.1,239.2 Z M1212.2,258.2 L1181.3,258.2 L1181.3,247.6 L1212.2,247.6 L1212.2,258.2 Z M1246.2,258.2 L1215.5,258.2 L1215.5,247.6 L1230.8,247.6 L1246.1,247.6 L1246.1,258.2 L1246.2,258.2 Z M1280.5,258.2 L1249.6,258.2 L1249.6,247.6 L1280.5,247.6 L1280.5,258.2 Z M1380.7,235.1 L1381.6,239.6 L1380.7,239.2 L1380.7,235.1 Z M1381.8,256.4 L1381.4,258.2 L1380.7,258.2 L1380.7,255.9 L1381.8,256 L1381.8,256.4 L1381.8,256.4 Z M1380.7,255.4 L1380.7,250.2 L1381.8,255.5 L1380.7,255.4 Z M1381.8,253.2 L1380.7,247.9 L1381.8,248.2 L1381.8,253.2 Z M1381.8,247.7 L1380.7,247.5 L1380.7,247.1 L1381.8,242.3 L1381.8,247.7 Z M1380.7,244.6 L1380.7,240.9 L1380.7,239.6 L1381.8,240.3 L1380.7,244.6 Z" id="Shape"></path>
                <path d="M1084.1,223.9 C1090.6,215.4 1120.2,212.8 1124.2,212.5 L1124.2,210 C1121.2,210.5 1104.6,213.1 1090.2,217.6 C1086,219.5 1083,221.9 1083,224.8 C1083,225.2 1083,225.5 1083.1,225.8 C1083.3,225.1 1083.6,224.5 1084.1,223.9 Z" id="Shape"></path>
                <polygon id="Shape" points="975.6 163 966 161 966 208 975.6 207.8"></polygon>
                <polygon id="Shape" points="1039.5 206.5 1039.5 169.4 1019 154 1019 206.7 1038.5 206.3"></polygon>
                <polygon id="Shape" points="1246.9 178 1231.5 178 1216 178 1231.5 191.6"></polygon>
                <polygon id="Shape" points="1194 194 1194 216.3 1212.8 219.9"></polygon>
                <polygon id="Shape" points="1215 218.6 1230.2 193 1215 195.9"></polygon>
                <polygon id="Shape" points="1194 218 1194 239.7 1212.9 221.7"></polygon>
                <polygon id="Shape" points="1212.8 223 1194 241 1212.8 243"></polygon>
                <polygon id="Shape" points="1212.8 196.1 1194 193 1212.8 219"></polygon>
                <polygon id="Shape" points="1282.7 179 1270 191.9 1282.7 197.8"></polygon>
                <polygon id="Shape" points="1282.4 199.8 1270 194 1282.4 219"></polygon>
                <polygon id="Shape" points="1230.3 218 1215 221.5 1230.3 239.4"></polygon>
                <polygon id="Shape" points="935.8 137 935.8 112 930 112 930 236.1 935.8 236.1"></polygon>
                <polygon id="Shape" points="1211.8 178 1180 178.5 1193 191.6"></polygon>
                <polygon id="Shape" points="1215 195.3 1230.1 192.3 1215 179"></polygon>
                <path d="M1378.8,235 C1378.8,232.8 1373.8,228.7 1341,226 L1374.5,238.3 C1376.3,237.6 1378.8,236.1 1378.8,235 Z" id="Shape"></path>
                <polygon id="Shape" points="1249 219 1267.9 193 1249 196.1"></polygon>
                <polygon id="Shape" points="1268 218 1249 221.7 1268 239.7"></polygon>
                <polygon id="Shape" points="1249 195.5 1267.7 192.5 1249 179"></polygon>
                <path d="M1083,235 C1083,236.1 1085.6,237.6 1087.3,238.3 L1120.8,226 C1088,228.7 1083,232.8 1083,235 Z" id="Shape"></path>
                <polygon id="Shape" points="1213.6 179 1195 192.5 1213.6 195.5"></polygon>
                <path d="M1177.7,179 L1177.7,177.7 L1178.3,177.4 L1178.3,177 L1213.6,176.5 L1213.6,176.5 L1213.6,176.5 L1230.7,176.5 L1247.8,176.5 L1247.8,176.5 L1247.8,176.5 L1283.1,177 L1283.1,177.4 L1283.7,177.7 L1283.7,179 L1337.6,208.6 C1338,208.7 1339.6,208.9 1342,209.3 L1283.1,175.5 L1230.5,148 L1177.9,175.5 L1119,209.3 C1121.4,208.9 1123,208.6 1123.4,208.6 L1177.7,179 Z M1230.6,149 L1230.8,149.4 L1231,149 L1279.9,174.8 L1279.7,175.6 L1231,175.6 L1231,174.8 L1278,174.8 L1230.8,149.9 L1183.6,174.8 L1230.6,174.8 L1230.6,175.6 L1181.9,175.6 L1181.7,174.8 L1230.6,149 Z" id="Shape"></path>
                <polygon id="Shape" points="1282.7 223 1270 240.3 1282.7 242.3"></polygon>
                <polygon id="Shape" points="1270 218 1270 239.2 1282.8 221.7"></polygon>
                <polygon id="Shape" points="1270 195 1270 216.6 1282.6 220.3"></polygon>
                <polygon id="Shape" points="1249 243 1267.9 241 1249 223"></polygon>
                <polygon id="Shape" points="1281.8 178.5 1250 178 1268.8 191.6"></polygon>
                <polygon id="Shape" points="1268.8 194 1250 219.9 1268.8 216.3"></polygon>
                <polygon id="Shape" points="1192.7 218 1180 221.7 1192.7 239.2"></polygon>
                <path d="M375,123.385439 L383.6,127.285439 C383.3,114.685439 377.3,108.885439 375.6,107.485439 C372.4,106.685439 369.6,106.985439 367.4,107.585439 C359.6,112.685439 359,122.585439 359,125.285439 L361.3,123.385439 L375,123.385439 Z" id="Shape"></path>
                <path d="M351.3,184 L350.5,185.4 L350.5,187.4 L371.6,187.4 L371.6,187.1 L364.9,183.2 L365,182 L365.3,181.9 L365.3,175.2 C365.3,175.2 365.5,173.1 367.1,173.1 C368.7,173.1 368.9,175.2 368.9,175.2 L368.9,180.2 L371.5,179 L371.5,175.2 C371.5,175.2 371.7,173.1 373.3,173.1 C374.9,173.1 375.1,175.2 375.1,175.2 L375.1,177.2 L383.8,173 L383.8,168.8 L381.6,167 L350,167 L351.4,170.3 L351.4,184 L351.3,184 Z M359,175.1 C359,175.1 359.2,173 360.8,173 C362.4,173 362.6,175.1 362.6,175.1 L362.6,184.3 L359,184.3 L359,175.1 Z" id="Shape"></path>
                <path d="M382.6,165.6 L384.1,166.8 L384.1,140.9 L384.2,140.9 L384.2,139.4 L387.9,135.8 L385.3,130 L374.4,125 L361.4,125 L355.3,130 L355.7,131.8 L358.1,131.8 L358.1,136.6 L358.1,156.7 L354.5,156.7 L353,157.7 L353,165.2 L382.1,165.2 L382.6,165.6 Z M363,157.7 L360.3,158.6 L360.3,140.2 C360.3,140.2 360.6,138.2 361.6,137.6 C362.6,137 363,138.1 363,138.1 L363,157.7 Z M370.9,157.3 L365.5,157.3 L365.5,137.5 C365.5,137.5 365.6,135.6 368.2,135.6 C370.8,135.6 370.9,137.3 370.9,137.3 L370.9,157.3 Z M378.1,140.6 L378.1,157.9 L374,157.4 L374,138.7 C374,138.7 374,135.9 376.3,136.7 C378.6,137.3 378.1,140.6 378.1,140.6 Z M382.1,138.8 C382.8,139.3 382.8,141.5 382.8,141.5 L382.8,159.1 L381.5,158.5 L381.5,140.5 C381.5,140.5 381.4,138.2 382.1,138.8 Z" id="Shape"></path>
                <polygon id="Shape" points="189.5 226.4 233.4 218.6 188.6 211 160 218.3 160.2 218.9"></polygon>
                <polygon id="Shape" points="282.1 221.8 266.9 223.9 266.8 223.9 239 219.1 239 235.6 245 236.8 245 242 328 238 328 189 309.6 191.1 289.5 197.2"></polygon>
                <path d="M458.3,166 L456.7,168.6 C456.7,168.6 454.5,163.7 450.3,163.4 L449.4,159 L448.5,163.4 C446.6,163.5 445,164.6 444,165.8 L458.4,172.7 L458.4,166 L458.3,166 Z" id="Shape"></path>
                <polygon id="Shape" points="159 151.1 159 216.6 187.1 209.4 188.4 133"></polygon>
                <polygon id="Shape" points="375 187 375 195.7 469.8 195.7 469.8 187 422.4 187"></polygon>
                <path d="M385,166 L385,172.7 L399.4,165.8 C398.3,164.6 396.8,163.5 394.9,163.4 L394,159 L393.1,163.4 C388.8,163.6 386.7,168.6 386.7,168.6 L385,166 Z" id="Shape"></path>
                <path d="M421.7,155.8 L422,155.2 L443.4,165.4 C442.3,163.3 438.2,155.8 430.2,153.4 L430.2,148.5 L422,145.3 L422,142.7 L422,139.9 L423.6,139.9 L423.6,139.3 L422,139.3 L422,137.1 L421.7,137 L421.4,137.1 L421.4,139.3 L419.8,139.3 L419.8,139.9 L421.4,139.9 L421.4,142.7 L421.4,145.3 L413.2,148.5 L413.2,153.4 C405.3,155.8 401.1,163.2 400,165.4 L421.4,155.2 L421.7,155.8 Z" id="Shape"></path>
                <path d="M375.3,106.9 L375.3,102 C375.3,102 375.3,101 372.3,101 C369.3,101 369,102.3 369,102.3 L369,106.9 C370.8,106.5 372.9,106.4 375.3,106.9 Z" id="Shape"></path>
                <polygon id="Shape" points="221 214.6 225.6 215.4 305.6 191.1 305.6 189.7 199 133 200 136.6 200 136.6"></polygon>
                <polygon id="Shape" points="146.3 89 131 105.2 156.1 117.5"></polygon>
                <polygon id="Shape" points="164.6 238 158.1 218.2 157.8 218.3 157.8 217.5 119.3 101 117.3 100 113 235.6"></polygon>
                <polygon id="Shape" points="157.8 150.5 185.3 133.6 121 102 157.8 213.4"></polygon>
                <polygon id="Shape" points="111.5 235.4 115.9 99.1 115.7 99 102.1 117.3 100 237.2"></polygon>
                <polygon id="Shape" points="100.3 139 86 153.5 86 235.5 98.6 233.9"></polygon>
                <path d="M477.2,182.4 L422.1,156 L367,182.4 L372.8,185.8 L422.1,185.8 L471.4,185.8 L477.2,182.4 Z M371.9,183.6 L371.6,182.3 L421.9,158.3 L422.2,158.9 L422.5,158.3 L472.8,182.3 L472.5,183.6 L422.2,183.6 L371.9,183.6 Z" id="Shape"></path>
                <polygon id="Shape" points="190.3 133 189 209.5 219.3 214.7 198.2 136.3"></polygon>
                <polygon id="Shape" points="186.9 133.3 189.6 131.6 197.7 135 196.7 131.6 221.3 133.7 220.2 133.6 220.2 131.1 148 89 158.3 119.1"></polygon>
                <polygon id="Shape" points="238.3 219.2 237.3 219 203 225.1 238.3 235.5"></polygon>
                <polygon id="Shape" points="281.1 220.9 288 198 228 216.2 266.9 222.8"></polygon>
                <polygon id="Shape" points="305.6 188.6 305.6 159.5 280.5 139.6 201 133"></polygon>
                <path d="M493.6,167 L462.2,167 L460,168.8 L460,173 L468.7,177.2 L468.7,175.2 C468.7,175.2 468.9,173.1 470.5,173.1 C472.1,173.1 472.3,175.2 472.3,175.2 L472.3,179 L474.9,180.2 L474.9,175.2 C474.9,175.2 475.1,173.1 476.7,173.1 C478.3,173.1 478.5,175.2 478.5,175.2 L478.5,181.9 L478.8,182 L478.9,183.2 L472.2,187.1 L472.2,187.4 L493.3,187.4 L493.3,185.4 L492.5,184 L492.5,170.2 L493.6,167 Z M484.7,184.4 L481.1,184.4 L481.1,175.2 C481.1,175.2 481.3,173.1 482.9,173.1 C484.5,173.1 484.7,175.2 484.7,175.2 L484.7,184.4 L484.7,184.4 Z" id="Shape"></path>
                <path d="M857.9,91 L857,91 L857,91.9 L856.7,91.9 L856.7,92.8 L852.4,92.8 L852.4,91.2 L850.7,91.2 L850.7,91.8 L850.4,91.8 L850.4,92.7 L846.5,92.7 L846.5,91.7 L846,91.5 L846,236.2 L858,236.2 L858,91 L857.9,91 Z M850.8,235.5 L847.2,235.5 L847.2,228.2 L850.8,228.2 L850.8,235.5 Z M850.8,222.5 L847.2,222.5 L847.2,215.2 L850.8,215.2 L850.8,222.5 Z M850.8,209.4 L847.2,209.4 L847.2,202.1 L850.8,202.1 L850.8,209.4 Z M850.8,196.3 L847.2,196.3 L847.2,189 L850.8,189 L850.8,196.3 Z M850.8,183.3 L847.2,183.3 L847.2,176 L850.8,176 L850.8,183.3 Z M850.8,170.2 L847.2,170.2 L847.2,162.9 L850.8,162.9 L850.8,170.2 Z M850.8,157.1 L847.2,157.1 L847.2,149.9 L850.8,149.9 L850.8,157.1 Z M850.8,144.1 L847.2,144.1 L847.2,136.8 L850.8,136.8 L850.8,144.1 Z M850.8,131 L847.2,131 L847.2,123.7 L850.8,123.7 L850.8,131 Z M850.8,115.8 L847.2,115.8 L847.2,103.3 C847.2,103.3 847.7,102.5 849,102.5 C850.3,102.5 850.8,103.3 850.8,103.3 L850.8,115.8 L850.8,115.8 Z M856.8,235.5 L853.2,235.5 L853.2,228.2 L856.8,228.2 L856.8,235.5 Z M856.8,222.5 L853.2,222.5 L853.2,215.2 L856.8,215.2 L856.8,222.5 Z M856.8,209.4 L853.2,209.4 L853.2,202.1 L856.8,202.1 L856.8,209.4 Z M856.8,196.3 L853.2,196.3 L853.2,189 L856.8,189 L856.8,196.3 Z M856.8,183.3 L853.2,183.3 L853.2,176 L856.8,176 L856.8,183.3 Z M856.8,170.2 L853.2,170.2 L853.2,162.9 L856.8,162.9 L856.8,170.2 Z M856.8,157.1 L853.2,157.1 L853.2,149.9 L856.8,149.9 L856.8,157.1 Z M856.8,144.1 L853.2,144.1 L853.2,136.8 L856.8,136.8 L856.8,144.1 Z M856.8,131 L853.2,131 L853.2,123.7 L856.8,123.7 L856.8,131 Z M856.8,115.8 L853.2,115.8 L853.2,103.3 C853.2,103.3 853.7,102.5 855,102.5 C856.3,102.5 856.8,103.3 856.8,103.3 L856.8,115.8 L856.8,115.8 Z" id="Shape"></path>
                <rect id="Rectangle-path" x="840" y="90" width="5.7" height="146.4"></rect>
                <path d="M838.3,112 L838.3,112 L838.3,112.9 L837.7,112.9 L837.7,113.6 L837.3,113.6 L837.3,114.1 L832.7,114.1 L832.7,112.8 L831.3,112.8 L831.3,114.1 L826.9,114.1 L826,112.8 L826,236.1 L838.3,236.1 L838.3,112 Z M831,235.4 L827.4,235.4 L827.4,228.1 L831,228.1 L831,235.4 Z M831,222.4 L827.4,222.4 L827.4,215.1 L831,215.1 L831,222.4 Z M831,209.3 L827.4,209.3 L827.4,202 L831,202 L831,209.3 Z M831,196.2 L827.4,196.2 L827.4,188.9 L831,188.9 L831,196.2 Z M831,183.2 L827.4,183.2 L827.4,175.9 L831,175.9 L831,183.2 Z M831,170.1 L827.4,170.1 L827.4,162.8 L831,162.8 L831,170.1 Z M831,157 L827.4,157 L827.4,149.8 L831,149.8 L831,157 Z M831,144 L827.4,144 L827.4,136.7 L831,136.7 L831,144 Z M831,130.9 L827.4,130.9 L827.4,123.6 L831,123.6 L831,130.9 Z M837,235.4 L833.4,235.4 L833.4,228.1 L837,228.1 L837,235.4 Z M837,222.4 L833.4,222.4 L833.4,215.1 L837,215.1 L837,222.4 Z M837,209.3 L833.4,209.3 L833.4,202 L837,202 L837,209.3 Z M837,196.2 L833.4,196.2 L833.4,188.9 L837,188.9 L837,196.2 Z M837,183.2 L833.4,183.2 L833.4,175.9 L837,175.9 L837,183.2 Z M837,170.1 L833.4,170.1 L833.4,162.8 L837,162.8 L837,170.1 Z M837,157 L833.4,157 L833.4,149.8 L837,149.8 L837,157 Z M837,144 L833.4,144 L833.4,136.7 L837,136.7 L837,144 Z M837,130.9 L833.4,130.9 L833.4,123.6 L837,123.6 L837,130.9 Z" id="Shape"></path>
                <polygon id="Shape" points="651.6 97 628 138.6 628 217 651.6 204.9"></polygon>
                <path d="M825.8,112 L820,112 L820,113.7 L816.4,113.7 L816,113 L816,236.1 L825.9,236.1 L825.9,112 L825.8,112 Z M820.2,235.4 L816.6,235.4 L816.6,228.1 L820.2,228.1 L820.2,235.4 Z M820.2,222.4 L816.6,222.4 L816.6,215.1 L820.2,215.1 L820.2,222.4 Z M820.2,209.3 L816.6,209.3 L816.6,202 L820.2,202 L820.2,209.3 Z M820.2,196.2 L816.6,196.2 L816.6,188.9 L820.2,188.9 L820.2,196.2 Z M820.2,183.2 L816.6,183.2 L816.6,175.9 L820.2,175.9 L820.2,183.2 Z M820.2,170.1 L816.6,170.1 L816.6,162.8 L820.2,162.8 L820.2,170.1 Z M820.2,157 L816.6,157 L816.6,149.8 L820.2,149.8 L820.2,157 Z M820.2,144 L816.6,144 L816.6,136.7 L820.2,136.7 L820.2,144 Z M820.2,130.9 L816.6,130.9 L816.6,123.6 L820.2,123.6 L820.2,130.9 Z" id="Shape"></path>
                <path d="M860.7,232.4 L863.2,232.4 L863.2,78.6 C863.1,78.4 863,78.2 862.8,78 C862.2,78.6 862,79.8 862,79.8 L862,84.1 L859,84.1 L859,236.4 L860.7,236.4 L860.7,232.4 L860.7,232.4 Z" id="Shape"></path>
                <path d="M918.2,112.8 L917.4,114.1 L913,114.1 L913,112.8 L911.6,112.8 L911.6,114.1 L907,114.1 L907,113.6 L906.6,113.6 L906.6,112.9 L906,112.9 L906,112 L906,112 L906,236.1 L918.3,236.1 L918.3,112.8 L918.2,112.8 Z M910.8,235.4 L907.2,235.4 L907.2,228.1 L910.8,228.1 L910.8,235.4 Z M910.8,222.4 L907.2,222.4 L907.2,215.1 L910.8,215.1 L910.8,222.4 Z M910.8,209.3 L907.2,209.3 L907.2,202 L910.8,202 L910.8,209.3 Z M910.8,196.2 L907.2,196.2 L907.2,188.9 L910.8,188.9 L910.8,196.2 Z M910.8,183.2 L907.2,183.2 L907.2,175.9 L910.8,175.9 L910.8,183.2 Z M910.8,170.1 L907.2,170.1 L907.2,162.8 L910.8,162.8 L910.8,170.1 Z M910.8,157 L907.2,157 L907.2,149.8 L910.8,149.8 L910.8,157 Z M910.8,144 L907.2,144 L907.2,136.7 L910.8,136.7 L910.8,144 Z M910.8,130.9 L907.2,130.9 L907.2,123.6 L910.8,123.6 L910.8,130.9 Z M916.8,235.4 L913.2,235.4 L913.2,228.1 L916.8,228.1 L916.8,235.4 Z M916.8,222.4 L913.2,222.4 L913.2,215.1 L916.8,215.1 L916.8,222.4 Z M916.8,209.3 L913.2,209.3 L913.2,202 L916.8,202 L916.8,209.3 Z M916.8,196.2 L913.2,196.2 L913.2,188.9 L916.8,188.9 L916.8,196.2 Z M916.8,183.2 L913.2,183.2 L913.2,175.9 L916.8,175.9 L916.8,183.2 Z M916.8,170.1 L913.2,170.1 L913.2,162.8 L916.8,162.8 L916.8,170.1 Z M916.8,157 L913.2,157 L913.2,149.8 L916.8,149.8 L916.8,157 Z M916.8,144 L913.2,144 L913.2,136.7 L916.8,136.7 L916.8,144 Z M916.8,130.9 L913.2,130.9 L913.2,123.6 L916.8,123.6 L916.8,130.9 Z" id="Shape"></path>
                <rect id="Rectangle-path" x="899" y="90" width="5.7" height="146.4"></rect>
                <polygon id="Shape" points="375 182.5 422.3 182.5 469.5 182.5 422.3 160"></polygon>
                <path d="M868,231 C868.4,230.7 868.5,230.2 868.5,229.7 L868.5,226 L868.5,225.9 C868.5,225.8 869.6,223.4 871.9,223.4 C874.1,223.4 875.2,225.8 875.3,225.9 L875.3,226 L875.3,229.7 C875.3,230.2 875.5,230.7 875.8,231 C876.7,231.9 878.7,231.9 879.4,231.9 L879.8,231.9 L879.8,82.8 L879.4,82.8 C879.4,82.8 879,82.6 878.4,82.1 C878.4,82.1 878.4,79.7 877.8,79.1 C877.2,79.7 877.2,82.1 877.2,82.1 C876.6,82.6 876.2,82.8 876.2,82.8 L875.6,82.8 L875.6,79.2 C875.6,79.2 875.4,78.1 874.6,77.3 C874.6,77.3 873.7,78 873.7,79.2 C873.7,79.2 873.9,76 871.7,76 C869.4,76 869.7,79.2 869.7,79.2 C869.7,78 868.8,77.3 868.8,77.3 C868,78.1 867.8,79.2 867.8,79.2 L867.8,82.8 L867.2,82.8 C867.2,82.8 866.8,82.6 866.2,82.1 C866.2,82.1 866.2,79.7 865.6,79.1 C865,79.7 865,82.1 865,82.1 C864.4,82.6 864,82.8 864,82.8 L864,82.8 L864,231.9 L864.3,231.9 C864.4,231.9 866.9,232.1 868,231 Z M876,103.1 C876,103.1 876.5,102.3 877.8,102.3 C879.1,102.3 879.6,103.1 879.6,103.1 L879.6,115.6 L876,115.6 L876,103.1 Z M876,123.5 L879.6,123.5 L879.6,130.8 L876,130.8 L876,123.5 Z M876,136.6 L879.6,136.6 L879.6,143.9 L876,143.9 L876,136.6 Z M876,149.7 L879.6,149.7 L879.6,157 L876,157 L876,149.7 Z M876,162.7 L879.6,162.7 L879.6,170 L876,170 L876,162.7 Z M876,175.8 L879.6,175.8 L879.6,183.1 L876,183.1 L876,175.8 Z M876,188.8 L879.6,188.8 L879.6,196.1 L876,196.1 L876,188.8 Z M876,201.9 L879.6,201.9 L879.6,209.2 L876,209.2 L876,201.9 Z M876,215 L879.6,215 L879.6,222.3 L876,222.3 L876,215 Z M870.2,103.1 C870.2,103.1 870.7,102.3 872,102.3 C873.3,102.3 873.8,103.1 873.8,103.1 L873.8,115.6 L870.2,115.6 L870.2,103.1 L870.2,103.1 Z M870.2,123.5 L873.8,123.5 L873.8,130.8 L870.2,130.8 L870.2,123.5 Z M870.2,136.6 L873.8,136.6 L873.8,143.9 L870.2,143.9 L870.2,136.6 Z M870.2,149.7 L873.8,149.7 L873.8,157 L870.2,157 L870.2,149.7 Z M870.2,162.7 L873.8,162.7 L873.8,170 L870.2,170 L870.2,162.7 Z M870.2,175.8 L873.8,175.8 L873.8,183.1 L870.2,183.1 L870.2,175.8 Z M870.2,188.8 L873.8,188.8 L873.8,196.1 L870.2,196.1 L870.2,188.8 Z M870.2,201.9 L873.8,201.9 L873.8,209.2 L870.2,209.2 L870.2,201.9 Z M870.2,215 L873.8,215 L873.8,222.3 L870.2,222.3 L870.2,215 Z M864.3,103.1 C864.3,103.1 864.8,102.3 866.1,102.3 C867.4,102.3 867.9,103.1 867.9,103.1 L867.9,115.6 L864.3,115.6 L864.3,103.1 L864.3,103.1 Z M864.3,123.5 L867.9,123.5 L867.9,130.8 L864.3,130.8 L864.3,123.5 Z M864.3,136.6 L867.9,136.6 L867.9,143.9 L864.3,143.9 L864.3,136.6 Z M864.3,149.7 L867.9,149.7 L867.9,157 L864.3,157 L864.3,149.7 Z M864.3,162.7 L867.9,162.7 L867.9,170 L864.3,170 L864.3,162.7 Z M864.3,175.8 L867.9,175.8 L867.9,183.1 L864.3,183.1 L864.3,175.8 Z M864.3,188.8 L867.9,188.8 L867.9,196.1 L864.3,196.1 L864.3,188.8 Z M864.3,201.9 L867.9,201.9 L867.9,209.2 L864.3,209.2 L864.3,201.9 Z M864.3,215 L867.9,215 L867.9,222.3 L864.3,222.3 L864.3,215 Z" id="Shape"></path>
                <path d="M898,91.7 L897.5,91.9 L897.5,92.9 L893.6,92.9 L893.6,92 L893.3,92 L893.3,91.4 L891.6,91.4 L891.6,93 L887.3,93 L887.3,92.1 L887,92.1 L887,91.2 L886.3,91.2 L886.3,84 L886,84 L886,236.3 L898,236.3 L898,91.7 Z M890.6,235.7 L887,235.7 L887,228.4 L890.6,228.4 L890.6,235.7 Z M890.6,222.7 L887,222.7 L887,215.4 L890.6,215.4 L890.6,222.7 Z M890.6,209.6 L887,209.6 L887,202.3 L890.6,202.3 L890.6,209.6 Z M890.6,196.5 L887,196.5 L887,189.2 L890.6,189.2 L890.6,196.5 Z M890.6,183.5 L887,183.5 L887,176.2 L890.6,176.2 L890.6,183.5 Z M890.6,170.4 L887,170.4 L887,163.1 L890.6,163.1 L890.6,170.4 Z M890.6,157.3 L887,157.3 L887,150.1 L890.6,150.1 L890.6,157.3 Z M890.6,144.3 L887,144.3 L887,137 L890.6,137 L890.6,144.3 Z M890.6,131.2 L887,131.2 L887,123.9 L890.6,123.9 L890.6,131.2 Z M890.6,116 L887,116 L887,103.5 C887,103.5 887.5,102.7 888.8,102.7 C890.1,102.7 890.6,103.5 890.6,103.5 L890.6,116 L890.6,116 Z M896.6,235.7 L893,235.7 L893,228.4 L896.6,228.4 L896.6,235.7 Z M896.6,222.7 L893,222.7 L893,215.4 L896.6,215.4 L896.6,222.7 Z M896.6,209.6 L893,209.6 L893,202.3 L896.6,202.3 L896.6,209.6 Z M896.6,196.5 L893,196.5 L893,189.2 L896.6,189.2 L896.6,196.5 Z M896.6,183.5 L893,183.5 L893,176.2 L896.6,176.2 L896.6,183.5 Z M896.6,170.4 L893,170.4 L893,163.1 L896.6,163.1 L896.6,170.4 Z M896.6,157.3 L893,157.3 L893,150.1 L896.6,150.1 L896.6,157.3 Z M896.6,144.3 L893,144.3 L893,137 L896.6,137 L896.6,144.3 Z M896.6,131.2 L893,131.2 L893,123.9 L896.6,123.9 L896.6,131.2 Z M896.6,116 L893,116 L893,103.5 C893,103.5 893.5,102.7 894.8,102.7 C896.1,102.7 896.6,103.5 896.6,103.5 L896.6,116 L896.6,116 Z" id="Shape"></path>
                <path d="M883.5,236.5 L885.2,236.5 L885.2,84.1 L882.2,84.1 L882.2,79.8 C882.2,79.8 882,78.6 881.4,78 C881.2,78.2 881.1,78.4 881,78.6 L881,232.4 L883.5,232.4 L883.5,236.5 L883.5,236.5 Z" id="Shape"></path>
                <path d="M475.3,106.9 L475.3,102.3 C475.3,102.3 475,101 472,101 C469,101 469,102 469,102 L469,106.9 C471.3,106.5 473.5,106.6 475.3,106.9 Z" id="Shape"></path>
                <path d="M483.4,123.393827 L485.7,125.293827 L485.6,125.193827 C485.6,125.193827 486.2,113.293827 477.1,107.493827 C474.9,106.993827 472.1,106.693827 469,107.493827 C467.4,108.793827 461.4,114.693827 461,127.293827 L469.6,123.393827 L483.4,123.393827 Z" id="Shape"></path>
                <path d="M928.8,113 L928.4,113.7 L924.8,113.7 L924.8,112 L919,112 L919,236.1 L928.9,236.1 L928.9,113 L928.8,113 Z M928.1,235.5 L924.5,235.5 L924.5,228.2 L928.1,228.2 L928.1,235.5 Z M928.1,222.5 L924.5,222.5 L924.5,215.2 L928.1,215.2 L928.1,222.5 Z M928.1,209.4 L924.5,209.4 L924.5,202.1 L928.1,202.1 L928.1,209.4 Z M928.1,196.3 L924.5,196.3 L924.5,189 L928.1,189 L928.1,196.3 Z M928.1,183.3 L924.5,183.3 L924.5,176 L928.1,176 L928.1,183.3 Z M928.1,170.2 L924.5,170.2 L924.5,162.9 L928.1,162.9 L928.1,170.2 Z M928.1,157.1 L924.5,157.1 L924.5,149.9 L928.1,149.9 L928.1,157.1 Z M928.1,144.1 L924.5,144.1 L924.5,136.8 L928.1,136.8 L928.1,144.1 Z M928.1,131 L924.5,131 L924.5,123.7 L928.1,123.7 L928.1,131 Z" id="Shape"></path>
                <path d="M459.8,140.8 L459.9,140.8 L459.9,166.7 L461.4,165.5 L461.8,165.3 L494,165.3 L494,165.2 L490.9,165.2 L490.9,157.8 L489.4,156.8 L485.8,156.8 L485.8,136.6 L485.8,131.8 L488.2,131.8 L488.6,130 L482.5,125 L469.5,125 L458.6,130 L456,135.8 L459.7,139.4 L459.7,140.8 L459.8,140.8 Z M481,138.1 C481,138.1 481.4,137 482.4,137.6 C483.4,138.2 483.7,140.2 483.7,140.2 L483.7,158.6 L481,157.7 L481,138.1 L481,138.1 Z M473.1,137.2 C473.1,137.2 473.2,135.5 475.8,135.5 C478.4,135.5 478.5,137.4 478.5,137.4 L478.5,157.2 L473.2,157.2 L473.2,137.2 L473.1,137.2 Z M467.7,136.4 C470,135.6 470,138.4 470,138.4 L470,157.1 L465.9,157.6 L465.9,140.3 C465.8,140.4 465.4,137.1 467.7,136.4 Z M461.2,141.3 C461.2,141.3 461.2,139.1 461.9,138.6 C462.6,138 462.6,140.3 462.6,140.3 L462.6,158.3 L461.3,158.9 L461.3,141.3 L461.2,141.3 Z" id="Shape"></path>
                <path d="M548,182.9 C540,182.9 528.6,179.7 526,179 L526,234.4 L547.2,234.4 L547.2,230.2 L529.9,230.2 L529.9,182.4 L530.5,182.6 C530.6,182.6 540.9,185.5 548,185.5 C555.2,185.5 558.7,184.7 558.7,184.7 L559.3,184.6 L559.3,203.3 C560.5,201.7 561.9,200.2 563.5,198.7 C565.6,196.8 567.9,195.2 570.5,193.9 L570.4,193.9 L570.4,179.8 C562.3,182.6 555.4,182.9 548,182.9 Z" id="Shape"></path>
                <path d="M551,227.1 C557,224.5 569.4,220.3 585.6,220.3 C601.7,220.3 610.7,222.7 614.9,224.2 C614.8,197.7 597.1,191.4 588.8,190 C578.4,190.1 570,193 563.6,198.9 C552.8,208.7 551.2,223.7 551,227.1 Z" id="Shape"></path>
                <path d="M584.9,178.9 L578.5,178.7 L578.5,179.7 L576.7,179.7 L576.7,177 L575.9,177 C575.8,177 575.7,177.1 575.7,177.1 L575.7,178.6 L572.6,178.6 C572.1,178.8 571.5,179.1 571,179.3 L571,193.3 C575.1,191.3 579.7,190.1 584.9,189.7 L584.9,178.9 Z" id="Shape"></path>
                <polygon id="Shape" points="655.6 83 629.6 130.4 630.9 130.4 653.7 90.1 653.7 205.1 629 217.9 632 218.7 655.6 207.4"></polygon>
                <polygon id="Shape" points="655.7 217.1 655.7 209 633 219.9 633 225.5"></polygon>
                <path d="M608,230.71108 C605,230.31108 583.8,227.91108 548,235.01108 L548,252.61108 L608,251.61108 L608,230.71108 Z M554.8,243.91108 C552.9,244.11108 551,244.31108 549.2,244.51108 L549.2,242.11108 C550.4,241.91108 552.2,241.61108 554.8,241.21108 L554.8,243.91108 Z M561.6,243.31108 C559.7,243.41108 557.9,243.61108 556,243.81108 L556,241.11108 C557.6,240.91108 559.5,240.71108 561.6,240.51108 L561.6,243.31108 Z M568.4,242.81108 C566.6,242.91108 564.7,243.11108 562.8,243.21108 L562.8,240.31108 C564.5,240.11108 566.4,240.01108 568.4,239.81108 L568.4,242.81108 Z M575.2,242.41108 C573.4,242.51108 571.5,242.61108 569.6,242.71108 L569.6,239.71108 C571.4,239.61108 573.2,239.51108 575.2,239.31108 L575.2,242.41108 Z M582.1,242.11108 C580.3,242.21108 578.4,242.31108 576.5,242.31108 L576.5,239.31108 C578.3,239.21108 580.1,239.11108 582.1,239.01108 L582.1,242.11108 Z M588.9,241.91108 C587.1,241.91108 585.3,242.01108 583.3,242.11108 L583.3,239.11108 C585.1,239.01108 587,239.01108 588.9,238.91108 L588.9,241.91108 Z M595.7,241.71108 C594,241.71108 592.1,241.81108 590.1,241.81108 L590.1,238.81108 C591.9,238.81108 593.8,238.71108 595.7,238.71108 L595.7,241.71108 Z M603.3,241.71108 L596.9,241.71108 L596.9,238.71108 L603.3,238.71108 L603.3,241.71108 Z" id="Shape"></path>
                <path d="M557.6,204.8 L557.6,186 C556.3,186.2 553,186.7 547.2,186.7 C540.9,186.7 532.3,184.6 530,184 L530,229.7 L546.7,229.7 C547,229.5 548.1,229 549.7,228.2 C549.8,226.3 550.7,214.7 557.6,204.8 Z" id="Shape"></path>
            </g>
        </g>
    </g>
</svg>