<?xml version="1.0" encoding="UTF-8"?>
<svg width="938px" height="662px" viewBox="0 0 938 662" version="1.1" xmlns="http://www.w3.org/2000/svg" xmlns:xlink="http://www.w3.org/1999/xlink">
    <!-- Generator: Sketch 43.1 (39012) - http://www.bohemiancoding.com/sketch -->
    <title>gfx-ruby</title>
    <desc>Created with Sketch.</desc>
    <defs></defs>
    <g id="Page-1" stroke="none" stroke-width="1" fill="none" fill-rule="evenodd">
        <g id="gfx-ruby" fill-rule="nonzero">
            <path d="M768.040802,0 L169.935833,0 L0,226.843742 L469.035048,662 L938,226.937334 L768.040802,0 Z M647.662772,243.292546 L469.035048,594.988088 L291.972798,243.292546 L647.662772,243.292546 Z M308.492066,205.925918 L469.035048,45.1347682 L629.484568,205.925918 L308.492066,205.925918 Z M514.130078,37.4602196 L731.263818,37.4602196 L670.023364,193.478175 L514.130078,37.4602196 Z M270.33653,191.114975 L219.236616,37.4602196 L423.869922,37.4602196 L270.33653,191.114975 Z M250.172276,243.292546 L405.598256,552.122926 L72.7361812,243.292546 L250.172276,243.292546 Z M689.650218,243.292546 L865.240454,243.292546 L533.196162,551.39759 L689.650218,243.292546 Z M705.3517,205.925918 L763.835048,56.763581 L875.567916,205.925918 L705.3517,205.925918 Z M182.529729,45.6027284 L235.942806,205.925918 L62.4320844,205.925918 L182.529729,45.6027284 Z" id="ic-ruby" fill="#C63268"></path>
            <polygon id="ic-ruby-path" fill="#F393B0" points="647.662772 243.292546 469.035048 594.988088 291.972798 243.292546"></polygon>
            <polygon id="ic-ruby-path" fill="#FFFFFF" points="308.492066 205.925918 469.035048 45.1347682 629.484568 205.925918"></polygon>
            <polygon id="ic-ruby-path" fill="#F8C4D4" points="514.130078 37.4602196 731.263818 37.4602196 670.023364 193.478175"></polygon>
            <polygon id="ic-ruby-path" fill="#F8C4D4" points="270.33653 191.114975 219.236616 37.4602196 423.869922 37.4602196"></polygon>
            <polygon id="ic-ruby-path" fill="#F1739B" points="250.172276 243.292546 405.598256 552.122926 72.7361812 243.292546"></polygon>
            <polygon id="ic-ruby-path" fill="#F1739B" points="689.650218 243.292546 865.240454 243.292546 533.196162 551.39759"></polygon>
            <polygon id="ic-ruby-path" fill="#F8C4D4" points="705.3517 205.925918 763.835048 56.763581 875.567916 205.925918"></polygon>
            <polygon id="ic-ruby-path" fill="#F8C4D4" points="182.529729 45.6027284 235.942806 205.925918 62.4320844 205.925918"></polygon>
        </g>
    </g>
</svg>