<?xml version="1.0" encoding="UTF-8" standalone="no"?>
<svg width="26px" height="26px" viewBox="0 0 26 26" version="1.1" xmlns="http://www.w3.org/2000/svg" xmlns:xlink="http://www.w3.org/1999/xlink">
    <!-- Generator: Sketch 41.1 (35376) - http://www.bohemiancoding.com/sketch -->
    <title>Combined Shape</title>
    <desc>Created with Sketch.</desc>
    <defs></defs>
    <g id="Page-1" stroke="none" stroke-width="1" fill="none" fill-rule="evenodd">
        <g id="Artboard" transform="translate(-1327.000000, -39.000000)" fill="#FBE14A">
            <path d="M1340,65 C1347.1797,65 1353,59.1797017 1353,52 C1353,44.8202983 1347.1797,39 1340,39 C1332.8203,39 1327,44.8202983 1327,52 C1327,59.1797017 1332.8203,65 1340,65 Z M1344.56674,53.9961522 L1346.78052,56.2099336 C1347.08585,56.5157652 1347.07236,57.0244852 1346.75053,57.3468078 L1346.36974,57.7255993 L1343.05007,54.4064264 L1343.43036,54.0266354 C1343.75268,53.7048126 1344.2609,53.6908203 1344.56674,53.9961522 Z M1338.55405,53.4459459 C1339.83935,54.7312384 1341.03219,55.2649446 1341.75929,55.6972067 L1342.69577,54.7607222 L1346.01445,58.0793954 L1345.99046,58.1033822 L1345.98946,58.1023827 C1345.7321,58.3492468 1345.38429,58.5866162 1344.95453,58.7550235 C1344.70167,58.8524698 1344.42382,58.928428 1344.11699,58.9654077 C1342.14908,59.2007781 1339.43857,58.2867812 1336.57764,55.4263558 C1336.57714,55.4253563 1336.57614,55.4248566 1336.57614,55.4248566 C1336.57514,55.4238572 1336.57514,55.4233574 1336.57414,55.4228577 C1333.71372,52.5619326 1332.79922,49.8514246 1333.03559,47.8830082 C1333.07107,47.5761771 1333.14853,47.2988297 1333.24498,47.0454692 C1333.41338,46.6157058 1333.65075,46.2678972 1333.89762,46.0105389 L1333.89662,46.0095394 L1333.9206,45.9855526 L1337.23928,49.3042258 L1336.30279,50.2402106 C1336.73456,50.9673103 1337.26876,52.1606535 1338.55405,53.4459459 Z M1335.78886,45.220685 L1338.00315,47.4344663 C1338.30798,47.740298 1338.29399,48.249018 1337.97216,48.5708408 L1337.59237,48.9511315 L1334.2732,45.6314588 L1334.65249,45.2506685 C1334.97431,44.9288456 1335.48353,44.915353 1335.78886,45.220685 Z" id="Combined-Shape"></path>
        </g>
    </g>
</svg>