<?xml version="1.0" encoding="UTF-8" standalone="no"?>
<svg width="60px" height="40px" viewBox="0 0 60 40" version="1.1" xmlns="http://www.w3.org/2000/svg" xmlns:xlink="http://www.w3.org/1999/xlink">
    <!-- Generator: Sketch 39.1 (31720) - http://www.bohemiancoding.com/sketch -->
    <title>Logotype</title>
    <desc>Created with Sketch.</desc>
    <defs></defs>
    <g id="Page-1" stroke="none" stroke-width="1" fill="none" fill-rule="evenodd">
        <g id="Artboard-2" transform="translate(-38.000000, -31.000000)" fill="#00adef">
            <g id="Logotype" transform="translate(38.000000, 31.000000)">
                <path d="M0,-6.15384616e-05 L0,30.7691692 L21.5384615,30.7691692 L21.5384615,39.9999385 L40,39.9999385 L40,-6.15384616e-05 L0,-6.15384616e-05 Z M3.07692308,3.07686154 L36.9230769,3.07686154 L36.9230769,27.6922462 L30.7692308,27.6922462 L30.7692308,12.3076308 L27.6923077,12.3076308 L27.6923077,27.6922462 L21.5384615,27.6922462 L21.5384615,12.3076308 L18.4615385,12.3076308 L18.4615385,27.6922462 L12.3076923,27.6922462 L12.3076923,12.3076308 L9.23076923,12.3076308 L9.23076923,27.6922462 L3.07692308,27.6922462 L3.07692308,3.07686154 Z M24.6153846,36.9230154 L36.9230769,36.9230154 L36.9230769,30.7691692 L24.6153846,30.7691692 L24.6153846,36.9230154 Z" id="Symbol"></path>
            </g>
        </g>
    </g>
</svg>
