<?xml version="1.0" encoding="UTF-8" standalone="no"?>
<svg width="89px" height="40px" viewBox="0 0 89 40" version="1.1" xmlns="http://www.w3.org/2000/svg" xmlns:xlink="http://www.w3.org/1999/xlink">
    <!-- Generator: Sketch 39.1 (31720) - http://www.bohemiancoding.com/sketch -->
    <title>Logotype</title>
    <desc>Created with Sketch.</desc>
    <defs></defs>
    <g id="Page-1" stroke="none" stroke-width="1" fill="none" fill-rule="evenodd">
        <g id="Artboard-2" transform="translate(-38.000000, -31.000000)" fill="#FFFFFF">
            <g id="Logotype" transform="translate(38.000000, 31.000000)">
                <path d="M0,-6.15384616e-05 L0,30.7691692 L21.5384615,30.7691692 L21.5384615,39.9999385 L40,39.9999385 L40,-6.15384616e-05 L0,-6.15384616e-05 Z M3.07692308,3.07686154 L36.9230769,3.07686154 L36.9230769,27.6922462 L30.7692308,27.6922462 L30.7692308,12.3076308 L27.6923077,12.3076308 L27.6923077,27.6922462 L21.5384615,27.6922462 L21.5384615,12.3076308 L18.4615385,12.3076308 L18.4615385,27.6922462 L12.3076923,27.6922462 L12.3076923,12.3076308 L9.23076923,12.3076308 L9.23076923,27.6922462 L3.07692308,27.6922462 L3.07692308,3.07686154 Z M24.6153846,36.9230154 L36.9230769,36.9230154 L36.9230769,30.7691692 L24.6153846,30.7691692 L24.6153846,36.9230154 Z" id="Symbol"></path>
                <g id="Logo" transform="translate(46.153846, 3.076923)">
                    <path d="M8.1990359,10.8037949 C8.1990359,10.2565128 8.02611282,9.80646154 7.68047179,9.45323077 C7.33462564,9.10061538 6.83780513,8.924 6.1896,8.924 L3.07698462,8.924 L3.07698462,12.7053333 L6.1896,12.7053333 C6.83780513,12.7053333 7.33462564,12.5252308 7.68047179,12.1650256 C8.02611282,11.8052308 8.1990359,11.3514872 8.1990359,10.8037949 L8.1990359,10.8037949 Z M7.9830359,4.45117949 C7.9830359,3.91846154 7.81011282,3.48974359 7.46447179,3.1654359 C7.11862564,2.84133333 6.62877949,2.67928205 5.99513846,2.67928205 L3.07698462,2.67928205 L3.07698462,6.22307692 L5.99513846,6.22307692 C6.62877949,6.22307692 7.11862564,6.06082051 7.46447179,5.73692308 C7.81011282,5.41261538 7.9830359,4.98430769 7.9830359,4.45117949 L7.9830359,4.45117949 Z M11.1190359,10.9549744 C11.1190359,12.3525128 10.6868308,13.4398974 9.82242051,14.2177436 C8.95821538,14.9957949 7.81995897,15.3845128 6.40847179,15.3845128 L0.0127794872,15.3845128 L0.0127794872,-0.000102564103 L6.14918974,-0.000102564103 C7.63267692,-0.000102564103 8.79595897,0.388820513 9.63883077,1.16687179 C10.4814974,1.94471795 10.9028308,2.99641026 10.9028308,4.32153846 C10.9028308,5.09938462 10.6868308,5.79825641 10.2546256,6.41733333 C9.89442051,6.90738462 9.47677949,7.26758974 9.00129231,7.49774359 C10.4129846,8.16051282 11.1190359,9.31292308 11.1190359,10.9549744 L11.1190359,10.9549744 Z" id="Fill-3"></path>
                    <polygon id="Fill-5" points="29.7435897 2.6793641 25.6410256 2.6793641 25.6410256 15.3845949 22.5641026 15.3845949 22.5641026 2.6793641 18.4615385 2.6793641 18.4615385 -2.05128205e-05 29.7435897 -2.05128205e-05"></polygon>
                    <polygon id="Fill-2" points="13.3333333 15.4092308 16.4102564 15.4092308 16.4102564 0.0246153846 13.3333333 0.0246153846"></polygon>
                    <polygon id="Fill-7" points="13.3333333 33.8461538 16.4102564 33.8461538 16.4102564 18.4615385 13.3333333 18.4615385"></polygon>
                    <polygon id="Fill-9" points="42.0512821 21.1409026 37.9487179 21.1409026 37.9487179 33.8461333 34.8717949 33.8461333 34.8717949 21.1409026 30.7692308 21.1409026 30.7692308 18.4615179 42.0512821 18.4615179"></polygon>
                    <path d="M8.01632821,23.1365538 C8.01632821,22.5349128 7.81448205,22.0477333 7.41140513,21.6750154 C7.00791795,21.3027077 6.48217436,21.1162462 5.83396923,21.1162462 L3.07684103,21.1162462 L3.07684103,25.1568615 L5.83396923,25.1568615 C6.48217436,25.1568615 7.00791795,24.9708103 7.41140513,24.5980923 C7.81448205,24.2257846 8.01632821,23.7386051 8.01632821,23.1365538 L8.01632821,23.1365538 Z M11.6464821,33.8214769 L8.16750769,33.8214769 L5.16422564,27.6850667 L3.07684103,27.6850667 L3.07684103,33.8214769 L-8.20512822e-05,33.8214769 L-8.20512822e-05,18.4368615 L6.02843077,18.4368615 C7.5552,18.4368615 8.77961026,18.8981949 9.70166154,19.8198359 C10.5802256,20.6986051 11.0198154,21.8077333 11.0198154,23.1474256 C11.0198154,24.1704 10.7387897,25.0489641 10.1771487,25.7835282 C9.67273846,26.4317333 9.01735385,26.900041 8.21078974,27.188041 L11.6464821,33.8214769 Z" id="Fill-10"></path>
                    <path d="M26.8430974,26.1292718 C26.8430974,24.9454769 26.8285333,24.1947077 26.7998154,23.8769641 C26.7130462,22.9239385 26.4748923,22.2308103 26.0849436,21.7977846 C25.5940718,21.2490667 24.9514051,20.9746051 24.157559,20.9746051 C23.3487385,20.9746051 22.6990974,21.2490667 22.2084308,21.7977846 C21.8326359,22.2308103 21.6020718,22.9239385 21.5153026,23.8769641 C21.4861744,24.1366564 21.4720205,24.8876308 21.4720205,26.1292718 C21.4720205,27.3711179 21.4861744,28.1216821 21.5153026,28.3815795 C21.6020718,29.3346051 21.8326359,30.0275282 22.2084308,30.460759 C22.6990974,31.0096821 23.3487385,31.2837333 24.157559,31.2837333 C25.0525333,31.2837333 25.7526359,30.9372718 26.2582769,30.2441436 C26.6482256,29.7101949 26.8430974,28.3382974 26.8430974,26.1292718 M29.853559,26.1292718 C29.853559,27.8043487 29.7885333,28.9664 29.6584821,29.616041 C29.4707897,30.684759 29.0229949,31.572759 28.3157128,32.280041 C27.189559,33.4061949 25.8035077,33.9692718 24.157559,33.9692718 C22.4970462,33.9692718 21.1038154,33.4061949 19.9776615,32.280041 C19.2845333,31.5869128 18.8369436,30.6989128 18.6348923,29.616041 C18.5192,28.9809641 18.461559,27.8185026 18.461559,26.1292718 C18.461559,24.440041 18.5192,23.2777846 18.6348923,22.6422974 C18.8369436,21.5594256 19.2845333,20.6714256 19.9776615,19.9785026 C21.1038154,18.8523487 22.4970462,18.2892718 24.157559,18.2892718 C25.8035077,18.2892718 27.189559,18.8523487 28.3157128,19.9785026 C29.0229949,20.6859897 29.4707897,21.5739897 29.6584821,22.6422974 C29.7885333,23.2921436 29.853559,24.4546051 29.853559,26.1292718" id="Fill-11"></path>
                </g>
            </g>
        </g>
    </g>
</svg>