<?xml version="1.0" encoding="UTF-8"?>
<svg width="110px" height="105px" viewBox="0 0 110 105" version="1.1" xmlns="http://www.w3.org/2000/svg" xmlns:xlink="http://www.w3.org/1999/xlink">
    <!-- Generator: Sketch 42 (36781) - http://www.bohemiancoding.com/sketch -->
    <title>01</title>
    <desc>Created with Sketch.</desc>
    <defs></defs>
    <g id="Page-4" stroke="none" stroke-width="1" fill="none" fill-rule="evenodd" opacity="1">
        <g id="Services-bigger-title" transform="translate(-816.000000, -901.000000)" fill="#949494">
            <path d="M869.914062,977.985457 C869.914062,983.329234 868.777355,988.051843 866.503906,992.153426 C864.230457,996.255009 861.031271,999.477633 856.90625,1001.82139 C852.781229,1004.16516 848.140651,1005.33702 842.984375,1005.33702 C837.828099,1005.33702 833.187521,1004.16516 829.0625,1001.82139 C824.937479,999.477633 821.738293,996.255009 819.464844,992.153426 C817.191395,988.051843 816.054688,983.329234 816.054688,977.985457 L816.054688,928.485457 C816.054688,924.547938 816.72265,920.891724 818.058594,917.516707 C819.394538,914.141691 821.246082,911.223751 823.613281,908.762801 C825.980481,906.301851 828.81639,904.415151 832.121094,903.102645 C835.425798,901.790138 839.046855,901.133895 842.984375,901.133895 C846.96877,901.133895 850.613265,901.790138 853.917969,903.102645 C857.222673,904.415151 860.070301,906.301851 862.460938,908.762801 C864.851574,911.223751 866.6914,914.141691 867.980469,917.516707 C869.269538,920.891724 869.914062,924.547938 869.914062,928.485457 L869.914062,977.985457 Z M862.601562,977.282332 L862.601562,929.188582 C862.601562,922.860426 860.878923,917.68079 857.433594,913.64952 C853.988264,909.61825 849.171906,907.602645 842.984375,907.602645 C836.843719,907.602645 832.050798,909.61825 828.605469,913.64952 C825.160139,917.68079 823.4375,922.860426 823.4375,929.188582 L823.4375,977.282332 C823.4375,983.610489 825.160139,988.790125 828.605469,992.821395 C832.050798,996.852665 836.843719,998.86827 842.984375,998.86827 C849.171906,998.86827 853.988264,996.852665 857.433594,992.821395 C860.878923,988.790125 862.601562,983.610489 862.601562,977.282332 Z M925.109375,1004.49327 L917.796875,1004.49327 L917.796875,910.344832 L899.164062,926.727645 L899.164062,917.938582 L917.796875,901.977645 L925.109375,901.977645 L925.109375,1004.49327 Z" id="01"></path>
        </g>
    </g>
</svg>
