<?xml version="1.0" encoding="UTF-8"?>
<svg width="129px" height="105px" viewBox="0 0 129 105" version="1.1" xmlns="http://www.w3.org/2000/svg" xmlns:xlink="http://www.w3.org/1999/xlink">
    <!-- Generator: Sketch 42 (36781) - http://www.bohemiancoding.com/sketch -->
    <title>02</title>
    <desc>Created with Sketch.</desc>
    <defs></defs>
    <g id="Page-4" stroke="none" stroke-width="1" fill="none" fill-rule="evenodd" opacity="1">
        <g id="Services-bigger-title" transform="translate(-228.000000, -1451.000000)" fill="#949494">
            <path d="M281.914062,1528.21415 C281.914062,1533.55793 280.777355,1538.28054 278.503906,1542.38212 C276.230457,1546.48371 273.031271,1549.70633 268.90625,1552.05009 C264.781229,1554.39385 260.140651,1555.56572 254.984375,1555.56572 C249.828099,1555.56572 245.187521,1554.39385 241.0625,1552.05009 C236.937479,1549.70633 233.738293,1546.48371 231.464844,1542.38212 C229.191395,1538.28054 228.054688,1533.55793 228.054688,1528.21415 L228.054688,1478.71415 C228.054688,1474.77663 228.72265,1471.12042 230.058594,1467.7454 C231.394538,1464.37039 233.246082,1461.45245 235.613281,1458.9915 C237.980481,1456.53055 240.81639,1454.64385 244.121094,1453.33134 C247.425798,1452.01883 251.046855,1451.36259 254.984375,1451.36259 C258.96877,1451.36259 262.613265,1452.01883 265.917969,1453.33134 C269.222673,1454.64385 272.070301,1456.53055 274.460938,1458.9915 C276.851574,1461.45245 278.6914,1464.37039 279.980469,1467.7454 C281.269538,1471.12042 281.914062,1474.77663 281.914062,1478.71415 L281.914062,1528.21415 Z M274.601562,1527.51103 L274.601562,1479.41728 C274.601562,1473.08912 272.878923,1467.90949 269.433594,1463.87822 C265.988264,1459.84695 261.171906,1457.83134 254.984375,1457.83134 C248.843719,1457.83134 244.050798,1459.84695 240.605469,1463.87822 C237.160139,1467.90949 235.4375,1473.08912 235.4375,1479.41728 L235.4375,1527.51103 C235.4375,1533.83919 237.160139,1539.01882 240.605469,1543.05009 C244.050798,1547.08136 248.843719,1549.09697 254.984375,1549.09697 C261.171906,1549.09697 265.988264,1547.08136 269.433594,1543.05009 C272.878923,1539.01882 274.601562,1533.83919 274.601562,1527.51103 Z M356.726562,1554.72197 L302.375,1554.72197 L302.375,1548.25322 L343.578125,1494.25322 C347.421894,1489.33132 349.34375,1484.01106 349.34375,1478.29228 C349.34375,1474.16726 348.558602,1470.56964 346.988281,1467.49931 C345.417961,1464.42898 343.144546,1462.0501 340.167969,1460.36259 C337.191391,1458.67508 333.68752,1457.83134 329.65625,1457.83134 C323.890596,1457.83134 319.156269,1459.53054 315.453125,1462.929 C311.749981,1466.32745 309.898438,1471.44849 309.898438,1478.29228 L302.585938,1478.29228 C302.585938,1470.41724 305.011694,1463.96027 309.863281,1458.92119 C314.714868,1453.8821 321.312458,1451.36259 329.65625,1451.36259 C333.781271,1451.36259 337.519514,1452.00712 340.871094,1453.29619 C344.222673,1454.58525 347.070301,1456.38992 349.414062,1458.71025 C351.757824,1461.03057 353.562494,1463.84304 354.828125,1467.14775 C356.093756,1470.45245 356.726562,1474.16726 356.726562,1478.29228 C356.726562,1482.08917 356.187505,1485.48758 355.109375,1488.48759 C354.031245,1491.48761 352.203138,1494.65164 349.625,1497.97978 L311.164062,1548.25322 L356.726562,1548.25322 L356.726562,1554.72197 Z" id="02"></path>
        </g>
    </g>
</svg>
