<?xml version="1.0" encoding="UTF-8"?>
<svg width="129px" height="106px" viewBox="0 0 129 106" version="1.1" xmlns="http://www.w3.org/2000/svg" xmlns:xlink="http://www.w3.org/1999/xlink">
    <!-- Generator: Sketch 42 (36781) - http://www.bohemiancoding.com/sketch -->
    <title>03</title>
    <desc>Created with Sketch.</desc>
    <defs></defs>
    <g id="Page-4" stroke="none" stroke-width="1" fill="none" fill-rule="evenodd" opacity="1">
        <g id="Services-bigger-title" transform="translate(-816.000000, -1998.000000)" fill="#949494">
            <path d="M870.121094,2075.78516 C870.121094,2081.12893 868.984386,2085.85154 866.710938,2089.95312 C864.437489,2094.05471 861.238302,2097.27733 857.113281,2099.62109 C852.988261,2101.96486 848.347682,2103.13672 843.191406,2103.13672 C838.03513,2103.13672 833.394552,2101.96486 829.269531,2099.62109 C825.144511,2097.27733 821.945324,2094.05471 819.671875,2089.95312 C817.398426,2085.85154 816.261719,2081.12893 816.261719,2075.78516 L816.261719,2026.28516 C816.261719,2022.34764 816.929681,2018.69142 818.265625,2015.31641 C819.601569,2011.94139 821.453113,2009.02345 823.820312,2006.5625 C826.187512,2004.10155 829.023421,2002.21485 832.328125,2000.90234 C835.632829,1999.58984 839.253887,1998.93359 843.191406,1998.93359 C847.175801,1998.93359 850.820296,1999.58984 854.125,2000.90234 C857.429704,2002.21485 860.277332,2004.10155 862.667969,2006.5625 C865.058606,2009.02345 866.898431,2011.94139 868.1875,2015.31641 C869.476569,2018.69142 870.121094,2022.34764 870.121094,2026.28516 L870.121094,2075.78516 Z M862.808594,2075.08203 L862.808594,2026.98828 C862.808594,2020.66012 861.085955,2015.48049 857.640625,2011.44922 C854.195295,2007.41795 849.378937,2005.40234 843.191406,2005.40234 C837.050751,2005.40234 832.25783,2007.41795 828.8125,2011.44922 C825.36717,2015.48049 823.644531,2020.66012 823.644531,2026.98828 L823.644531,2075.08203 C823.644531,2081.41019 825.36717,2086.58982 828.8125,2090.62109 C832.25783,2094.65236 837.050751,2096.66797 843.191406,2096.66797 C849.378937,2096.66797 854.195295,2094.65236 857.640625,2090.62109 C861.085955,2086.58982 862.808594,2081.41019 862.808594,2075.08203 Z M944.582031,2074.94141 C944.582031,2080.84769 943.328138,2085.94529 940.820312,2090.23438 C938.312487,2094.52346 934.832054,2097.76952 930.378906,2099.97266 C925.925759,2102.17579 920.980496,2103.27734 915.542969,2103.27734 C907.152302,2103.27734 900.296902,2101.09768 894.976562,2096.73828 C889.656223,2092.37888 886.761721,2085.93364 886.292969,2077.40234 L893.605469,2077.40234 C894.121096,2083.96488 896.453104,2088.83983 900.601562,2092.02734 C904.750021,2095.21486 909.73044,2096.80859 915.542969,2096.80859 C921.82425,2096.80859 927.015604,2094.82814 931.117188,2090.86719 C935.218771,2086.90623 937.269531,2081.59769 937.269531,2074.94141 C937.269531,2067.7695 935.488299,2062.33205 931.925781,2058.62891 C928.363263,2054.92576 922.714882,2053.07422 914.980469,2053.07422 L913.222656,2053.07422 L913.222656,2046.53516 L914.980469,2046.53516 C919.433616,2046.53516 923.183579,2045.73829 926.230469,2044.14453 C929.277359,2042.55077 931.539055,2040.2422 933.015625,2037.21875 C934.492195,2034.1953 935.230469,2030.45705 935.230469,2026.00391 C935.230469,2022.72264 934.726568,2019.75783 933.71875,2017.10938 C932.710932,2014.46092 931.316415,2012.26954 929.535156,2010.53516 C927.753897,2008.80077 925.679699,2007.48829 923.3125,2006.59766 C920.945301,2005.70703 918.308608,2005.26172 915.402344,2005.26172 C909.496064,2005.26172 904.773455,2006.92576 901.234375,2010.25391 C897.695295,2013.58205 895.59766,2018.15231 894.941406,2023.96484 L887.558594,2023.96484 C888.308598,2016.13668 891.249974,2009.97268 896.382812,2005.47266 C901.515651,2000.97263 907.855431,1998.72266 915.402344,1998.72266 C920.699245,1998.72266 925.410136,1999.84765 929.535156,2002.09766 C933.660177,2004.34767 936.871082,2007.52342 939.167969,2011.625 C941.464855,2015.72658 942.613281,2020.5195 942.613281,2026.00391 C942.613281,2037.44146 937.761767,2045.1992 928.058594,2049.27734 C939.074274,2053.07424 944.582031,2061.62884 944.582031,2074.94141 Z" id="03"></path>
        </g>
    </g>
</svg>
