<?xml version="1.0" encoding="UTF-8"?>
<svg width="132px" height="105px" viewBox="0 0 132 105" version="1.1" xmlns="http://www.w3.org/2000/svg" xmlns:xlink="http://www.w3.org/1999/xlink">
    <!-- Generator: Sketch 42 (36781) - http://www.bohemiancoding.com/sketch -->
    <title>04</title>
    <desc>Created with Sketch.</desc>
    <defs></defs>
    <g id="Page-4" stroke="none" stroke-width="1" fill="none" fill-rule="evenodd" opacity="1">
        <g id="Services-bigger-title" transform="translate(-214.000000, -2547.000000)" fill="#949494">
            <path d="M268.015625,2624.00391 C268.015625,2629.34768 266.878918,2634.07029 264.605469,2638.17187 C262.33202,2642.27346 259.132833,2645.49608 255.007812,2647.83984 C250.882792,2650.18361 246.242213,2651.35547 241.085938,2651.35547 C235.929662,2651.35547 231.289083,2650.18361 227.164062,2647.83984 C223.039042,2645.49608 219.839855,2642.27346 217.566406,2638.17187 C215.292957,2634.07029 214.15625,2629.34768 214.15625,2624.00391 L214.15625,2574.50391 C214.15625,2570.56639 214.824212,2566.91017 216.160156,2563.53516 C217.4961,2560.16014 219.347644,2557.2422 221.714844,2554.78125 C224.082043,2552.3203 226.917952,2550.4336 230.222656,2549.12109 C233.52736,2547.80859 237.148418,2547.15234 241.085938,2547.15234 C245.070332,2547.15234 248.714827,2547.80859 252.019531,2549.12109 C255.324235,2550.4336 258.171863,2552.3203 260.5625,2554.78125 C262.953137,2557.2422 264.792962,2560.16014 266.082031,2563.53516 C267.3711,2566.91017 268.015625,2570.56639 268.015625,2574.50391 L268.015625,2624.00391 Z M260.703125,2623.30078 L260.703125,2575.20703 C260.703125,2568.87887 258.980486,2563.69924 255.535156,2559.66797 C252.089827,2555.6367 247.273468,2553.62109 241.085938,2553.62109 C234.945282,2553.62109 230.152361,2555.6367 226.707031,2559.66797 C223.261702,2563.69924 221.539062,2568.87887 221.539062,2575.20703 L221.539062,2623.30078 C221.539062,2629.62894 223.261702,2634.80857 226.707031,2638.83984 C230.152361,2642.87111 234.945282,2644.88672 241.085938,2644.88672 C247.273468,2644.88672 252.089827,2642.87111 255.535156,2638.83984 C258.980486,2634.80857 260.703125,2629.62894 260.703125,2623.30078 Z M345.992188,2633.63672 L332.28125,2633.63672 L332.28125,2650.51172 L324.96875,2650.51172 L324.96875,2633.63672 L284.328125,2633.63672 L284.328125,2627.16797 L322.085938,2547.99609 L329.820312,2547.99609 L292.132812,2627.16797 L324.96875,2627.16797 L324.96875,2594.61328 L332.28125,2594.61328 L332.28125,2627.16797 L345.992188,2627.16797 L345.992188,2633.63672 Z" id="04"></path>
        </g>
    </g>
</svg>
