<?xml version="1.0" encoding="UTF-8"?>
<svg width="130px" height="105px" viewBox="0 0 130 105" version="1.1" xmlns="http://www.w3.org/2000/svg" xmlns:xlink="http://www.w3.org/1999/xlink">
    <!-- Generator: Sketch 42 (36781) - http://www.bohemiancoding.com/sketch -->
    <title>05</title>
    <desc>Created with Sketch.</desc>
    <defs></defs>
    <g id="Page-4" stroke="none" stroke-width="1" fill="none" fill-rule="evenodd" opacity="1">
        <g id="Services-bigger-title" transform="translate(-214.000000, -3045.000000)" fill="#949494">
            <path d="M268.015625,3122.29687 C268.015625,3127.64065 266.878918,3132.36326 264.605469,3136.46484 C262.33202,3140.56643 259.132833,3143.78905 255.007812,3146.13281 C250.882792,3148.47657 246.242213,3149.64844 241.085938,3149.64844 C235.929662,3149.64844 231.289083,3148.47657 227.164062,3146.13281 C223.039042,3143.78905 219.839855,3140.56643 217.566406,3136.46484 C215.292957,3132.36326 214.15625,3127.64065 214.15625,3122.29687 L214.15625,3072.79687 C214.15625,3068.85936 214.824212,3065.20314 216.160156,3061.82812 C217.4961,3058.45311 219.347644,3055.53517 221.714844,3053.07422 C224.082043,3050.61327 226.917952,3048.72657 230.222656,3047.41406 C233.52736,3046.10156 237.148418,3045.44531 241.085938,3045.44531 C245.070332,3045.44531 248.714827,3046.10156 252.019531,3047.41406 C255.324235,3048.72657 258.171863,3050.61327 260.5625,3053.07422 C262.953137,3055.53517 264.792962,3058.45311 266.082031,3061.82812 C267.3711,3065.20314 268.015625,3068.85936 268.015625,3072.79687 L268.015625,3122.29687 Z M260.703125,3121.59375 L260.703125,3073.5 C260.703125,3067.17184 258.980486,3061.99221 255.535156,3057.96094 C252.089827,3053.92967 247.273468,3051.91406 241.085938,3051.91406 C234.945282,3051.91406 230.152361,3053.92967 226.707031,3057.96094 C223.261702,3061.99221 221.539062,3067.17184 221.539062,3073.5 L221.539062,3121.59375 C221.539062,3127.92191 223.261702,3133.10154 226.707031,3137.13281 C230.152361,3141.16408 234.945282,3143.17969 241.085938,3143.17969 C247.273468,3143.17969 252.089827,3141.16408 255.535156,3137.13281 C258.980486,3133.10154 260.703125,3127.92191 260.703125,3121.59375 Z M343.109375,3115.26562 C343.109375,3121.45316 342.605474,3126.7031 341.597656,3131.01562 C340.589839,3135.32815 338.445329,3139.14842 335.164062,3142.47656 C330.195288,3147.35159 323.609416,3149.78906 315.40625,3149.78906 C306.687456,3149.78906 300.125022,3147.49221 295.71875,3142.89844 C291.68748,3138.86717 289.390628,3133.2891 288.828125,3126.16406 L296.140625,3126.16406 C296.843754,3131.78909 298.777328,3136.05467 301.941406,3138.96094 C305.105485,3141.8672 309.593721,3143.32031 315.40625,3143.32031 C318.171889,3143.32031 320.843737,3142.85157 323.421875,3141.91406 C326.000013,3140.97656 328.039055,3139.71095 329.539062,3138.11719 C332.210951,3135.4453 333.910153,3132.30471 334.636719,3128.69531 C335.363285,3125.08592 335.726562,3120.6094 335.726562,3115.26562 C335.726562,3107.20308 334.425794,3100.62893 331.824219,3095.54297 C329.222643,3090.45701 324.148475,3087.91406 316.601562,3087.91406 C311.914039,3087.91406 307.906267,3088.86327 304.578125,3090.76172 C301.249983,3092.66017 299.070318,3095.29686 298.039062,3098.67187 L291.5,3098.67187 L291.5,3046.28906 L340.789062,3046.28906 L340.789062,3052.75781 L298.039062,3052.75781 L298.039062,3089.03906 C302.351584,3083.97654 308.820269,3081.44531 317.445312,3081.44531 C324.94535,3081.44531 330.710917,3083.50779 334.742188,3087.63281 C338.023454,3090.91408 340.238276,3094.87498 341.386719,3099.51562 C342.535162,3104.15627 343.109375,3109.40622 343.109375,3115.26562 Z" id="05"></path>
        </g>
    </g>
</svg>
