<?xml version="1.0" encoding="UTF-8"?>
<svg width="129px" height="105px" viewBox="0 0 129 105" version="1.1" xmlns="http://www.w3.org/2000/svg" xmlns:xlink="http://www.w3.org/1999/xlink">
    <!-- Generator: Sketch 42 (36781) - http://www.bohemiancoding.com/sketch -->
    <title>06</title>
    <desc>Created with Sketch.</desc>
    <defs></defs>
    <g id="Page-4" stroke="none" stroke-width="1" fill="none" fill-rule="evenodd" opacity="1">
        <g id="Services-skinny-rectangles" transform="translate(-307.000000, -3014.000000)" fill="#949494">
            <path d="M360.914062,3091.37621 C360.914062,3096.71999 359.777355,3101.4426 357.503906,3105.54418 C355.230457,3109.64576 352.031271,3112.86839 347.90625,3115.21215 C343.781229,3117.55591 339.140651,3118.72778 333.984375,3118.72778 C328.828099,3118.72778 324.187521,3117.55591 320.0625,3115.21215 C315.937479,3112.86839 312.738293,3109.64576 310.464844,3105.54418 C308.191395,3101.4426 307.054688,3096.71999 307.054688,3091.37621 L307.054688,3041.87621 C307.054688,3037.93869 307.72265,3034.28248 309.058594,3030.90746 C310.394538,3027.53245 312.246082,3024.61451 314.613281,3022.15356 C316.980481,3019.69261 319.81639,3017.80591 323.121094,3016.4934 C326.425798,3015.18089 330.046855,3014.52465 333.984375,3014.52465 C337.96877,3014.52465 341.613265,3015.18089 344.917969,3016.4934 C348.222673,3017.80591 351.070301,3019.69261 353.460938,3022.15356 C355.851574,3024.61451 357.6914,3027.53245 358.980469,3030.90746 C360.269538,3034.28248 360.914062,3037.93869 360.914062,3041.87621 L360.914062,3091.37621 Z M353.601562,3090.67309 L353.601562,3042.57934 C353.601562,3036.25118 351.878923,3031.07155 348.433594,3027.04028 C344.988264,3023.00901 340.171906,3020.9934 333.984375,3020.9934 C327.843719,3020.9934 323.050798,3023.00901 319.605469,3027.04028 C316.160139,3031.07155 314.4375,3036.25118 314.4375,3042.57934 L314.4375,3090.67309 C314.4375,3097.00124 316.160139,3102.18088 319.605469,3106.21215 C323.050798,3110.24342 327.843719,3112.25903 333.984375,3112.25903 C340.171906,3112.25903 344.988264,3110.24342 348.433594,3106.21215 C351.878923,3102.18088 353.601562,3097.00124 353.601562,3090.67309 Z M435.585938,3088.91528 C435.585938,3092.99342 434.988287,3096.83713 433.792969,3100.44653 C432.59765,3104.05592 430.839855,3107.24339 428.519531,3110.00903 C426.199207,3112.77466 423.339861,3114.91917 419.941406,3116.44262 C416.542952,3117.96606 412.710959,3118.72778 408.445312,3118.72778 C400.00777,3118.72778 393.363306,3116.06765 388.511719,3110.74731 C383.660132,3105.42697 381.234375,3098.50126 381.234375,3089.96996 C381.234375,3086.64182 381.667964,3083.32545 382.535156,3080.02074 C383.402348,3076.71604 384.890614,3072.88405 387,3068.52465 L413.367188,3015.3684 L420.75,3015.3684 L397.125,3062.75903 C400.500017,3061.11839 404.484352,3060.29809 409.078125,3060.29809 C414.562527,3060.29809 419.308574,3061.5637 423.316406,3064.09496 C427.324239,3066.62623 430.371083,3070.04807 432.457031,3074.36059 C434.542979,3078.67311 435.585938,3083.52462 435.585938,3088.91528 Z M428.203125,3089.54809 C428.203125,3083.03243 426.457049,3077.6067 422.964844,3073.27074 C419.472639,3068.93479 414.585969,3066.76684 408.304688,3066.76684 C402.257782,3066.76684 397.464861,3068.8176 393.925781,3072.91918 C390.386701,3077.02076 388.617188,3082.56368 388.617188,3089.54809 C388.617188,3096.43875 390.386701,3101.94651 393.925781,3106.07153 C397.464861,3110.19655 402.257782,3112.25903 408.304688,3112.25903 C412.242207,3112.25903 415.73436,3111.30982 418.78125,3109.41137 C421.82814,3107.51292 424.160148,3104.86451 425.777344,3101.46606 C427.394539,3098.0676 428.203125,3094.09499 428.203125,3089.54809 Z" id="06"></path>
        </g>
    </g>
</svg>
