<?xml version="1.0" encoding="utf-8"?>
<!-- Generator: Adobe Illustrator 21.0.2, SVG Export Plug-In . SVG Version: 6.00 Build 0)  -->
<svg version="1.1" id="Layer_1" xmlns="http://www.w3.org/2000/svg" xmlns:xlink="http://www.w3.org/1999/xlink" x="0px" y="0px"
	 viewBox="0 0 70 76" style="enable-background:new 0 0 70 76;" xml:space="preserve">
<style type="text/css">
	.st0{fill:url(#SVGID_1_);}
	.st1{fill:url(#SVGID_2_);}
</style>
<title>computer</title>
<desc>Created with Sketch.</desc>
<linearGradient id="SVGID_1_" gradientUnits="userSpaceOnUse" x1="0.4696" y1="1.716418e-03" x2="68.4696" y2="75.7517">
	<stop  offset="0" style="stop-color:#1D9AD7"/>
	<stop  offset="1" style="stop-color:#A6449F"/>
</linearGradient>
<path class="st0" d="M63.5,13.6H48.8c-0.8,0-1.5,0.7-1.5,1.5c0,0.8,0.7,1.5,1.5,1.5h14.7c1.7,0,3,1.3,3,3v37.7c0,1.7-1.3,3-3,3H6.5
	c-1.7,0-3-1.3-3-3V19.6c0-1.7,1.3-3,3-3h14.9c0.8,0,1.5-0.7,1.5-1.5c0-0.8-0.7-1.5-1.5-1.5H6.5c-3.3,0-6,2.7-6,6v37.7
	c0,3.3,2.7,6,6,6h27v9.1H20.9c-0.8,0-1.5,0.7-1.5,1.5c0,0.8,0.7,1.5,1.5,1.5h28.2c0.8,0,1.5-0.7,1.5-1.5c0-0.8-0.7-1.5-1.5-1.5H36.5
	v-9.1h27c3.3,0,6-2.7,6-6V19.6C69.5,16.3,66.8,13.6,63.5,13.6L63.5,13.6z M63.5,13.6"/>
<linearGradient id="SVGID_2_" gradientUnits="userSpaceOnUse" x1="8.0758" y1="-6.8263" x2="76.0758" y2="68.9237">
	<stop  offset="0" style="stop-color:#1D9AD7"/>
	<stop  offset="1" style="stop-color:#A6449F"/>
</linearGradient>
<path class="st1" d="M43.6,6.5c0-3.3-2.7-6-6-6h-5.2c-3.3,0-6,2.7-6,6V10c0,0.1,0,0.2,0,0.3c0,0.1,0,0.2,0,0.3v29.6
	c0,0.3,0.1,0.7,0.3,0.9l7,9.2c0.3,0.4,0.7,0.6,1.2,0.6c0.5,0,0.9-0.2,1.2-0.6l7-9.2c0.2-0.3,0.3-0.6,0.3-0.9V10.5c0-0.1,0-0.2,0-0.2
	c0-0.1,0-0.2,0-0.2L43.6,6.5L43.6,6.5z M29.5,11.5h4v26.9h-4V11.5z M35,46.9l-4.2-5.5h8.3L35,46.9z M40.5,38.4h-4V11.5h4V38.4z
	 M40.5,8.5h-11V6.5c0-1.6,1.3-2.9,2.9-2.9h5.2c1.6,0,2.9,1.3,2.9,2.9L40.5,8.5L40.5,8.5z M40.5,8.5"/>
</svg>
