<?xml version="1.0" encoding="utf-8"?>
<!-- Generator: Adobe Illustrator 21.0.2, SVG Export Plug-In . SVG Version: 6.00 Build 0)  -->
<svg version="1.1" id="Layer_1" xmlns="http://www.w3.org/2000/svg" xmlns:xlink="http://www.w3.org/1999/xlink" x="0px" y="0px"
	 viewBox="0 0 82 75" style="enable-background:new 0 0 82 75;" xml:space="preserve">
<style type="text/css">
	.st0{fill:url(#Fill-5_1_);}
	.st1{fill:url(#Fill-1_1_);}
	.st2{fill:url(#Fill-2_1_);}
	.st3{fill:url(#Fill-3_1_);}
</style>
<g>
	<linearGradient id="Fill-5_1_" gradientUnits="userSpaceOnUse" x1="-2.678560e-03" y1="-0.3584" x2="81.7105" y2="75.2135">
		<stop  offset="0" style="stop-color:#1D9AD7"/>
		<stop  offset="1" style="stop-color:#A6449F"/>
	</linearGradient>
	<path id="Fill-5" class="st0" d="M77.5,30.7h-0.4V5.8c0-3.2-2.6-5.8-5.8-5.8H7.2C4,0,1.4,2.6,1.4,5.8v34.3c0,3.2,2.6,5.8,5.8,5.8
		h27.6l-1.3,4.3c-0.7-0.4-1.4-0.7-2.3-0.7H4.7c-2.3,0-4.1,1.8-4.1,4.1V66c0,2.3,1.8,4.1,4.1,4.1h26.6c2.3,0,4.1-1.8,4.1-4.1v-0.8
		h13.9v5.7c0,2.3,1.8,4.1,4.1,4.1h24c2.3,0,4.1-1.8,4.1-4.1V34.8C81.6,32.5,79.8,30.7,77.5,30.7z M78.9,34.8v30.8H52.1V34.8
		c0-0.8,0.6-1.4,1.4-1.4h24C78.3,33.4,78.9,34,78.9,34.8z M49.4,49v6.7l-1.1-0.2c-1.1-0.2-2.1-1.1-2.3-2.2l-1.8-7.4h5.2V49z
		 M7.2,2.7h64.1c1.7,0,3,1.4,3,3v24.9H53.5c-2.1,0-3.8,1.6-4.1,3.6H4.2V5.8C4.2,4.1,5.5,2.7,7.2,2.7z M7.2,43.1c-1.7,0-3-1.4-3-3v-3
		h45.2v6H7.2z M3.3,66V53.5c0-0.8,0.6-1.4,1.4-1.4h22.7v15.2H4.7C3.9,67.4,3.3,66.8,3.3,66z M32.7,66c0,0.8-0.6,1.4-1.4,1.4h-1.2
		V52.2h1.2c0.8,0,1.4,0.6,1.4,1.4V66z M35.4,62.5v-9c0-0.2,0-0.4-0.1-0.6c0.2-0.2,0.4-0.4,0.4-0.6l1.9-6.5h3.6l2,8.1
		c0.5,2.2,2.3,3.9,4.5,4.3l1.6,0.3v4H35.4z M77.5,72.3h-24c-0.8,0-1.4-0.6-1.4-1.4v-2.5h26.8v2.5C78.9,71.6,78.3,72.3,77.5,72.3z"/>
	<linearGradient id="Fill-1_1_" gradientUnits="userSpaceOnUse" x1="6.5858" y1="-7.4823" x2="88.299" y2="68.0896">
		<stop  offset="0" style="stop-color:#1D9AD7"/>
		<stop  offset="1" style="stop-color:#A6449F"/>
	</linearGradient>
	<path id="Fill-1" class="st1" d="M71.7,43l-9.1,9.1l-2.2-2.2c-0.5-0.5-1.4-0.5-1.9,0c-0.5,0.5-0.5,1.4,0,1.9l3.2,3.2
		c0.3,0.3,0.6,0.4,1,0.4c0.3,0,0.7-0.1,1-0.4l10.1-10.1c0.5-0.5,0.5-1.4,0-1.9C73.1,42.5,72.3,42.5,71.7,43z"/>
	<linearGradient id="Fill-2_1_" gradientUnits="userSpaceOnUse" x1="10.591" y1="-11.813" x2="92.3042" y2="63.759">
		<stop  offset="0" style="stop-color:#1D9AD7"/>
		<stop  offset="1" style="stop-color:#A6449F"/>
	</linearGradient>
	<path id="Fill-2" class="st2" d="M37.1,25.2c0.3,0.3,0.6,0.4,1,0.4c0.4,0,0.7-0.1,1-0.4l11.1-11.1c0.5-0.5,0.5-1.4,0-1.9
		c-0.5-0.5-1.4-0.5-1.9,0L38.1,22.3l-2.6-2.6c-0.5-0.5-1.4-0.5-1.9,0c-0.5,0.5-0.5,1.4,0,1.9L37.1,25.2z"/>
	<linearGradient id="Fill-3_1_" gradientUnits="userSpaceOnUse" x1="-21.5206" y1="22.9081" x2="60.1926" y2="98.48">
		<stop  offset="0" style="stop-color:#1D9AD7"/>
		<stop  offset="1" style="stop-color:#A6449F"/>
	</linearGradient>
	<path id="Fill-3" class="st3" d="M22.7,55.4c-0.5-0.5-1.4-0.5-1.9,0l-5.8,5.8L13.7,60c-0.5-0.5-1.4-0.5-1.9,0
		c-0.5,0.5-0.5,1.4,0,1.9l2.2,2.2c0.3,0.3,0.6,0.4,1,0.4c0.4,0,0.7-0.1,1-0.4l6.8-6.8C23.2,56.8,23.2,55.9,22.7,55.4z"/>
</g>
</svg>
