<?xml version="1.0" encoding="utf-8"?>
<!-- Generator: Adobe Illustrator 21.0.2, SVG Export Plug-In . SVG Version: 6.00 Build 0)  -->
<svg version="1.1" id="Layer_1" xmlns="http://www.w3.org/2000/svg" xmlns:xlink="http://www.w3.org/1999/xlink" x="0px" y="0px"
	 viewBox="0 0 52 75" style="enable-background:new 0 0 52 75;" xml:space="preserve">
<style type="text/css">
	.st0{filter:url(#Adobe_OpacityMaskFilter);}
	.st1{fill:#FFFFFF;}
	.st2{mask:url(#mask-2);fill:url(#Fill-1_1_);}
	.st3{fill:url(#Fill-4_1_);}
	.st4{fill:url(#Fill-5_1_);}
	.st5{fill:url(#Fill-6_1_);}
	.st6{fill:url(#Fill-8_1_);}
	.st7{fill:url(#Fill-10_1_);}
	.st8{fill:url(#Fill-11_1_);}
</style>
<defs>
	<filter id="Adobe_OpacityMaskFilter" filterUnits="userSpaceOnUse" x="0.6" y="13.2" width="50.8" height="61.8">
		<feColorMatrix  type="matrix" values="1 0 0 0 0  0 1 0 0 0  0 0 1 0 0  0 0 0 1 0"/>
	</filter>
</defs>
<mask maskUnits="userSpaceOnUse" x="0.6" y="13.2" width="50.8" height="61.8" id="mask-2">
	<g class="st0">
		<polygon id="path-1" class="st1" points="0.6,13.2 0.6,75 26,75 51.4,75 51.4,13.2 		"/>
	</g>
</mask>
<linearGradient id="Fill-1_1_" gradientUnits="userSpaceOnUse" x1="-4.1011" y1="3.0437" x2="47.5239" y2="77.7937">
	<stop  offset="0" style="stop-color:#1D9AD7"/>
	<stop  offset="0.9327" style="stop-color:#A6449F"/>
</linearGradient>
<path id="Fill-1" class="st2" d="M46.5,75c-0.7,0-1.2-0.5-1.2-1.2v-2.5c0-0.2,0.1-0.5,0.2-0.7c0.6-0.9,1.1-1.5,1.6-2
	c2-2.3,2-2.3,2-9.8l-0.1-17.2c0-1.7-1.2-3.7-3-3.7c-1.6,0-3.2,1.9-3.2,3.7v4.9c0,0.7-0.5,1.2-1.2,1.2c-0.7,0-1.2-0.5-1.2-1.2v-9.9
	c0-1.7-1.2-3.7-3-3.7c-1.6,0-3.2,1.9-3.2,3.7v7.4c0,0.7-0.5,1.2-1.2,1.2s-1.2-0.5-1.2-1.2V31.8c0-1.7-1.2-3.7-3-3.7
	c-1.6,0-3.2,1.9-3.2,3.7v11.1c0,0.7-0.5,1.2-1.2,1.2c-0.7,0-1.2-0.5-1.2-1.2V19.4c0-1.7-1.2-3.7-3-3.7c-1.6,0-3.2,1.9-3.2,3.7v30.9
	c0,0.7-0.5,1.2-1.2,1.2c-0.7,0-1.2-0.5-1.2-1.2c0-3.1-2.7-9.8-5.7-12.7c-1.4-1.4-3.8-1.4-4.9-0.5c-1.1,1-0.1,2.8,0.6,3.8
	c2.8,4,4.1,11.6,4.9,16.6l0.2,1.2c1.7,9.9,7.3,11.3,7.5,11.4c0.6,0.1,1,0.6,1,1.2v2.5c0,0.7-0.5,1.2-1.2,1.2c-0.7,0-1.2-0.5-1.2-1.2
	v-1.6c-2.1-0.9-6.9-3.8-8.5-13L6.8,58c-0.7-4.5-2-12-4.6-15.6c-3.1-4.2-1-6.6-0.2-7.2c2.2-1.9,6.1-1.6,8.3,0.6
	c1.6,1.5,3,3.6,4.1,5.8V19.4c0-3,2.5-6.2,5.7-6.2c3.2,0,5.4,3.2,5.4,6.2v7.4c0.9-0.7,2-1.2,3.2-1.2c3.2,0,5.4,3.2,5.4,6.2
	c0.9-0.7,2-1.2,3.2-1.2c3.2,0,5.4,3.2,5.4,6.2c0.9-0.7,2-1.2,3.2-1.2c3.2,0,5.4,3.2,5.4,6.2v17.2c0,7.9,0,8.2-2.5,11.3
	c-0.4,0.5-0.7,1-1.2,1.6v2.1C47.7,74.5,47.2,75,46.5,75"/>
<linearGradient id="Fill-4_1_" gradientUnits="userSpaceOnUse" x1="-10.5139" y1="7.4726" x2="41.1111" y2="82.2226">
	<stop  offset="0" style="stop-color:#1D9AD7"/>
	<stop  offset="0.9327" style="stop-color:#A6449F"/>
</linearGradient>
<path id="Fill-4" class="st3" d="M32.9,68.8h-3.7c-0.7,0-1.2-0.5-1.2-1.2s0.5-1.2,1.2-1.2h3.7c0.7,0,1.2,0.5,1.2,1.2
	S33.6,68.8,32.9,68.8"/>
<linearGradient id="Fill-5_1_" gradientUnits="userSpaceOnUse" x1="-12.8266" y1="9.0699" x2="38.7984" y2="83.8199">
	<stop  offset="0" style="stop-color:#1D9AD7"/>
	<stop  offset="0.9327" style="stop-color:#A6449F"/>
</linearGradient>
<path id="Fill-5" class="st4" d="M34.1,73.8h-6.2c-0.7,0-1.2-0.5-1.2-1.2s0.5-1.2,1.2-1.2h6.2c0.7,0,1.2,0.5,1.2,1.2
	S34.9,73.8,34.1,73.8"/>
<linearGradient id="Fill-6_1_" gradientUnits="userSpaceOnUse" x1="4.7731" y1="-3.0851" x2="56.3981" y2="71.6649">
	<stop  offset="0" style="stop-color:#1D9AD7"/>
	<stop  offset="0.9327" style="stop-color:#A6449F"/>
</linearGradient>
<path id="Fill-6" class="st5" d="M10.4,23.1c-0.5,0-1-0.4-1.2-0.9c-0.2-0.9-0.4-1.9-0.4-2.8c0-6.2,4.9-11.1,11.1-11.1
	c6.2,0,11.1,4.9,11.1,11.1c0,0.9-0.1,1.9-0.4,2.7c-0.1,0.6-0.9,1.1-1.5,0.9c-0.6-0.1-1.1-0.9-0.9-1.5c0.1-0.7,0.2-1.4,0.2-2.1
	c0-4.8-3.8-8.7-8.7-8.7s-8.7,3.8-8.7,8.7c0,0.7,0.1,1.5,0.2,2.2c0.1,0.6-0.2,1.4-0.9,1.5H10.4"/>
<linearGradient id="Fill-8_1_" gradientUnits="userSpaceOnUse" x1="11.0204" y1="-7.3997" x2="62.6454" y2="67.3503">
	<stop  offset="0" style="stop-color:#1D9AD7"/>
	<stop  offset="0.9327" style="stop-color:#A6449F"/>
</linearGradient>
<path id="Fill-8" class="st6" d="M21.7,5.8c-0.4,0-0.6-0.1-0.9-0.4l-1.6-1.6l-1.6,1.6c-0.5,0.5-1.2,0.5-1.7,0
	c-0.5-0.5-0.5-1.2,0-1.7l2.5-2.5c0.5-0.5,1.2-0.5,1.7,0l2.5,2.5c0.5,0.5,0.5,1.2,0,1.7C22.4,5.7,22.1,5.8,21.7,5.8"/>
<linearGradient id="Fill-10_1_" gradientUnits="userSpaceOnUse" x1="-4.4885" y1="3.3112" x2="47.1365" y2="78.0612">
	<stop  offset="0" style="stop-color:#1D9AD7"/>
	<stop  offset="0.9327" style="stop-color:#A6449F"/>
</linearGradient>
<path id="Fill-10" class="st7" d="M4.4,19.4c-0.4,0-0.6-0.1-0.9-0.4l-2.5-2.5c-0.5-0.5-0.5-1.2,0-1.7l2.5-2.5c0.5-0.5,1.2-0.5,1.7,0
	c0.5,0.5,0.5,1.2,0,1.7l-1.6,1.6l1.6,1.6c0.5,0.5,0.5,1.2,0,1.7C5.1,19.3,4.8,19.4,4.4,19.4"/>
<linearGradient id="Fill-11_1_" gradientUnits="userSpaceOnUse" x1="16.959" y1="-11.5011" x2="68.584" y2="63.2489">
	<stop  offset="0" style="stop-color:#1D9AD7"/>
	<stop  offset="0.9327" style="stop-color:#A6449F"/>
</linearGradient>
<path id="Fill-11" class="st8" d="M35.3,19.4c-0.4,0-0.6-0.1-0.9-0.4c-0.5-0.5-0.5-1.2,0-1.7l1.6-1.6l-1.6-1.6
	c-0.5-0.5-0.5-1.2,0-1.7c0.5-0.5,1.2-0.5,1.7,0l2.5,2.5c0.5,0.5,0.5,1.2,0,1.7L36.2,19C36,19.3,35.7,19.4,35.3,19.4"/>
</svg>
