<?xml version="1.0" encoding="utf-8"?>
<!-- Generator: Adobe Illustrator 21.0.2, SVG Export Plug-In . SVG Version: 6.00 Build 0)  -->
<svg version="1.1" id="Layer_1" xmlns="http://www.w3.org/2000/svg" xmlns:xlink="http://www.w3.org/1999/xlink" x="0px" y="0px"
	 viewBox="0 0 57 75" style="enable-background:new 0 0 57 75;" xml:space="preserve">
<style type="text/css">
	.st0{fill:url(#Fill-2_1_);}
	.st1{fill:url(#Fill-3_1_);}
	.st2{fill:url(#Fill-5_1_);}
</style>
<g id="Page-4">
	<g id="Services-bigger-title" transform="translate(-243.000000, -2050.000000)">
		<linearGradient id="Fill-2_1_" gradientUnits="userSpaceOnUse" x1="249.9771" y1="2045.1311" x2="306.4771" y2="2119.3811">
			<stop  offset="0" style="stop-color:#1D9AD7"/>
			<stop  offset="0.9327" style="stop-color:#A6449F"/>
		</linearGradient>
		<path id="Fill-2" class="st0" d="M285,2096.1c2.7,0,4.9-2.2,4.9-5c0-2.7-2.2-4.9-4.9-4.9c-2.7,0-5,2.2-5,4.9
			C280,2093.9,282.3,2096.1,285,2096.1z M285,2088.7c1.4,0,2.5,1.1,2.5,2.5s-1.1,2.5-2.5,2.5c-1.4,0-2.5-1.1-2.5-2.5
			S283.6,2088.7,285,2088.7z"/>
		<g id="Group-6">
			<linearGradient id="Fill-3_1_" gradientUnits="userSpaceOnUse" x1="245.669" y1="2048.4092" x2="302.169" y2="2122.6592">
				<stop  offset="0" style="stop-color:#1D9AD7"/>
				<stop  offset="0.9327" style="stop-color:#A6449F"/>
			</linearGradient>
			<path id="Fill-3" class="st1" d="M255.3,2065.2c0.3,0,0.6-0.1,0.9-0.4l2.5-2.5c0.5-0.5,0.5-1.3,0-1.8c-0.5-0.5-1.3-0.5-1.8,0
				l-2.5,2.5c-0.5,0.5-0.5,1.3,0,1.8C254.7,2065,255,2065.2,255.3,2065.2z"/>
			<linearGradient id="Fill-5_1_" gradientUnits="userSpaceOnUse" x1="244.0351" y1="2049.6526" x2="300.5351" y2="2123.9026">
				<stop  offset="0" style="stop-color:#1D9AD7"/>
				<stop  offset="0.9327" style="stop-color:#A6449F"/>
			</linearGradient>
			<path id="Fill-5" class="st2" d="M299.8,2087.1c0-1.1-0.4-2.1-1.2-2.9l-0.7-0.7c1.2-1,1.9-2.5,1.9-4.2c0-3.1-2.5-5.6-5.6-5.6
				c-0.2,0-0.4,0-0.7,0c0-0.2,0-0.4,0-0.7c0-3.1-2.5-5.6-5.6-5.6c-0.2,0-0.4,0-0.7,0c0-0.2,0-0.4,0-0.7c0-3.1-2.5-5.6-5.6-5.6
				c-0.2,0-0.4,0-0.7,0c0-0.2,0-0.4,0-0.7c0-3.1-2.5-5.6-5.6-5.6c-1.6,0-3.1,0.7-4.2,1.9l-1-1l-4.7-4.7c-1.6-1.6-4.2-1.6-5.8,0
				l-15.2,15.2c-1.6,1.6-1.6,4.2,0,5.8l10.7,10.7c-1.7,1-2.8,2.7-2.8,4.8c0,1.9,1,3.6,2.5,4.6c0.1,0.1,0.2,0.2,0.3,0.3l13.3,13.3
				v2.2h-2.5v16.1h32.2v-16.1h-2.5v-3.8c2.4-2,3.7-4.9,3.7-8c0-2.2-0.7-4.2-1.9-6l0.7-0.7C299.4,2089.2,299.8,2088.2,299.8,2087.1z
				 M297.4,2079.4c0,0.9-0.4,1.8-1.2,2.4l-4.3-4.3c0.6-0.7,1.5-1.2,2.4-1.2C296,2076.3,297.4,2077.7,297.4,2079.4z M291.2,2073.2
				c0,0.9-0.4,1.8-1.2,2.4l-4.3-4.3c0.6-0.7,1.5-1.2,2.4-1.2C289.8,2070.1,291.2,2071.5,291.2,2073.2z M285,2067
				c0,0.9-0.4,1.8-1.2,2.4l-4.3-4.3c0.6-0.7,1.5-1.2,2.4-1.2C283.6,2063.9,285,2065.3,285,2067z M275.7,2057.7
				c1.7,0,3.1,1.4,3.1,3.1c0,0.9-0.4,1.8-1.2,2.4l-4.3-4.3C273.9,2058.2,274.8,2057.7,275.7,2057.7z M246.7,2070.8
				c-0.6-0.6-0.6-1.6,0-2.3l15.2-15.2c0.2-0.2,0.3-0.3,0.5-0.4c0.1,0,0.2,0,0.3-0.1c0.2,0,0.4,0,0.7,0c0.1,0,0.2,0,0.3,0.1
				c0.2,0.1,0.4,0.2,0.5,0.4l2.9,2.9l-17.5,17.5L246.7,2070.8z M268.8,2057.9l28.1,28.1c0.6,0.6,0.6,1.6,0,2.3l-0.5,0.5l-14.7,14.7
				c-0.6,0.6-1.6,0.6-2.3,0l-9.9-9.9h1.2c3.1,0,5.6-2.5,5.6-5.6c0-3.1-2.5-5.6-5.6-5.6h-12.4l-7.1-7.1L268.8,2057.9z M257.7,2085
				l0.5-0.1c0,0,0.1,0,0.2,0h12.4c1.7,0,3.1,1.4,3.1,3.1c0,1.7-1.4,3.1-3.1,3.1h-12.4c-1.7,0-3.1-1.4-3.1-3.1
				C255.3,2086.6,256.3,2085.3,257.7,2085z M268.9,2122.1V2111h10.4c3.8,0,6.9,3.1,6.9,6.9v4.2H268.9z M296.1,2122.1h-7.4v-4.2
				c0-2.7-1.2-5.2-3.1-6.9h10.5V2122.1z M296.2,2092.5c0.8,1.3,1.2,2.7,1.2,4.2c0,2.5-1.2,4.9-3.2,6.4l-0.5,0.4v5h-22.3v-3.4
				l-0.4-0.4c-0.1,0-0.1-0.1-0.2-0.2l-11-10.9h6.3l11.6,11.6c0.8,0.8,1.8,1.2,2.9,1.2c1,0,2.1-0.4,2.9-1.2L296.2,2092.5z"/>
		</g>
	</g>
</g>
</svg>
