<?xml version="1.0" encoding="UTF-8" standalone="no"?>
<svg width="56px" height="90px" viewBox="0 0 56 90" version="1.1" xmlns="http://www.w3.org/2000/svg" xmlns:xlink="http://www.w3.org/1999/xlink">
    <!-- Generator: Sketch 42 (36781) - http://www.bohemiancoding.com/sketch -->
    <title>ic-launch</title>
    <desc>Created with Sketch.</desc>
    <defs></defs>
    <g id="Workspace" stroke="none" stroke-width="1" fill="none" fill-rule="evenodd">
        <g id="About-Us-Copy" transform="translate(-773.000000, -3080.000000)">
            <g id="ic-launch" transform="translate(755.000000, 3080.000000)">
                <g id="Group" transform="translate(19.701031, 1.876289)" stroke="#1D9AD7" stroke-width="4">
                    <path d="M9.07260619,39.8444907 C6.2510433,43.4011835 0.973793814,51.1292412 0.82556701,59.3271216 L10.7353732,54.8236536" id="Shape"></path>
                    <path d="M43.1452577,39.5855629 C45.9056536,43.0150433 51.4455835,50.9239753 51.5998144,59.3259959 L41.6870062,54.8244041" id="Shape"></path>
                    <path d="M26.1704742,0.479954639 C18.9929196,0.478453608 13.7449402,12.8664619 13.7483175,19.3974474 L17.642367,55.2713361 C17.6892742,55.9370433 18.2416536,56.4552742 18.9073608,56.4552742 L33.4335876,56.4552742 C34.0992948,56.4552742 34.6516742,55.9385443 34.7019588,55.2713361 L38.5945072,19.3118887 C38.5960082,12.8683381 33.3480289,0.478453608 26.1704742,0.479954639 L26.1704742,0.479954639 Z" id="Shape"></path>
                    <ellipse id="Oval" cx="26.1712247" cy="23.8480041" rx="4.94289485" ry="4.94289485"></ellipse>
                    <path d="M29.8089732,63.1228536 C28.7924,66.2307381 27.5307835,68.6327629 26.1704742,68.6327629 C24.8067876,68.6327629 23.5470474,66.2311134 22.5282227,63.1228536 C21.0170598,63.8422227 20.0361361,65.1728866 20.0361361,67.3940371 C20.0361361,71.1083381 22.7826474,85.9126309 26.1667216,85.9145072 C29.5571753,85.9130062 32.3025608,71.1068371 32.3025608,67.3959134 C32.3029361,65.1728866 31.3186351,63.8422227 29.8089732,63.1228536 L29.8089732,63.1228536 Z" id="Shape"></path>
                </g>
                <rect id="Rectangle-path" x="0.886734021" y="0.000750515464" width="90.0618557" height="90.0618557"></rect>
            </g>
        </g>
    </g>
</svg>