<?xml version="1.0" encoding="utf-8"?>
<!-- Generator: Adobe Illustrator 21.0.2, SVG Export Plug-In . SVG Version: 6.00 Build 0)  -->
<svg version="1.1" id="Layer_1" xmlns="http://www.w3.org/2000/svg" xmlns:xlink="http://www.w3.org/1999/xlink" x="0px" y="0px"
	 viewBox="0 0 78 76" style="enable-background:new 0 0 78 76;" xml:space="preserve">
<style type="text/css">
	.st0{fill:url(#SVGID_1_);}
	.st1{fill:url(#SVGID_2_);}
	.st2{fill:url(#SVGID_3_);}
	.st3{fill:url(#SVGID_4_);}
</style>
<title>like</title>
<desc>Created with Sketch.</desc>
<g id="Fill-1">
	<linearGradient id="SVGID_1_" gradientUnits="userSpaceOnUse" x1="-5.6926" y1="6.6079" x2="71.1407" y2="82.2746">
		<stop  offset="0" style="stop-color:#1D9AD7"/>
		<stop  offset="0.9327" style="stop-color:#A6449F"/>
	</linearGradient>
	<path class="st0" d="M71.8,52.5c-0.5-0.2-1,0-1.2,0.5c-1.2,3-4.1,4.9-7.2,4.9h-30c-0.2,0-0.5,0.1-0.6,0.3L18.1,72.2V58.9
		c0-0.5-0.4-0.9-0.9-0.9h-6.9c-4.3,0-7.8-3.5-7.8-7.8V17.9c0-4.3,3.5-7.8,7.8-7.8h32.5c0.5,0,0.9-0.4,0.9-0.9c0-0.5-0.4-0.9-0.9-0.9
		H10.3c-5.3,0-9.7,4.3-9.7,9.7v32.4c0,5.3,4.3,9.7,9.7,9.7h5.9v14.5c0,0.4,0.2,0.7,0.6,0.9c0.1,0,0.3,0.1,0.4,0.1
		c0.2,0,0.5-0.1,0.7-0.3l15.9-15.2h29.6c3.9,0,7.5-2.5,9-6.1C72.5,53.3,72.3,52.7,71.8,52.5z"/>
	<linearGradient id="SVGID_2_" gradientUnits="userSpaceOnUse" x1="-6.0163" y1="6.3793" x2="71.6087" y2="82.6293">
		<stop  offset="0" style="stop-color:#1D9AD7"/>
		<stop  offset="0.9327" style="stop-color:#A6449F"/>
	</linearGradient>
	<path class="st1" d="M17.2,75.8c-0.2,0-0.4,0-0.6-0.1c-0.5-0.2-0.9-0.7-0.9-1.3v-14h-5.4c-5.6,0-10.2-4.6-10.2-10.2V17.9
		c0-5.6,4.6-10.2,10.2-10.2h32.5c0.8,0,1.4,0.6,1.4,1.4s-0.6,1.4-1.4,1.4H10.3c-4,0-7.3,3.3-7.3,7.3v32.4c0,4,3.3,7.3,7.3,7.3h6.9
		c0.8,0,1.4,0.6,1.4,1.4V71l13.7-13.1c0.3-0.3,0.6-0.4,1-0.4h30c3,0,5.7-1.9,6.8-4.6c0.3-0.7,1.1-1.1,1.9-0.8
		c0.7,0.3,1.1,1.1,0.8,1.9c-1.5,3.9-5.3,6.4-9.5,6.4H33.9l-15.7,15C17.9,75.7,17.5,75.8,17.2,75.8z M10.3,8.7
		c-5.1,0-9.2,4.1-9.2,9.2v32.4c0,5.1,4.1,9.2,9.2,9.2h6.4v15c0,0.2,0.1,0.3,0.3,0.4c0.2,0.1,0.4,0,0.5-0.1l16-15.3h29.8
		c3.7,0,7.2-2.3,8.5-5.8c0-0.1,0-0.2,0-0.3c0-0.1-0.1-0.2-0.2-0.2v0c-0.2-0.1-0.5,0-0.6,0.2c-1.2,3.1-4.3,5.3-7.7,5.3h-30
		c-0.1,0-0.2,0-0.3,0.1L17.6,73.4V58.9c0-0.2-0.2-0.4-0.4-0.4h-6.9c-4.6,0-8.3-3.7-8.3-8.3V17.9c0-4.6,3.7-8.3,8.3-8.3h32.5
		c0.2,0,0.4-0.2,0.4-0.4c0-0.2-0.2-0.4-0.4-0.4H10.3z"/>
</g>
<g>
	<g>
		<linearGradient id="SVGID_3_" gradientUnits="userSpaceOnUse" x1="9.7764" y1="-9.0997" x2="86.6098" y2="66.567">
			<stop  offset="0" style="stop-color:#1D9AD7"/>
			<stop  offset="0.9327" style="stop-color:#A6449F"/>
		</linearGradient>
		<path class="st2" d="M76.7,20.7c-1-2.5-3.4-4.1-6.1-4.1h-11v-8c0-3.2-0.9-5.4-2.7-6.7c-2.9-2.1-6.8-0.9-7-0.8
			c-0.4,0.1-0.7,0.5-0.7,0.9v8.6c0,2.9-1.4,5.4-4.1,7.4c-2.1,1.5-4.3,2.2-4.3,2.2c-0.1,0-0.2,0.1-0.3,0.1C40.4,19.5,39.8,19,39,19
			h-9.3c-0.9,0-1.6,0.7-1.6,1.6v24.6c0,0.9,0.7,1.6,1.6,1.6H39c0.6,0,1.1-0.4,1.4-0.9c1.2,1.3,3,2.2,4.9,2.2h21.2
			c4.5,0,7.4-2.4,7.9-6.5l2.7-17.4C77.3,22.9,77.1,21.7,76.7,20.7z M38.7,44.8H30v-24h8.6V44.8z M75.2,23.8l-2.7,17.4v0
			c-0.5,4-3.6,4.8-6,4.8H45.3c-2.6,0-4.7-2.1-4.7-4.7V21.8c0.2,0.2,0.5,0.2,0.8,0.1c0.1,0,2.5-0.7,4.9-2.4c3.3-2.3,5-5.4,5-8.9V2.7
			c1.1-0.2,3.1-0.4,4.6,0.7c1.3,0.9,1.9,2.7,1.9,5.2v8.9c0,0.5,0.4,0.9,0.9,0.9h11.9c1.9,0,3.6,1.1,4.4,2.9
			C75.2,22.2,75.3,23,75.2,23.8z"/>
		<linearGradient id="SVGID_4_" gradientUnits="userSpaceOnUse" x1="9.4252" y1="-9.3407" x2="87.0502" y2="66.9093">
			<stop  offset="0" style="stop-color:#1D9AD7"/>
			<stop  offset="0.9327" style="stop-color:#A6449F"/>
		</linearGradient>
		<path class="st3" d="M66.4,48.5H45.3c-1.8,0-3.5-0.7-4.8-1.9c-0.4,0.4-0.9,0.6-1.5,0.6h-9.3c-1.1,0-2.1-0.9-2.1-2.1V20.5
			c0-1.1,0.9-2.1,2.1-2.1H39c0.8,0,1.5,0.5,1.8,1.1c0.5-0.2,2.3-0.8,4-2c2.6-1.8,3.9-4.2,3.9-6.9V2c0-0.6,0.4-1.2,1-1.4
			c0,0,4.2-1.4,7.4,0.9c1.9,1.4,2.9,3.8,2.9,7.1v7.5h10.5c2.9,0,5.4,1.7,6.6,4.4l0,0c0.5,1.1,0.6,2.4,0.4,3.7l-2.7,17.4
			C74.3,46,71.2,48.5,66.4,48.5z M40.3,44.9l0.5,0.5c1.2,1.3,2.8,2,4.5,2h21.2c4.3,0,6.9-2.1,7.4-6L76.6,24c0.2-1.1,0-2.2-0.4-3.1
			l0,0c-1-2.3-3.2-3.8-5.6-3.8H59.1V8.6c0-3-0.8-5.1-2.5-6.3c-2.7-1.9-6.5-0.8-6.5-0.8c-0.2,0.1-0.3,0.2-0.3,0.4v8.6
			c0,3.1-1.5,5.7-4.3,7.8c-1.9,1.4-3.9,2.1-4.5,2.2l0,0c-0.1,0-0.1,0-0.2,0.1L40.3,21l0.5,0.4c0.1,0.1,0.2,0.1,0.4,0.1
			c0.6-0.2,2.7-0.9,4.7-2.3c3.1-2.2,4.8-5.2,4.8-8.5V2.3L51,2.2c1.4-0.3,3.5-0.3,5,0.8c1.4,1,2.1,2.9,2.1,5.6v8.9
			c0,0.2,0.2,0.4,0.4,0.4h11.9c2.1,0,4,1.3,4.8,3.2c0.4,0.8,0.5,1.7,0.3,2.7v0L73,41.3c-0.4,3.4-2.7,5.3-6.5,5.3H45.2
			c-2.9,0-5.2-2.3-5.2-5.2V20.8l0.1,0.1L40,20.3c-0.1-0.5-0.5-0.9-1-0.9h-9.3c-0.6,0-1.1,0.5-1.1,1.1v24.6c0,0.6,0.5,1.1,1.1,1.1H39
			c0.4,0,0.8-0.2,1-0.6L40.3,44.9z M41,22.5v18.9c0,2.3,1.9,4.2,4.2,4.2h21.2c3.3,0,5.2-1.5,5.6-4.4l2.7-17.5c0.1-0.8,0-1.5-0.3-2.1
			C73.8,20,72.3,19,70.6,19H58.6c-0.8,0-1.4-0.6-1.4-1.4V8.6c0-2.4-0.6-4-1.7-4.8C54.3,3,52.8,3,51.6,3.1v7.5c0,3.7-1.8,6.9-5.2,9.3
			c-2.1,1.5-4.2,2.2-5,2.5C41.3,22.4,41.2,22.5,41,22.5z M39.2,45.3h-9.6v-25h9.6V45.3z M30.5,44.3h7.6v-23h-7.6V44.3z"/>
	</g>
</g>
</svg>
