<?xml version="1.0" encoding="utf-8"?>
<!-- Generator: Adobe Illustrator 21.0.2, SVG Export Plug-In . SVG Version: 6.00 Build 0)  -->
<svg version="1.1" id="Layer_1" xmlns="http://www.w3.org/2000/svg" xmlns:xlink="http://www.w3.org/1999/xlink" x="0px" y="0px"
	 viewBox="0 0 48 75" style="enable-background:new 0 0 48 75;" xml:space="preserve">
<style type="text/css">
	.st0{fill:none;}
	.st1{fill:url(#SVGID_1_);}
	.st2{fill:url(#Fill-5_1_);}
	.st3{fill:url(#Fill-6_1_);}
	.st4{fill:url(#Fill-7_1_);}
</style>
<g>
	<path class="st0" d="M3.9,67c0,2.7,2.2,4.9,4.9,4.9h31c2.7,0,4.9-2.2,4.9-4.9v-1.7H3.9V67z"/>
	<path class="st0" d="M39.8,3.4h-31c-2.7,0-4.9,2.2-4.9,4.9v1.3h40.8V8.3C44.7,5.6,42.5,3.4,39.8,3.4z"/>
	<linearGradient id="SVGID_1_" gradientUnits="userSpaceOnUse" x1="0.781" y1="0.7756" x2="47.781" y2="74.5256">
		<stop  offset="0" style="stop-color:#1D9AD7"/>
		<stop  offset="1" style="stop-color:#A6449F"/>
	</linearGradient>
	<path class="st1" d="M39.8,0.3h-31c-4.4,0-8,3.6-8,8V67c0,4.4,3.6,8,8,8h31c4.4,0,8-3.6,8-8V8.3C47.7,3.9,44.2,0.3,39.8,0.3z
		 M3.8,12.6h40.8v49.7H3.8V12.6z M44.7,67c0,2.7-2.2,4.9-4.9,4.9h-31c-2.7,0-4.9-2.2-4.9-4.9v-1.7h40.8V67z M44.7,9.5H3.9V8.3
		c0-2.7,2.2-4.9,4.9-4.9h31c2.7,0,4.9,2.2,4.9,4.9V9.5z"/>
</g>
<linearGradient id="Fill-5_1_" gradientUnits="userSpaceOnUse" x1="0.3813" y1="1.0303" x2="47.3813" y2="74.7803">
	<stop  offset="0" style="stop-color:#1D9AD7"/>
	<stop  offset="1" style="stop-color:#A6449F"/>
</linearGradient>
<path id="Fill-5" class="st2" d="M26.7,24.6c-0.8-0.2-1.6,0.4-1.8,1.2l-4.7,24c-0.2,0.8,0.4,1.6,1.2,1.8c0.1,0,0.2,0,0.3,0
	c0.7,0,1.4-0.5,1.5-1.2l4.7-24C28,25.6,27.5,24.8,26.7,24.6"/>
<linearGradient id="Fill-6_1_" gradientUnits="userSpaceOnUse" x1="6.2415" y1="-2.7043" x2="53.2415" y2="71.0457">
	<stop  offset="0" style="stop-color:#1D9AD7"/>
	<stop  offset="1" style="stop-color:#A6449F"/>
</linearGradient>
<path id="Fill-6" class="st3" d="M39.5,38.1C39.5,38,39.5,38,39.5,38.1c0-0.1,0-0.1,0-0.1c0,0,0,0,0-0.1c0,0,0,0,0-0.1
	c0,0,0,0,0-0.1c0,0,0,0,0-0.1c0,0,0,0,0-0.1c0,0,0,0,0-0.1c0,0,0,0,0-0.1c0,0,0-0.1,0-0.1c0,0,0,0,0,0c0,0,0-0.1-0.1-0.1
	c0,0,0,0,0,0c0,0,0-0.1-0.1-0.1L32,30.1c-0.6-0.6-1.6-0.6-2.2,0c-0.6,0.6-0.6,1.6,0,2.2l6,6L30,44.1c-0.6,0.6-0.6,1.6,0,2.2
	c0.3,0.3,0.7,0.4,1.1,0.4c0.4,0,0.8-0.1,1.1-0.4l7-7c0,0,0.1-0.1,0.1-0.1c0,0,0,0,0,0c0,0,0-0.1,0.1-0.1c0,0,0,0,0,0
	c0,0,0-0.1,0-0.1c0,0,0,0,0-0.1c0,0,0,0,0-0.1c0,0,0,0,0-0.1c0,0,0,0,0-0.1c0,0,0,0,0-0.1c0,0,0,0,0-0.1c0,0,0,0,0-0.1
	c0,0,0,0,0-0.1c0,0,0,0,0-0.1c0,0,0,0,0-0.1c0,0,0,0,0-0.1C39.5,38.2,39.5,38.2,39.5,38.1C39.5,38.1,39.5,38.1,39.5,38.1z"/>
<linearGradient id="Fill-7_1_" gradientUnits="userSpaceOnUse" x1="-5.574" y1="4.8256" x2="41.426" y2="78.5756">
	<stop  offset="0" style="stop-color:#1D9AD7"/>
	<stop  offset="1" style="stop-color:#A6449F"/>
</linearGradient>
<path id="Fill-7" class="st4" d="M12.1,38.1l5.9-5.9c0.6-0.6,0.6-1.6,0-2.2c-0.6-0.6-1.6-0.6-2.2,0l-7,7c0,0,0,0.1-0.1,0.1
	c0,0,0,0,0,0c0,0,0,0-0.1,0.1c0,0,0,0,0,0c0,0,0,0,0,0.1c0,0,0,0,0,0.1c0,0,0,0,0,0.1c0,0,0,0,0,0.1c0,0,0,0,0,0.1c0,0,0,0.1,0,0.1
	c0,0,0,0,0,0.1c0,0,0,0.1,0,0.1c0,0,0,0,0,0.1c0,0,0,0,0,0.1c0,0,0,0,0,0.1c0,0,0,0,0,0.1c0,0,0,0,0,0.1c0,0,0,0,0,0.1
	c0,0,0,0,0,0.1c0,0,0,0,0,0.1c0,0,0,0.1,0,0.1c0,0,0,0,0,0.1c0,0,0,0,0,0.1c0,0,0,0,0,0.1c0,0,0,0,0,0.1c0,0,0,0,0,0.1
	c0,0,0,0,0,0.1c0,0,0,0.1,0,0.1c0,0,0,0,0,0c0,0,0,0.1,0.1,0.1c0,0,0,0,0,0c0,0,0,0.1,0.1,0.1l7.1,7.1c0.3,0.3,0.7,0.4,1.1,0.4
	c0.4,0,0.8-0.1,1.1-0.4c0.6-0.6,0.6-1.6,0-2.2L12.1,38.1"/>
</svg>
