<?xml version="1.0" encoding="utf-8"?>
<!-- Generator: Adobe Illustrator 21.0.2, SVG Export Plug-In . SVG Version: 6.00 Build 0)  -->
<svg version="1.1" id="Layer_1" xmlns="http://www.w3.org/2000/svg" xmlns:xlink="http://www.w3.org/1999/xlink" x="0px" y="0px"
	 viewBox="0 0 77 75" style="enable-background:new 0 0 77 75;" xml:space="preserve">
<style type="text/css">
	.st0{fill:url(#SVGID_1_);}
	.st1{fill:url(#SVGID_2_);}
	.st2{fill:url(#SVGID_3_);}
	.st3{fill:url(#SVGID_4_);}
</style>
<g id="user-_x28_1_x29_" transform="translate(56.412640, 0.149198)">
	<g id="Fill-1">
		<linearGradient id="SVGID_1_" gradientUnits="userSpaceOnUse" x1="-54.5848" y1="-1.5176" x2="21.8318" y2="72.9824">
			<stop  offset="0" style="stop-color:#1D9AD7"/>
			<stop  offset="1" style="stop-color:#A6449F"/>
		</linearGradient>
		<path class="st0" d="M20.1,53.7c-0.5-5.3-4.5-9.1-9.4-9.1c-3.1,0-5.7,1.9-7.3,4.1c-1.7-2.3-4.3-4.1-7.3-4.1
			c-4.9,0-8.9,3.8-9.4,9.1c-0.1,0.3-0.2,1.6,0.3,3.5c0.7,2.8,2.3,5.4,4.7,7.5l10.8,9.2c0.3,0.2,0.6,0.4,1,0.4s0.7-0.1,1-0.4
			l10.8-9.2c2.4-2,4-4.6,4.7-7.5C20.3,55.3,20.2,54.1,20.1,53.7z M17.3,56.6c-0.6,2.3-1.9,4.4-3.9,6.1L3.4,71.3l-10.1-8.6
			c-2-1.7-3.3-3.8-3.9-6.1c-0.4-1.6-0.3-2.4-0.3-2.4l0-0.1c0.3-3.4,2.8-6.8,6.8-6.8c2.8,0,5.1,2.3,6.2,4.7l1.2,2.7l1.2-2.7
			c1-2.3,3.3-4.7,6.2-4.7c4.1,0,6.5,3.4,6.8,6.9C17.6,54.1,17.7,55,17.3,56.6z"/>
		<linearGradient id="SVGID_2_" gradientUnits="userSpaceOnUse" x1="-54.5848" y1="-1.5176" x2="21.8319" y2="72.9824">
			<stop  offset="0" style="stop-color:#1D9AD7"/>
			<stop  offset="1" style="stop-color:#A6449F"/>
		</linearGradient>
		<path class="st1" d="M3.4,74.5c-0.4,0-0.8-0.2-1.2-0.4l-10.8-9.2c-2.4-2.1-4.1-4.7-4.8-7.6c-0.5-1.9-0.4-3.2-0.3-3.6
			c0.5-5.4,4.6-9.4,9.7-9.4c2.7,0,5.4,1.4,7.3,4c1.9-2.5,4.6-4,7.3-4c5.1,0,9.1,3.9,9.7,9.4c0.1,0.5,0.2,1.7-0.3,3.6
			c-0.7,2.9-2.4,5.5-4.8,7.6L4.6,74.1C4.2,74.4,3.8,74.5,3.4,74.5z M-3.9,44.9c-4.8,0-8.6,3.7-9.1,8.8c-0.1,0.4-0.2,1.6,0.3,3.4
			c0.7,2.8,2.3,5.3,4.6,7.3l10.8,9.2c0.5,0.4,1.1,0.4,1.6,0L15,64.5c2.3-2,3.9-4.5,4.6-7.3c0.4-1.8,0.4-3,0.3-3.4l0,0
			c-0.5-5.1-4.3-8.8-9.1-8.8c-2.7,0-5.3,1.5-7.1,4l-0.2,0.3l-0.2-0.3C1.3,46.4-1.3,44.9-3.9,44.9z M3.4,71.7l-10.3-8.8
			c-2-1.7-3.4-3.9-4-6.3c-0.4-1.6-0.3-2.5-0.3-2.6l0-0.1c0.3-3.5,2.9-7.1,7.1-7.1c3,0,5.4,2.4,6.4,4.8l0.9,2.1l0.9-2.1
			c1.1-2.4,3.5-4.8,6.4-4.8c4.2,0,6.8,3.6,7.1,7.2l0,0c0.1,0.4,0,1.5-0.2,2.6c-0.6,2.4-2,4.5-4,6.3L3.4,71.7z M-3.9,47.5
			c-3.9,0-6.2,3.3-6.5,6.5l0,0.1c0,0-0.1,0.9,0.2,2.3c0.6,2.3,1.9,4.3,3.8,6L3.4,71l9.9-8.5c1.9-1.6,3.2-3.7,3.8-6l0,0
			c0.3-1.2,0.3-2,0.3-2.3l0,0l0-0.1c-0.3-3.2-2.5-6.7-6.5-6.7c-2.7,0-4.9,2.3-5.9,4.5l-1.4,3.3L2,52C1,49.8-1.2,47.5-3.9,47.5z"/>
	</g>
	<g id="Fill-2">
		<linearGradient id="SVGID_3_" gradientUnits="userSpaceOnUse" x1="-60.5117" y1="4.5618" x2="15.905" y2="79.0618">
			<stop  offset="0" style="stop-color:#1D9AD7"/>
			<stop  offset="1" style="stop-color:#A6449F"/>
		</linearGradient>
		<path class="st2" d="M-16.4,41.1c-0.3-0.4-1.4-1.8-2.5-3.9l-0.1-0.1c0,0,0,0,0,0c-0.1-0.3-0.3-0.6-0.4-0.9l-0.1-0.1
			c-0.1-0.2-0.1-0.3-0.2-0.5c0-0.1-0.1-0.1-0.1-0.2c-0.1-0.2-0.1-0.3-0.2-0.5c-0.1-0.4-0.3-0.7-0.4-1.1l-0.1-0.3
			c-0.1-0.4-0.2-0.8-0.3-1.2c0,0,0,0,0,0l0-0.1l-0.1-0.4l-0.4-0.3c-0.7-0.5-1.2-1.3-1.2-2.2V24c0-0.7,0.3-1.4,0.9-1.9l0.4-0.4v-8.5
			l0,0c0-0.9,0-3.8,2.1-6.2c2.1-2.4,5.8-3.7,10.9-3.7c5,0,8.7,1.2,10.8,3.7c2.5,2.8,2.1,6.5,2.1,6.5l0,8.2l0.4,0.4
			C5.7,22.6,6,23.2,6,24v5.2c0,1.1-0.7,2.1-1.8,2.5c-0.7,0.2-1.1,0.9-0.9,1.6c0.2,0.7,0.9,1.1,1.6,0.9c2.2-0.7,3.7-2.6,3.7-4.9V24
			c0-1.2-0.5-2.4-1.3-3.4v-6.9C7.4,13,7.6,8.8,4.6,5.3c-2.7-3-7-4.6-12.8-4.6c-5.8,0-10.1,1.5-12.8,4.6c-1.8,2.1-2.5,4.5-2.7,6.2
			c-2.2-1.1-4.8-1.7-7.8-1.7c-13.4,0-14.2,11.4-14.2,11.6v5.9c-0.8,0.9-1.3,2-1.3,3v4.5c0,1.4,0.6,2.7,1.7,3.6
			c1.1,4,3.7,7.1,4.7,8.1V50c0,1-0.5,1.9-1.5,2.5l-8.6,5.4c-3.3,1.8-5.3,5.2-5.3,9v4.9h34.9c0.7,0,1.3-0.6,1.3-1.3
			c0-0.7-0.6-1.3-1.3-1.3h-14.2v-2.9c0-3.3,1.8-6.4,4.7-8l11.5-6.3C-17.2,51-16,49-16,46.8v-5.2l-0.3-0.4
			C-16.3,41.2-16.3,41.2-16.4,41.1z M-18.6,46.8c0,1.2-0.7,2.4-1.8,3l-3.4,1.9l-0.8,0.5l-7.3,4c-3.7,2-6.1,6-6.1,10.2v2.9h-15.5
			v-2.3c0-2.8,1.5-5.4,4.1-6.8l8.6-5.4C-39.1,53.8-38,52-38,50v-4.6l-0.4-0.4c0,0-3.5-3.3-4.5-7.7l-0.1-0.5l-0.4-0.3
			c-0.6-0.4-1-1-1-1.7v-4.5c0-0.5,0.3-1,0.9-1.5l0.4-0.4v-6.9c0-0.4,0.7-9.1,11.6-9.1c3.1,0,5.7,0.7,7.8,2.1v6.1
			c-0.8,0.9-1.3,2.2-1.3,3.4v5.2c0,0.9,0.3,1.8,0.7,2.6c0.3,0.5,0.7,1,1.2,1.4c0,0,0,0.1,0,0.1c0.1,0.3,0.2,0.6,0.2,0.8l0.1,0.4
			c0,0.1,0,0.1,0.1,0.2c0,0.1,0.1,0.3,0.1,0.4c0.1,0.2,0.2,0.5,0.3,0.7c0,0.1,0.1,0.2,0.1,0.3c0.1,0.3,0.2,0.6,0.3,0.8
			c0,0.1,0,0.1,0.1,0.2l0.1,0.2c0,0.1,0.1,0.1,0.1,0.2c0.1,0.3,0.2,0.5,0.4,0.8c0,0,0,0.1,0.1,0.1l0.1,0.2c0,0.1,0.1,0.1,0.1,0.1
			c0.2,0.4,0.4,0.8,0.6,1.1l0.1,0.1c0.2,0.4,0.4,0.7,0.6,1c0,0,0,0,0,0.1c0.4,0.7,0.8,1.2,1,1.5V46.8z"/>
		<linearGradient id="SVGID_4_" gradientUnits="userSpaceOnUse" x1="-60.5534" y1="4.6045" x2="15.8633" y2="79.1045">
			<stop  offset="0" style="stop-color:#1D9AD7"/>
			<stop  offset="1" style="stop-color:#A6449F"/>
		</linearGradient>
		<path class="st3" d="M-21.1,72h-35.2v-5.2c0-3.9,2.1-7.4,5.5-9.2l8.6-5.4c0.9-0.5,1.4-1.3,1.4-2.2v-3.4c-1.1-1.2-3.6-4.2-4.7-8.1
			c-1.1-0.9-1.7-2.3-1.7-3.7v-4.5c0-1.1,0.4-2.2,1.3-3.1v-5.8c0-0.5,1-11.9,14.5-11.9c2.8,0,5.4,0.5,7.6,1.6c0.2-1.7,0.9-3.9,2.7-6
			c2.7-3.1,7.1-4.7,13-4.7c5.9,0,10.3,1.6,13,4.7c3.2,3.7,2.8,8.1,2.8,8.6l0,6.7c0.8,1,1.3,2.2,1.3,3.5v5.2c0,2.4-1.6,4.5-3.9,5.2
			c-0.8,0.3-1.7-0.2-2-1c-0.1-0.4-0.1-0.8,0.1-1.2c0.2-0.4,0.5-0.6,0.9-0.8c1-0.3,1.6-1.2,1.6-2.2V24c0-0.6-0.3-1.2-0.8-1.7
			l-0.5-0.5l0-8.3c0-0.1,0.4-3.6-2-6.3C0.3,4.8-3.3,3.6-8.2,3.6c-5,0-8.6,1.2-10.6,3.6c-1.9,2.2-2.1,4.9-2,5.8l0,0l0,0.2v8.6
			l-0.5,0.5c-0.5,0.5-0.8,1.1-0.8,1.7v5.2c0,0.8,0.4,1.5,1.1,1.9l0.5,0.4l0.2,0.7c0.1,0.3,0.2,0.8,0.3,1.1l0.1,0.3
			c0.1,0.4,0.2,0.7,0.4,1.1c0.1,0.2,0.1,0.4,0.2,0.5c0,0.1,0.1,0.2,0.1,0.2c0.1,0.1,0.1,0.3,0.2,0.4L-19,36c0.1,0.3,0.3,0.6,0.4,0.9
			l0.1,0.2c1,2,2,3.4,2.4,3.9c0.1,0.1,0.1,0.1,0.1,0.1l0.4,0.4v5.3c0,2.3-1.3,4.4-3.3,5.5l-11.5,6.3c-2.8,1.5-4.6,4.5-4.6,7.7v2.6
			h13.9c0.9,0,1.6,0.7,1.6,1.6S-20.3,72-21.1,72z M-55.7,71.5h34.6c0.5,0,1-0.5,1-1s-0.4-1-1-1h-14.5v-3.2c0-3.4,1.9-6.6,4.9-8.2
			l11.5-6.3c1.8-1,3-2.9,3-5v-5.1l-0.2-0.3c0,0,0-0.1-0.1-0.1l0,0c-0.4-0.5-1.5-2-2.5-4l-0.1-0.2c-0.1-0.3-0.3-0.6-0.4-0.9l-0.1-0.3
			c-0.1-0.1-0.1-0.3-0.2-0.4c0-0.1,0-0.1-0.1-0.2c-0.1-0.2-0.1-0.4-0.2-0.6c-0.1-0.3-0.3-0.7-0.4-1.1l-0.1-0.3
			c-0.1-0.4-0.2-0.8-0.3-1.2l0-0.1l0,0l-0.1-0.4l-0.3-0.2c-0.8-0.5-1.3-1.4-1.3-2.4V24c0-0.8,0.3-1.6,1-2.1l0.3-0.3v-8.2l0-0.1
			c-0.1-1.1,0.1-4,2.2-6.4C-17.1,4.3-13.4,3-8.2,3c5.1,0,8.8,1.3,11,3.8c2.6,3,2.2,6.7,2.2,6.8l0,8l0.3,0.3c0.6,0.6,1,1.3,1,2.1v5.2
			c0,1.3-0.8,2.4-2,2.7c-0.3,0.1-0.5,0.3-0.6,0.5c-0.1,0.2-0.2,0.5-0.1,0.8c0.2,0.5,0.7,0.8,1.3,0.7c2.1-0.6,3.5-2.5,3.5-4.6V24
			c0-1.2-0.4-2.3-1.2-3.2L7,20.7v-7C7,13.2,7.4,8.9,4.4,5.5C1.8,2.5-2.5,1-8.2,1c-5.8,0-10,1.5-12.6,4.5c-1.8,2.1-2.4,4.4-2.6,6
			l0,0.4l-0.4-0.2c-2.2-1.1-4.7-1.7-7.7-1.7c-13,0-13.9,10.9-13.9,11.4l0,6l-0.1,0.1c-0.8,0.9-1.2,1.8-1.2,2.8v4.5
			c0,1.3,0.6,2.5,1.6,3.3l0.1,0.1l0,0.1c1,3.9,3.6,6.9,4.6,8l0.1,0.1V50c0,1.1-0.6,2.2-1.7,2.7l-8.6,5.4c-3.2,1.8-5.2,5.1-5.2,8.7
			V71.5z M-37.6,69.5h-16.1v-2.6c0-2.9,1.6-5.6,4.2-7l8.6-5.4c1.6-0.9,2.7-2.6,2.7-4.5v-4.5l-0.3-0.3c-0.4-0.4-3.6-3.6-4.6-7.8
			l-0.1-0.4l-0.3-0.2c-0.7-0.4-1.1-1.2-1.1-2v-4.5c0-0.5,0.4-1.2,1-1.7l0.3-0.3v-6.8c0-0.1,0.6-9.4,11.9-9.4c3.1,0,5.8,0.7,7.9,2.2
			l0.1,0.1v6.4l-0.1,0.1c-0.8,0.9-1.2,2-1.2,3.2v5.2c0,0.8,0.2,1.7,0.7,2.4c0.3,0.6,0.7,1,1.1,1.4l0.1,0.1l0,0.1l-0.3,0.2l0.3-0.1
			c0.1,0.3,0.1,0.6,0.2,0.8l0.4,1.2c0,0.1,0.1,0.3,0.2,0.4l0.1,0.1c0,0.1,0,0.1,0.1,0.2c0.1,0.3,0.2,0.5,0.3,0.8c0,0,0,0.1,0.1,0.1
			l0.1,0.3c0,0,0,0.1,0.1,0.1l0.4,0.8c0,0,0,0,0,0.1l0.2,0.3c0.2,0.5,0.4,0.8,0.6,1.2l0.1,0.1c0.2,0.4,0.4,0.7,0.6,1l0.1,0.1
			c0.4,0.7,0.8,1.2,1,1.4l0.1,0.1v4.4c0,1.4-0.7,2.6-1.9,3.2l-11.5,6.3c-3.7,2-5.9,5.8-5.9,10V69.5z M-53.1,68.9h14.9v-2.6
			c0-4.4,2.4-8.4,6.2-10.5l11.5-6.3c1-0.5,1.6-1.6,1.6-2.7v-4.2c-0.2-0.3-0.6-0.8-1-1.4c-0.2-0.4-0.4-0.7-0.7-1.1l-0.1-0.1
			c-0.2-0.4-0.4-0.7-0.6-1.1c0-0.1-0.1-0.1-0.1-0.1l-0.5-1.1c0-0.1,0-0.1-0.1-0.1l-0.1-0.3c0-0.1,0-0.1-0.1-0.2
			c-0.1-0.3-0.2-0.6-0.3-0.8c0-0.1,0-0.1-0.1-0.1c0,0,0-0.1-0.1-0.2c-0.1-0.1-0.1-0.3-0.2-0.4l-0.4-1.2c-0.1-0.3-0.2-0.6-0.2-0.9
			c0,0,0,0,0,0c-0.5-0.4-0.9-0.9-1.2-1.5c-0.5-0.9-0.8-1.8-0.8-2.7V24c0-1.3,0.5-2.5,1.3-3.5v-5.8c-2-1.3-4.5-2-7.5-2
			c-10.7,0-11.3,8.5-11.3,8.8l0,7.1l-0.5,0.5c-0.5,0.4-0.8,0.9-0.8,1.3v4.5c0,0.6,0.3,1.1,0.8,1.5l0.5,0.3l0.1,0.6
			c0.9,4.1,4,7.2,4.4,7.5l0.5,0.5V50c0,2.1-1.1,4-2.9,5l-8.6,5.4c-2.4,1.3-3.9,3.8-3.9,6.5V68.9z"/>
	</g>
</g>
</svg>
