<?xml version="1.0" encoding="utf-8"?>
<!-- Generator: Adobe Illustrator 21.0.2, SVG Export Plug-In . SVG Version: 6.00 Build 0)  -->
<svg version="1.1" id="Layer_1" xmlns="http://www.w3.org/2000/svg" xmlns:xlink="http://www.w3.org/1999/xlink" x="0px" y="0px"
	 viewBox="0 0 76 75" style="enable-background:new 0 0 76 75;" xml:space="preserve">
<style type="text/css">
	.st0{fill:url(#SVGID_1_);}
	.st1{fill:url(#SVGID_2_);}
	.st2{fill:url(#SVGID_3_);}
	.st3{fill:url(#SVGID_4_);}
	.st4{fill:url(#SVGID_5_);}
	.st5{fill:url(#SVGID_6_);}
	.st6{fill:url(#SVGID_7_);}
	.st7{fill:url(#SVGID_8_);}
	.st8{fill:url(#SVGID_9_);}
	.st9{fill:url(#SVGID_10_);}
	.st10{fill:url(#SVGID_11_);}
	.st11{fill:url(#SVGID_12_);}
</style>
<title>vector</title>
<desc>Created with Sketch.</desc>
<g>
	<linearGradient id="SVGID_1_" gradientUnits="userSpaceOnUse" x1="5.0957" y1="-5.0493" x2="80.9707" y2="69.7007">
		<stop  offset="0" style="stop-color:#1D9AD7"/>
		<stop  offset="1" style="stop-color:#A6449F"/>
	</linearGradient>
	<path class="st0" d="M20.9,8.3c-0.8,0.4-1.5,0.9-2.2,1.4c-0.6,0.4-0.7,1.2-0.3,1.8c0.2,0.4,0.6,0.6,1.1,0.6c0.2,0,0.5-0.1,0.7-0.2
		c0.7-0.5,1.4-0.9,2.1-1.3c0.6-0.3,0.8-1.1,0.5-1.7C22.3,8.2,21.6,8,20.9,8.3L20.9,8.3z M20.9,8.3"/>
	<linearGradient id="SVGID_2_" gradientUnits="userSpaceOnUse" x1="22.5616" y1="-22.7781" x2="98.4366" y2="51.9719">
		<stop  offset="0" style="stop-color:#1D9AD7"/>
		<stop  offset="1" style="stop-color:#A6449F"/>
	</linearGradient>
	<path class="st1" d="M54.8,9.6c-0.4,0.6-0.2,1.4,0.4,1.8c0.7,0.4,1.4,0.9,2,1.4c0.2,0.2,0.5,0.3,0.8,0.3c0.4,0,0.8-0.2,1-0.5
		c0.4-0.6,0.3-1.4-0.2-1.8c-0.7-0.5-1.4-1-2.2-1.5C56,8.9,55.2,9,54.8,9.6L54.8,9.6z M54.8,9.6"/>
	<linearGradient id="SVGID_3_" gradientUnits="userSpaceOnUse" x1="14.0844" y1="-14.1732" x2="89.9594" y2="60.5768">
		<stop  offset="0" style="stop-color:#1D9AD7"/>
		<stop  offset="1" style="stop-color:#A6449F"/>
	</linearGradient>
	<path class="st2" d="M72.2,35.5c-0.1-0.7-0.7-1.2-1.4-1.2c-0.7,0.1-1.2,0.7-1.2,1.4c0,0.4,0,0.8,0,1.2H66V47h10.2V36.9h-3.9
		C72.3,36.4,72.3,36,72.2,35.5L72.2,35.5z M73.6,44.5h-5.1v-5.1h5.1V44.5z M73.6,44.5"/>
	<linearGradient id="SVGID_4_" gradientUnits="userSpaceOnUse" x1="-10.5314" y1="10.813" x2="65.3436" y2="85.563">
		<stop  offset="0" style="stop-color:#1D9AD7"/>
		<stop  offset="1" style="stop-color:#A6449F"/>
	</linearGradient>
	<path class="st3" d="M5.9,26.1c-0.3,0.8-0.6,1.7-0.8,2.5c-0.2,0.7,0.2,1.4,0.9,1.6c0.1,0,0.2,0.1,0.4,0.1c0.6,0,1.1-0.4,1.2-0.9
		C7.7,28.5,8,27.7,8.2,27c0.2-0.7-0.1-1.4-0.7-1.6C6.8,25.1,6.1,25.4,5.9,26.1L5.9,26.1z M5.9,26.1"/>
	<linearGradient id="SVGID_5_" gradientUnits="userSpaceOnUse" x1="19.788" y1="-19.9627" x2="95.663" y2="54.7873">
		<stop  offset="0" style="stop-color:#1D9AD7"/>
		<stop  offset="1" style="stop-color:#A6449F"/>
	</linearGradient>
	<path class="st4" d="M69.1,26.9c-0.7,0.2-1,0.9-0.8,1.6c0.2,0.8,0.5,1.6,0.6,2.4c0.1,0.6,0.7,1,1.2,1c0.1,0,0.2,0,0.3,0
		c0.7-0.2,1.1-0.8,0.9-1.5c-0.2-0.9-0.4-1.7-0.7-2.5C70.5,27.1,69.8,26.7,69.1,26.9L69.1,26.9z M69.1,26.9"/>
	<linearGradient id="SVGID_6_" gradientUnits="userSpaceOnUse" x1="22.8433" y1="-23.064" x2="98.7183" y2="51.686">
		<stop  offset="0" style="stop-color:#1D9AD7"/>
		<stop  offset="1" style="stop-color:#A6449F"/>
	</linearGradient>
	<path class="st5" d="M62.7,14.3c-0.5-0.5-1.3-0.5-1.8,0c-0.5,0.5-0.5,1.3,0,1.8c0.6,0.6,1.1,1.2,1.6,1.8c0.2,0.3,0.6,0.5,1,0.5
		c0.3,0,0.6-0.1,0.8-0.3c0.5-0.5,0.6-1.3,0.2-1.8C63.9,15.6,63.3,14.9,62.7,14.3L62.7,14.3z M62.7,14.3"/>
	<linearGradient id="SVGID_7_" gradientUnits="userSpaceOnUse" x1="-0.2033" y1="0.3295" x2="75.6717" y2="75.0795">
		<stop  offset="0" style="stop-color:#1D9AD7"/>
		<stop  offset="1" style="stop-color:#A6449F"/>
	</linearGradient>
	<path class="st6" d="M16.3,14.9c0.5-0.5,0.5-1.3,0.1-1.8c-0.5-0.5-1.3-0.5-1.8-0.1c-0.6,0.6-1.3,1.2-1.9,1.9
		c-0.5,0.5-0.4,1.3,0.1,1.8c0.2,0.2,0.6,0.3,0.9,0.3c0.3,0,0.7-0.1,0.9-0.4C15.2,16,15.7,15.5,16.3,14.9L16.3,14.9z M16.3,14.9"/>
	<linearGradient id="SVGID_8_" gradientUnits="userSpaceOnUse" x1="21.9047" y1="-22.1112" x2="97.7797" y2="52.6388">
		<stop  offset="0" style="stop-color:#1D9AD7"/>
		<stop  offset="1" style="stop-color:#A6449F"/>
	</linearGradient>
	<path class="st7" d="M67.6,24.7c0.2,0,0.4,0,0.6-0.1c0.6-0.3,0.9-1.1,0.6-1.7c-0.4-0.8-0.8-1.6-1.3-2.3c-0.4-0.6-1.1-0.8-1.7-0.4
		c-0.6,0.4-0.8,1.1-0.4,1.7c0.4,0.7,0.8,1.4,1.2,2.1C66.7,24.4,67.1,24.7,67.6,24.7L67.6,24.7z M67.6,24.7"/>
	<linearGradient id="SVGID_9_" gradientUnits="userSpaceOnUse" x1="-18.4751" y1="18.8762" x2="57.3999" y2="93.6262">
		<stop  offset="0" style="stop-color:#1D9AD7"/>
		<stop  offset="1" style="stop-color:#A6449F"/>
	</linearGradient>
	<path class="st8" d="M6.3,36.5c0-0.8,0.1-1.6,0.2-2.4c0.1-0.7-0.4-1.3-1.1-1.4C4.7,32.6,4,33.1,4,33.8c-0.1,0.9-0.2,1.7-0.2,2.6
		c0,0.2,0,0.3,0.1,0.5h-3.9V47H10V36.9H6.2C6.2,36.8,6.3,36.6,6.3,36.5L6.3,36.5z M7.5,44.5H2.4v-5.1h5.1V44.5z M7.5,44.5"/>
	<linearGradient id="SVGID_10_" gradientUnits="userSpaceOnUse" x1="-5.5052" y1="5.7112" x2="70.3698" y2="80.4612">
		<stop  offset="0" style="stop-color:#1D9AD7"/>
		<stop  offset="1" style="stop-color:#A6449F"/>
	</linearGradient>
	<path class="st9" d="M9.5,19.1c-0.5,0.7-1,1.5-1.4,2.2C7.7,21.9,8,22.7,8.6,23c0.2,0.1,0.4,0.2,0.6,0.2c0.4,0,0.9-0.2,1.1-0.6
		c0.4-0.7,0.8-1.4,1.3-2.1c0.4-0.6,0.2-1.4-0.3-1.8C10.6,18.3,9.9,18.5,9.5,19.1L9.5,19.1z M9.5,19.1"/>
	<linearGradient id="SVGID_11_" gradientUnits="userSpaceOnUse" x1="16.2363" y1="-16.3575" x2="92.1113" y2="58.3925">
		<stop  offset="0" style="stop-color:#1D9AD7"/>
		<stop  offset="1" style="stop-color:#A6449F"/>
	</linearGradient>
	<path class="st10" d="M4.9,10.2c2.4,0,4.3-1.6,4.9-3.8h15.4c-0.4,0.3-0.5,0.9-0.3,1.4c0.2,0.5,0.7,0.8,1.2,0.8c0.1,0,0.3,0,0.5-0.1
		c0.8-0.3,1.5-0.6,2.3-0.8c0.6-0.2,0.9-0.7,0.9-1.3h2.9c0.1,0,0.1,0.1,0.2,0.1v3.7h10.2V6.8c0.3,0,0.5,0.1,0.8,0.1
		c0.1,0,0.2,0,0.2,0c0.4,0,0.8-0.2,1.1-0.6H48c0,0.1-0.1,0.1-0.1,0.2c-0.2,0.7,0.1,1.4,0.8,1.6c0.8,0.3,1.5,0.6,2.3,0.9
		c0.2,0.1,0.3,0.1,0.5,0.1c0.5,0,0.9-0.3,1.2-0.8c0.3-0.6,0-1.4-0.6-1.7c-0.3-0.1-0.7-0.3-1-0.4h15.2c0.6,2.2,2.5,3.8,4.9,3.8
		c2.8,0,5.1-2.3,5.1-5.1c0-2.8-2.3-5.1-5.1-5.1c-2.4,0-4.3,1.6-4.9,3.8H43.1V0H32.9v3.8H9.9C9.3,1.6,7.3,0,4.9,0
		C2.1,0-0.1,2.3-0.1,5.1C-0.1,7.9,2.1,10.2,4.9,10.2L4.9,10.2z M71.1,2.5c1.4,0,2.5,1.1,2.5,2.5c0,1.4-1.1,2.5-2.5,2.5
		c-1.4,0-2.5-1.1-2.5-2.5C68.5,3.7,69.7,2.5,71.1,2.5L71.1,2.5z M35.5,2.5h5.1v5.1h-5.1V2.5z M4.9,2.5c1.4,0,2.5,1.1,2.5,2.5
		c0,1.4-1.1,2.5-2.5,2.5c-1.4,0-2.5-1.1-2.5-2.5C2.4,3.7,3.5,2.5,4.9,2.5L4.9,2.5z M4.9,2.5"/>
	<linearGradient id="SVGID_12_" gradientUnits="userSpaceOnUse" x1="-4.5803" y1="4.7724" x2="71.2947" y2="79.5224">
		<stop  offset="0" style="stop-color:#1D9AD7"/>
		<stop  offset="1" style="stop-color:#A6449F"/>
	</linearGradient>
	<path class="st11" d="M39.3,12.7c0-0.7-0.6-1.3-1.3-1.3s-1.3,0.6-1.3,1.3v0.9L14,48.3h6.5c4,0,7.3,3.3,7.3,7.3v13h2.5V75h15.3v-6.4
		h2.5v-13c0-4,3.3-7.3,7.3-7.3H62L39.3,13.6V12.7z M38,43.2c1.4,0,2.5,1.1,2.5,2.5c0,1.4-1.1,2.5-2.5,2.5c-1.4,0-2.5-1.1-2.5-2.5
		C35.5,44.4,36.6,43.2,38,43.2L38,43.2z M43.1,72.5H32.9v-3.8h10.2V72.5z M45.6,66.1H30.4v-3.8h15.3V66.1z M55.5,45.8
		c-5.4,0-9.9,4.4-9.9,9.9v4.1H30.4v-4.1c0-5.4-4.4-9.9-9.9-9.9h-1.8l18-27.5v22.6c-2.2,0.6-3.8,2.5-3.8,4.9c0,2.8,2.3,5.1,5.1,5.1
		c2.8,0,5.1-2.3,5.1-5.1c0-2.4-1.6-4.3-3.8-4.9V18.2l18,27.5H55.5z M55.5,45.8"/>
</g>
</svg>
