<?xml version="1.0" encoding="utf-8"?>
<!-- Generator: Adobe Illustrator 21.0.2, SVG Export Plug-In . SVG Version: 6.00 Build 0)  -->
<svg version="1.1" id="Layer_1" xmlns="http://www.w3.org/2000/svg" xmlns:xlink="http://www.w3.org/1999/xlink" x="0px" y="0px"
	 viewBox="0 0 76 76" style="enable-background:new 0 0 76 76;" xml:space="preserve">
<style type="text/css">
	.st0{fill:url(#SVGID_1_);}
	.st1{fill:url(#Fill-4_1_);}
	.st2{fill:url(#Fill-5_2_);}
	.st3{fill:url(#Fill-6_2_);}
	.st4{fill:url(#Fill-7_2_);}
	.st5{fill:url(#Fill-5_3_);}
	.st6{fill:url(#Fill-6_3_);}
	.st7{fill:url(#Fill-7_3_);}
</style>
<title>Group 4</title>
<desc>Created with Sketch.</desc>
<g id="Page-4">
	<g id="Services-bigger-title" transform="translate(-840.000000, -2611.000000)">
		<g id="Group-4" transform="translate(840.000000, 2611.000000)">
			<g id="browser" transform="translate(0.378906, 0.308452)">
				<linearGradient id="SVGID_1_" gradientUnits="userSpaceOnUse" x1="-0.2241" y1="-0.2132" x2="75.5259" y2="75.6618">
					<stop  offset="0" style="stop-color:#1D9AD7"/>
					<stop  offset="1" style="stop-color:#A6449F"/>
				</linearGradient>
				<path class="st0" d="M71.8,0.1H3c-1.7,0-3,1.3-3,3v68.8c0,1.7,1.3,3,3,3h68.8c1.7,0,3-1.3,3-3V3.1C74.8,1.4,73.4,0.1,71.8,0.1z
					 M71.6,70.2c0,0.8-0.7,1.5-1.5,1.5H4.6c-0.8,0-1.5-0.7-1.5-1.5V17.1c0-0.8,0.7-1.5,1.5-1.5h65.5c0.8,0,1.5,0.7,1.5,1.5V70.2z
					 M71.9,11.2c0,0.8-0.6,1.4-1.4,1.4H4.7c-0.8,0-1.4-0.6-1.4-1.4V4.6c0-0.8,0.6-1.4,1.4-1.4h65.8c0.8,0,1.4,0.6,1.4,1.4V11.2z"/>
				<linearGradient id="Fill-4_1_" gradientUnits="userSpaceOnUse" x1="29.392" y1="-29.7806" x2="105.142" y2="46.0944">
					<stop  offset="0" style="stop-color:#1D9AD7"/>
					<stop  offset="1" style="stop-color:#A6449F"/>
				</linearGradient>
				<polygon id="Fill-4" class="st1" points="65.4,9.4 68.5,9.4 68.5,6.3 65.4,6.3 				"/>
				<linearGradient id="Fill-5_2_" gradientUnits="userSpaceOnUse" x1="26.272" y1="-26.6656" x2="102.022" y2="49.2094">
					<stop  offset="0" style="stop-color:#1D9AD7"/>
					<stop  offset="1" style="stop-color:#A6449F"/>
				</linearGradient>
				<polygon id="Fill-5" class="st2" points="59.2,9.4 62.3,9.4 62.3,6.3 59.2,6.3 				"/>
				<linearGradient id="Fill-6_2_" gradientUnits="userSpaceOnUse" x1="23.1519" y1="-23.5507" x2="98.9019" y2="52.3243">
					<stop  offset="0" style="stop-color:#1D9AD7"/>
					<stop  offset="1" style="stop-color:#A6449F"/>
				</linearGradient>
				<polygon id="Fill-6" class="st3" points="53,9.4 56.1,9.4 56.1,6.3 53,6.3 				"/>
				<linearGradient id="Fill-7_2_" gradientUnits="userSpaceOnUse" x1="9.1116" y1="-9.5336" x2="84.8616" y2="66.3414">
					<stop  offset="0" style="stop-color:#1D9AD7"/>
					<stop  offset="1" style="stop-color:#A6449F"/>
				</linearGradient>
				<path id="Fill-7" class="st4" d="M7.8,7.9c0,0.9,0.7,1.6,1.6,1.6h34.3c0.9,0,1.6-0.7,1.6-1.6l0,0c0-0.9-0.7-1.6-1.6-1.6H9.3
					C8.5,6.3,7.8,7,7.8,7.9L7.8,7.9z"/>
			</g>
			<linearGradient id="Fill-5_3_" gradientUnits="userSpaceOnUse" x1="-3.2558" y1="3.5002" x2="72.4942" y2="79.3752">
				<stop  offset="0" style="stop-color:#1D9AD7"/>
				<stop  offset="1" style="stop-color:#A6449F"/>
			</linearGradient>
			<path id="Fill-5_1_" class="st5" d="M39.7,29.7c-0.9-0.2-1.7,0.4-1.9,1.2l-4.9,25c-0.2,0.9,0.4,1.7,1.2,1.9c0.1,0,0.2,0,0.3,0
				c0.7,0,1.4-0.5,1.6-1.3l4.9-25C41.1,30.7,40.5,29.9,39.7,29.7"/>
			<linearGradient id="Fill-6_3_" gradientUnits="userSpaceOnUse" x1="3.9433" y1="-3.687" x2="79.6933" y2="72.188">
				<stop  offset="0" style="stop-color:#1D9AD7"/>
				<stop  offset="1" style="stop-color:#A6449F"/>
			</linearGradient>
			<path id="Fill-6_1_" class="st6" d="M60.2,43.7C60.2,43.7,60.2,43.6,60.2,43.7c0-0.1,0-0.1,0-0.2c0,0,0,0,0-0.1c0,0,0,0,0-0.1
				c0,0,0,0,0-0.1c0,0,0,0,0-0.1c0,0,0,0,0-0.1c0,0,0-0.1,0-0.1c0,0,0,0,0-0.1c0,0,0-0.1,0-0.1c0,0,0,0,0,0c0,0,0-0.1-0.1-0.1
				c0,0,0,0,0,0c0,0-0.1-0.1-0.1-0.1l-7.3-7.4c-0.6-0.6-1.6-0.6-2.2,0c-0.6,0.6-0.6,1.6,0,2.2l6.2,6.2L50.3,50
				c-0.6,0.6-0.6,1.6,0,2.2c0.3,0.3,0.7,0.5,1.1,0.5c0.4,0,0.8-0.2,1.1-0.5l7.2-7.2c0,0,0.1-0.1,0.1-0.1c0,0,0,0,0,0
				c0,0,0-0.1,0.1-0.1c0,0,0,0,0,0c0,0,0-0.1,0-0.1c0,0,0,0,0-0.1c0,0,0-0.1,0-0.1c0,0,0,0,0-0.1c0,0,0,0,0-0.1c0,0,0,0,0-0.1
				c0,0,0,0,0-0.1c0,0,0,0,0-0.1c0,0,0-0.1,0-0.1c0,0,0,0,0-0.1c0,0,0-0.1,0-0.1c0,0,0,0,0-0.1S60.2,43.8,60.2,43.7
				C60.2,43.7,60.2,43.7,60.2,43.7z"/>
			<linearGradient id="Fill-7_3_" gradientUnits="userSpaceOnUse" x1="-10.5105" y1="10.743" x2="65.2395" y2="86.618">
				<stop  offset="0" style="stop-color:#1D9AD7"/>
				<stop  offset="1" style="stop-color:#A6449F"/>
			</linearGradient>
			<path id="Fill-7_1_" class="st7" d="M17.4,43.7l6.1-6.1c0.6-0.6,0.6-1.6,0-2.2c-0.6-0.6-1.6-0.6-2.2,0l-7.2,7.2
				c0,0-0.1,0.1-0.1,0.1c0,0,0,0,0,0c0,0,0,0.1-0.1,0.1c0,0,0,0,0,0.1c0,0,0,0,0,0.1c0,0,0,0,0,0.1c0,0,0,0,0,0.1c0,0,0,0,0,0.1
				c0,0,0,0,0,0.1c0,0,0,0.1,0,0.1c0,0,0,0,0,0.1c0,0,0,0.1,0,0.1c0,0,0,0,0,0.1c0,0,0,0.1,0,0.1c0,0,0,0.1,0,0.1c0,0,0,0.1,0,0.1
				s0,0.1,0,0.1c0,0,0,0.1,0,0.1c0,0,0,0.1,0,0.1c0,0,0,0,0,0.1c0,0,0,0.1,0,0.1c0,0,0,0,0,0.1c0,0,0,0.1,0,0.1c0,0,0,0,0,0.1
				c0,0,0,0,0,0.1c0,0,0,0,0,0.1c0,0,0,0,0,0.1c0,0,0,0.1,0,0.1c0,0,0,0,0,0c0,0,0,0.1,0.1,0.1c0,0,0,0,0,0c0,0,0.1,0.1,0.1,0.1
				l7.3,7.4c0.3,0.3,0.7,0.5,1.1,0.5c0.4,0,0.8-0.2,1.1-0.5c0.6-0.6,0.6-1.6,0-2.2L17.4,43.7"/>
		</g>
	</g>
</g>
</svg>
