<?xml version="1.0" encoding="UTF-8" standalone="no"?>
<svg width="111px" height="111px" viewBox="0 0 111 111" version="1.1" xmlns="http://www.w3.org/2000/svg" xmlns:xlink="http://www.w3.org/1999/xlink">
    <!-- Generator: Sketch 43.1 (39012) - http://www.bohemiancoding.com/sketch -->
    <title>Group 2</title>
    <desc>Created with Sketch.</desc>
    <defs>
        <linearGradient x1="0%" y1="0%" x2="79.5235846%" y2="78.7439423%" id="linearGradient-1">
            <stop stop-color="#1D9AD7" offset="0%"></stop>
            <stop stop-color="#A6449F" offset="100%"></stop>
        </linearGradient>
        <linearGradient x1="-8.76101636%" y1="-2.51426449%" x2="98.2119039%" y2="109.917682%" id="linearGradient-2">
            <stop stop-color="#1D9AD7" offset="0%"></stop>
            <stop stop-color="#A6449F" offset="93.27%"></stop>
        </linearGradient>
        <linearGradient x1="-8.40142124%" y1="-1.93935389%" x2="98.225187%" y2="110.028341%" id="linearGradient-3">
            <stop stop-color="#1D9AD7" offset="0%"></stop>
            <stop stop-color="#A6449F" offset="93.27%"></stop>
        </linearGradient>
        <linearGradient x1="-37.3353191%" y1="-20.5944507%" x2="119.21686%" y2="138.93408%" id="linearGradient-4">
            <stop stop-color="#1D9AD7" offset="0%"></stop>
            <stop stop-color="#A6449F" offset="93.27%"></stop>
        </linearGradient>
        <linearGradient x1="-36.3520905%" y1="-19.698502%" x2="118.908546%" y2="138.097147%" id="linearGradient-5">
            <stop stop-color="#1D9AD7" offset="0%"></stop>
            <stop stop-color="#A6449F" offset="93.27%"></stop>
        </linearGradient>
    </defs>
    <g id="Page-8" stroke="none" stroke-width="1" fill="none" fill-rule="evenodd">
        <g id="Group-2">
            <circle id="Oval-2-Copy-8" stroke="url(#linearGradient-1)" stroke-width="2" cx="55.5" cy="55.5" r="54.5"></circle>
            <g id="like" transform="translate(36.000000, 37.000000)" fill-rule="nonzero">
                <g id="Layer_1">
                    <g id="Fill-1" transform="translate(0.000000, 3.786114)">
                        <path d="M38.6615385,24.6097424 C38.3923077,24.5015677 38.1230769,24.6097424 38.0153846,24.8801792 C37.3692308,26.5027996 35.8076923,27.5304591 34.1384615,27.5304591 L17.9846154,27.5304591 C17.8769231,27.5304591 17.7153846,27.5845465 17.6615385,27.6927212 L9.74615385,35.2649496 L9.74615385,28.0713326 C9.74615385,27.8008959 9.53076923,27.5845465 9.26153846,27.5845465 L5.54615385,27.5845465 C3.23076923,27.5845465 1.34615385,25.6914894 1.34615385,23.3657335 L1.34615385,5.89552072 C1.34615385,3.56976484 3.23076923,1.67670773 5.54615385,1.67670773 L23.0461538,1.67670773 C23.3153846,1.67670773 23.5307692,1.46035834 23.5307692,1.18992161 C23.5307692,0.919484882 23.3153846,0.703135498 23.0461538,0.703135498 L5.54615385,0.703135498 C2.69230769,0.703135498 0.323076923,3.02889138 0.323076923,5.94960806 L0.323076923,23.4739082 C0.323076923,26.3405375 2.63846154,28.7203807 5.54615385,28.7203807 L8.72307692,28.7203807 L8.72307692,36.5630459 C8.72307692,36.7793953 8.83076923,36.9416573 9.04615385,37.049832 C9.1,37.049832 9.20769231,37.1039194 9.26153846,37.1039194 C9.36923077,37.1039194 9.53076923,37.049832 9.63846154,36.9416573 L18.2,28.7203807 L34.1384615,28.7203807 C36.2384615,28.7203807 38.1769231,27.3681971 38.9846154,25.4210526 C39.0384615,25.0424412 38.9307692,24.7179171 38.6615385,24.6097424 Z" id="Shape" fill="url(#linearGradient-2)"></path>
                        <path d="M9.26153846,37.2120941 C9.15384615,37.2120941 9.04615385,37.2120941 8.93846154,37.1580067 C8.66923077,37.049832 8.45384615,36.7793953 8.45384615,36.4548712 L8.45384615,28.8826428 L5.54615385,28.8826428 C2.53076923,28.8826428 0.0538461538,26.3946249 0.0538461538,23.3657335 L0.0538461538,5.89552072 C0.0538461538,2.86662934 2.53076923,0.378611422 5.54615385,0.378611422 L23.0461538,0.378611422 C23.4769231,0.378611422 23.8,0.703135498 23.8,1.13583427 C23.8,1.56853303 23.4769231,1.89305711 23.0461538,1.89305711 L5.54615385,1.89305711 C3.39230769,1.89305711 1.61538462,3.67793953 1.61538462,5.84143337 L1.61538462,23.3657335 C1.61538462,25.5292273 3.39230769,27.3141097 5.54615385,27.3141097 L9.26153846,27.3141097 C9.69230769,27.3141097 10.0153846,27.6386338 10.0153846,28.0713326 L10.0153846,34.6159015 L17.3923077,27.5304591 C17.5538462,27.3681971 17.7153846,27.3141097 17.9307692,27.3141097 L34.0846154,27.3141097 C35.7,27.3141097 37.1538462,26.2864502 37.7461538,24.8260918 C37.9076923,24.4474804 38.3384615,24.231131 38.7692308,24.3933931 C39.1461538,24.5556551 39.3615385,24.9883539 39.2,25.4210526 C38.3923077,27.5304591 36.3461538,28.8826428 34.0846154,28.8826428 L18.2538462,28.8826428 L9.8,36.9957447 C9.63846154,37.1580067 9.42307692,37.2120941 9.26153846,37.2120941 Z M5.54615385,0.919484882 C2.8,0.919484882 0.592307692,3.13706607 0.592307692,5.89552072 L0.592307692,23.4198208 C0.592307692,26.1782755 2.8,28.3958567 5.54615385,28.3958567 L8.99230769,28.3958567 L8.99230769,36.5089586 C8.99230769,36.6171333 9.04615385,36.6712206 9.15384615,36.725308 C9.26153846,36.7793953 9.36923077,36.725308 9.42307692,36.6712206 L18.0384615,28.3958567 L34.0846154,28.3958567 C36.0769231,28.3958567 37.9615385,27.1518477 38.6615385,25.2587906 L38.6615385,25.0965286 C38.6615385,25.0424412 38.6076923,24.9883539 38.5538462,24.9883539 L38.5538462,24.9883539 C38.4461538,24.9342665 38.2846154,24.9883539 38.2307692,25.0965286 C37.5846154,26.7732363 35.9153846,27.9631579 34.0846154,27.9631579 L17.9307692,27.9631579 C17.8769231,27.9631579 17.8230769,27.9631579 17.7692308,28.0172452 L9.47692308,35.9139978 L9.47692308,28.0713326 C9.47692308,27.9631579 9.36923077,27.8549832 9.26153846,27.8549832 L5.54615385,27.8549832 C3.06923077,27.8549832 1.07692308,25.8537514 1.07692308,23.3657335 L1.07692308,5.89552072 C1.07692308,3.4075028 3.06923077,1.406271 5.54615385,1.406271 L23.0461538,1.406271 C23.1538462,1.406271 23.2615385,1.2980963 23.2615385,1.18992161 C23.2615385,1.08174692 23.1538462,0.973572228 23.0461538,0.973572228 L5.54615385,0.973572228 L5.54615385,0.919484882 Z" id="Shape" fill="url(#linearGradient-3)"></path>
                    </g>
                    <g id="Group" transform="translate(14.538462, 0.000000)">
                        <path d="M26.7615385,11.1960806 C26.2230769,9.84389698 24.9307692,8.97849944 23.4769231,8.97849944 L17.5538462,8.97849944 L17.5538462,4.65151176 C17.5538462,2.92071669 17.0692308,1.73079507 16.1,1.02765957 C14.5384615,-0.108174692 12.4384615,0.54087346 12.3307692,0.594960806 C12.1153846,0.649048152 11.9538462,0.865397536 11.9538462,1.08174692 L11.9538462,5.73325868 C11.9538462,7.30179171 11.2,8.65397536 9.74615385,9.73572228 C8.61538462,10.5470325 7.43076923,10.9256439 7.43076923,10.9256439 C7.37692308,10.9256439 7.32307692,10.9797312 7.26923077,10.9797312 C7.21538462,10.5470325 6.89230769,10.2765957 6.46153846,10.2765957 L1.45384615,10.2765957 C0.969230769,10.2765957 0.592307692,10.6552072 0.592307692,11.1419933 L0.592307692,24.4474804 C0.592307692,24.9342665 0.969230769,25.3128779 1.45384615,25.3128779 L6.46153846,25.3128779 C6.78461538,25.3128779 7.05384615,25.0965286 7.21538462,24.8260918 C7.86153846,25.5292273 8.83076923,26.0160134 9.85384615,26.0160134 L21.2692308,26.0160134 C23.6923077,26.0160134 25.2538462,24.7179171 25.5230769,22.5003359 L26.9769231,13.0891377 C27.0846154,12.3860022 26.9769231,11.7369541 26.7615385,11.1960806 Z M6.3,24.231131 L1.61538462,24.231131 L1.61538462,11.250168 L6.24615385,11.250168 L6.24615385,24.231131 L6.3,24.231131 Z M25.9538462,12.8727884 L24.5,22.2839866 L24.5,22.2839866 C24.2307692,24.4474804 22.5615385,24.8801792 21.2692308,24.8801792 L9.85384615,24.8801792 C8.45384615,24.8801792 7.32307692,23.7443449 7.32307692,22.3380739 L7.32307692,11.7910414 C7.43076923,11.8992161 7.59230769,11.8992161 7.75384615,11.8451288 C7.80769231,11.8451288 9.1,11.4665174 10.3923077,10.5470325 C12.1692308,9.30302352 13.0846154,7.62631579 13.0846154,5.73325868 L13.0846154,1.46035834 C13.6769231,1.35218365 14.7538462,1.24400896 15.5615385,1.83896976 C16.2615385,2.32575588 16.5846154,3.29932811 16.5846154,4.65151176 L16.5846154,9.46528555 C16.5846154,9.73572228 16.8,9.95207167 17.0692308,9.95207167 L23.4769231,9.95207167 C24.5,9.95207167 25.4153846,10.5470325 25.8461538,11.5206047 C25.9538462,12.0073908 26.0076923,12.4400896 25.9538462,12.8727884 Z" id="Shape" fill="url(#linearGradient-4)"></path>
                        <path d="M21.2153846,26.2323628 L9.85384615,26.2323628 C8.88461538,26.2323628 7.96923077,25.8537514 7.26923077,25.2047032 C7.05384615,25.4210526 6.78461538,25.5292273 6.46153846,25.5292273 L1.45384615,25.5292273 C0.861538462,25.5292273 0.323076923,25.0424412 0.323076923,24.3933931 L0.323076923,11.0879059 C0.323076923,10.4929451 0.807692308,9.95207167 1.45384615,9.95207167 L6.46153846,9.95207167 C6.89230769,9.95207167 7.26923077,10.2225084 7.43076923,10.5470325 C7.7,10.4388578 8.66923077,10.1143337 9.58461538,9.46528555 C10.9846154,8.49171333 11.6846154,7.19361702 11.6846154,5.73325868 L11.6846154,1.08174692 C11.6846154,0.757222844 11.9,0.432698768 12.2230769,0.324524076 C12.2230769,0.324524076 14.4846154,-0.432698768 16.2076923,0.81131019 C17.2307692,1.56853303 17.7692308,2.86662934 17.7692308,4.65151176 L17.7692308,8.70806271 L23.4230769,8.70806271 C24.9846154,8.70806271 26.3307692,9.62754759 26.9769231,11.0879059 L26.9769231,11.0879059 C27.2461538,11.6828667 27.3,12.3860022 27.1923077,13.0891377 L25.7384615,22.5003359 C25.4692308,24.8801792 23.8,26.2323628 21.2153846,26.2323628 Z M7.16153846,24.2852184 L7.43076923,24.5556551 C8.07692308,25.2587906 8.93846154,25.637402 9.85384615,25.637402 L21.2692308,25.637402 C23.5846154,25.637402 24.9846154,24.5015677 25.2538462,22.3921613 L26.7076923,12.980963 C26.8153846,12.3860022 26.7076923,11.7910414 26.4923077,11.3042553 L26.4923077,11.3042553 C25.9538462,10.0602464 24.7692308,9.24893617 23.4769231,9.24893617 L17.2846154,9.24893617 L17.2846154,4.65151176 C17.2846154,3.02889138 16.8538462,1.89305711 15.9384615,1.24400896 C14.4846154,0.216349384 12.4384615,0.81131019 12.4384615,0.81131019 C12.3307692,0.865397536 12.2769231,0.919484882 12.2769231,1.02765957 L12.2769231,5.67917133 C12.2769231,7.35587906 11.4692308,8.76215006 9.96153846,9.89798432 C8.93846154,10.6552072 7.86153846,11.0338186 7.53846154,11.0879059 L7.53846154,11.0879059 C7.48461538,11.0879059 7.48461538,11.0879059 7.43076923,11.1419933 L7.16153846,11.3583427 L7.43076923,11.574692 C7.48461538,11.6287794 7.53846154,11.6287794 7.64615385,11.6287794 C7.96923077,11.5206047 9.1,11.1419933 10.1769231,10.3847704 C11.8461538,9.19484882 12.7615385,7.57222844 12.7615385,5.78734602 L12.7615385,1.24400896 L12.9230769,1.18992161 C13.6769231,1.02765957 14.8076923,1.02765957 15.6153846,1.62262038 C16.3692308,2.16349384 16.7461538,3.19115342 16.7461538,4.65151176 L16.7461538,9.46528555 C16.7461538,9.57346025 16.8538462,9.68163494 16.9615385,9.68163494 L23.3692308,9.68163494 C24.5,9.68163494 25.5230769,10.3847704 25.9538462,11.41243 C26.1692308,11.8451288 26.2230769,12.3319149 26.1153846,12.8727884 L26.1153846,12.8727884 L24.7692308,22.3380739 C24.5538462,24.1770437 23.3153846,25.2047032 21.2692308,25.2047032 L9.8,25.2047032 C8.23846154,25.2047032 7,23.9606943 7,22.3921613 L7,11.250168 L7.05384615,11.3042553 L7,10.9797312 C6.94615385,10.7092945 6.73076923,10.4929451 6.46153846,10.4929451 L1.45384615,10.4929451 C1.13076923,10.4929451 0.861538462,10.7633819 0.861538462,11.0879059 L0.861538462,24.3933931 C0.861538462,24.7179171 1.13076923,24.9883539 1.45384615,24.9883539 L6.46153846,24.9883539 C6.67692308,24.9883539 6.89230769,24.8801792 7,24.6638298 L7.16153846,24.2852184 Z M7.53846154,12.1696529 L7.53846154,22.3921613 C7.53846154,23.6361702 8.56153846,24.6638298 9.8,24.6638298 L21.2153846,24.6638298 C22.9923077,24.6638298 24.0153846,23.8525196 24.2307692,22.2839866 L25.6846154,12.818701 C25.7384615,12.3860022 25.6846154,12.0073908 25.5230769,11.6828667 C25.2,10.8174692 24.3923077,10.2765957 23.4769231,10.2765957 L17.0153846,10.2765957 C16.5846154,10.2765957 16.2615385,9.95207167 16.2615385,9.5193729 L16.2615385,4.65151176 C16.2615385,3.35341545 15.9384615,2.48801792 15.3461538,2.05531915 C14.7,1.62262038 13.8923077,1.62262038 13.2461538,1.67670773 L13.2461538,5.73325868 C13.2461538,7.73449048 12.2769231,9.46528555 10.4461538,10.7633819 C9.31538462,11.574692 8.18461538,11.9533035 7.75384615,12.1155655 C7.7,12.1155655 7.64615385,12.1696529 7.53846154,12.1696529 Z M6.56923077,24.5015677 L1.4,24.5015677 L1.4,10.9797312 L6.56923077,10.9797312 L6.56923077,24.5015677 Z M1.88461538,23.9606943 L5.97692308,23.9606943 L5.97692308,11.5206047 L1.88461538,11.5206047 L1.88461538,23.9606943 Z" id="Shape" fill="url(#linearGradient-5)"></path>
                    </g>
                </g>
            </g>
        </g>
    </g>
</svg>