<?xml version="1.0" encoding="UTF-8" standalone="no"?>
<svg width="111px" height="111px" viewBox="0 0 111 111" version="1.1" xmlns="http://www.w3.org/2000/svg" xmlns:xlink="http://www.w3.org/1999/xlink">
    <!-- Generator: Sketch 43.1 (39012) - http://www.bohemiancoding.com/sketch -->
    <title>Group</title>
    <desc>Created with Sketch.</desc>
    <defs>
        <linearGradient x1="-0.044057971%" y1="-22.0036951%" x2="98.5066667%" y2="100.569094%" id="linearGradient-1">
            <stop stop-color="#1D9AD7" offset="0%"></stop>
            <stop stop-color="#A6449F" offset="100%"></stop>
        </linearGradient>
        <linearGradient x1="-106.536047%" y1="-14.5363095%" x2="288.812791%" y2="135.76131%" id="linearGradient-2">
            <stop stop-color="#1D9AD7" offset="0%"></stop>
            <stop stop-color="#A6449F" offset="100%"></stop>
        </linearGradient>
        <linearGradient x1="0%" y1="0%" x2="79.5235846%" y2="78.7439423%" id="linearGradient-3">
            <stop stop-color="#1D9AD7" offset="0%"></stop>
            <stop stop-color="#A6449F" offset="100%"></stop>
        </linearGradient>
    </defs>
    <g id="Page-8" stroke="none" stroke-width="1" fill="none" fill-rule="evenodd">
        <g id="Group">
            <g id="contentmanagement" transform="translate(36.000000, 34.000000)" fill-rule="nonzero">
                <g id="Layer_1">
                    <path d="M35.3785714,7.51578947 L27.1885714,7.51578947 C26.7428571,7.51578947 26.3528571,7.90263158 26.3528571,8.34473684 C26.3528571,8.78684211 26.7428571,9.17368421 27.1885714,9.17368421 L35.3785714,9.17368421 C36.3257143,9.17368421 37.05,9.89210526 37.05,10.8315789 L37.05,31.6657895 C37.05,32.6052632 36.3257143,33.3236842 35.3785714,33.3236842 L3.62142857,33.3236842 C2.67428571,33.3236842 1.95,32.6052632 1.95,31.6657895 L1.95,10.8315789 C1.95,9.89210526 2.67428571,9.17368421 3.62142857,9.17368421 L11.9228571,9.17368421 C12.3685714,9.17368421 12.7585714,8.78684211 12.7585714,8.34473684 C12.7585714,7.90263158 12.3685714,7.51578947 11.9228571,7.51578947 L3.62142857,7.51578947 C1.78285714,7.51578947 0.278571429,9.00789474 0.278571429,10.8315789 L0.278571429,31.6657895 C0.278571429,33.4894737 1.78285714,34.9815789 3.62142857,34.9815789 L18.6642857,34.9815789 L18.6642857,40.0105263 L11.6442857,40.0105263 C11.1985714,40.0105263 10.8085714,40.3973684 10.8085714,40.8394737 C10.8085714,41.2815789 11.1985714,41.6684211 11.6442857,41.6684211 L27.3557143,41.6684211 C27.8014286,41.6684211 28.1914286,41.2815789 28.1914286,40.8394737 C28.1914286,40.3973684 27.8014286,40.0105263 27.3557143,40.0105263 L20.3357143,40.0105263 L20.3357143,34.9815789 L35.3785714,34.9815789 C37.2171429,34.9815789 38.7214286,33.4894737 38.7214286,31.6657895 L38.7214286,10.8315789 C38.7214286,9.00789474 37.2171429,7.51578947 35.3785714,7.51578947 L35.3785714,7.51578947 Z" id="Shape" fill="url(#linearGradient-1)"></path>
                    <path d="M24.2914286,3.59210526 C24.2914286,1.76842105 22.7871429,0.276315789 20.9485714,0.276315789 L18.0514286,0.276315789 C16.2128571,0.276315789 14.7085714,1.76842105 14.7085714,3.59210526 L14.7085714,5.52631579 L14.7085714,5.69210526 L14.7085714,5.85789474 L14.7085714,22.2157895 C14.7085714,22.3815789 14.7642857,22.6026316 14.8757143,22.7131579 L18.7757143,27.7973684 C18.9428571,28.0184211 19.1657143,28.1289474 19.4442857,28.1289474 C19.7228571,28.1289474 19.9457143,28.0184211 20.1128571,27.7973684 L24.0128571,22.7131579 C24.1242857,22.5473684 24.18,22.3815789 24.18,22.2157895 L24.18,5.80263158 L24.18,5.69210526 L24.18,5.58157895 L24.2914286,3.59210526 L24.2914286,3.59210526 Z M16.4357143,6.35526316 L18.6642857,6.35526316 L18.6642857,21.2210526 L16.4357143,21.2210526 L16.4357143,6.35526316 Z M19.5,25.9184211 L17.16,22.8789474 L21.7842857,22.8789474 L19.5,25.9184211 Z M22.5642857,21.2210526 L20.3357143,21.2210526 L20.3357143,6.35526316 L22.5642857,6.35526316 L22.5642857,21.2210526 Z M22.5642857,4.69736842 L16.4357143,4.69736842 L16.4357143,3.59210526 C16.4357143,2.70789474 17.16,1.98947368 18.0514286,1.98947368 L20.9485714,1.98947368 C21.84,1.98947368 22.5642857,2.70789474 22.5642857,3.59210526 L22.5642857,4.69736842 L22.5642857,4.69736842 Z" id="Shape" fill="url(#linearGradient-2)"></path>
                </g>
            </g>
            <ellipse id="Oval-2-Copy-6" stroke="url(#linearGradient-3)" stroke-width="2" cx="55.5" cy="55.5" rx="54.5" ry="54.5"></ellipse>
        </g>
    </g>
</svg>