<?xml version="1.0" encoding="UTF-8" standalone="no"?>
<svg width="111px" height="111px" viewBox="0 0 111 111" version="1.1" xmlns="http://www.w3.org/2000/svg" xmlns:xlink="http://www.w3.org/1999/xlink">
    <!-- Generator: Sketch 43.1 (39012) - http://www.bohemiancoding.com/sketch -->
    <title>Group 2</title>
    <desc>Created with Sketch.</desc>
    <defs>
        <linearGradient x1="0%" y1="0%" x2="79.5235846%" y2="78.7439423%" id="linearGradient-1">
            <stop stop-color="#1D9AD7" offset="0%"></stop>
            <stop stop-color="#A6449F" offset="100%"></stop>
        </linearGradient>
        <linearGradient x1="-0.0404255319%" y1="0.636680054%" x2="99.9595745%" y2="99.3649264%" id="linearGradient-2">
            <stop stop-color="#1D9AD7" offset="0%"></stop>
            <stop stop-color="#A6449F" offset="100%"></stop>
        </linearGradient>
        <linearGradient x1="-255.177507%" y1="-87.0266775%" x2="351.16127%" y2="185.729884%" id="linearGradient-3">
            <stop stop-color="#1D9AD7" offset="0%"></stop>
            <stop stop-color="#A6449F" offset="100%"></stop>
        </linearGradient>
        <linearGradient x1="-227.669951%" y1="-189.76129%" x2="235.384236%" y2="242.790029%" id="linearGradient-4">
            <stop stop-color="#1D9AD7" offset="0%"></stop>
            <stop stop-color="#A6449F" offset="100%"></stop>
        </linearGradient>
        <linearGradient x1="-142.452261%" y1="-139.292394%" x2="329.909548%" y2="276.200563%" id="linearGradient-5">
            <stop stop-color="#1D9AD7" offset="0%"></stop>
            <stop stop-color="#A6449F" offset="100%"></stop>
        </linearGradient>
    </defs>
    <g id="Page-8" stroke="none" stroke-width="1" fill="none" fill-rule="evenodd">
        <g id="Group-2">
            <circle id="Oval-2-Copy-4" stroke="url(#linearGradient-1)" stroke-width="2" cx="55.5" cy="55.5" r="54.5"></circle>
            <g id="mobiledev" transform="translate(55.326923, 56.000000) rotate(-360.000000) translate(-55.326923, -56.000000) translate(42.000000, 35.000000)">
                <g id="Layer_1">
                    <g id="Group">
                        <path d="M2.165625,37.1782186 C2.165625,38.6764453 3.38725962,39.8972227 4.88653846,39.8972227 L22.1004808,39.8972227 C23.5997596,39.8972227 24.8213942,38.6764453 24.8213942,37.1782186 L24.8213942,36.2348907 L2.165625,36.2348907 L2.165625,37.1782186 Z" id="Shape"></path>
                        <path d="M22.1004808,1.88665587 L4.88653846,1.88665587 C3.38725962,1.88665587 2.165625,3.1074332 2.165625,4.60565992 L2.165625,5.32702834 L24.8213942,5.32702834 L24.8213942,4.60565992 C24.8213942,3.1074332 23.5997596,1.88665587 22.1004808,1.88665587 Z" id="Shape"></path>
                        <path d="M22.1004808,0.166469636 L4.88653846,0.166469636 C2.44326923,0.166469636 0.444230769,2.16410526 0.444230769,4.60565992 L0.444230769,37.1782186 C0.444230769,39.6197733 2.44326923,41.6174089 4.88653846,41.6174089 L22.1004808,41.6174089 C24.54375,41.6174089 26.5427885,39.6197733 26.5427885,37.1782186 L26.5427885,4.60565992 C26.4872596,2.16410526 24.54375,0.166469636 22.1004808,0.166469636 Z M2.11009615,6.9917247 L24.7658654,6.9917247 L24.7658654,34.5701943 L2.11009615,34.5701943 L2.11009615,6.9917247 Z M24.8213942,37.1782186 C24.8213942,38.6764453 23.5997596,39.8972227 22.1004808,39.8972227 L4.88653846,39.8972227 C3.38725962,39.8972227 2.165625,38.6764453 2.165625,37.1782186 L2.165625,36.2348907 L24.8213942,36.2348907 L24.8213942,37.1782186 Z M24.8213942,5.27153846 L2.165625,5.27153846 L2.165625,4.60565992 C2.165625,3.1074332 3.38725962,1.88665587 4.88653846,1.88665587 L22.1004808,1.88665587 C23.5997596,1.88665587 24.8213942,3.1074332 24.8213942,4.60565992 L24.8213942,5.27153846 L24.8213942,5.27153846 Z" id="Shape" fill="url(#linearGradient-2)" fill-rule="nonzero"></path>
                    </g>
                    <path d="M14.8262019,13.6505101 C14.3819712,13.5395304 13.9377404,13.8724696 13.8266827,14.3163887 L11.2168269,27.6339595 C11.1057692,28.0778785 11.4389423,28.5217976 11.8831731,28.6327773 L12.0497596,28.6327773 C12.4384615,28.6327773 12.8271635,28.3553279 12.8826923,27.9668988 L15.4925481,14.6493279 C15.5480769,14.2054089 15.2704327,13.7614899 14.8262019,13.6505101" id="Fill-5" fill="url(#linearGradient-3)" fill-rule="nonzero"></path>
                    <path d="M21.9338942,21.1416437 C21.9338942,21.0861538 21.9338942,21.0861538 21.9338942,21.1416437 L21.9338942,21.0861538 C21.9338942,21.0861538 21.9338942,21.0861538 21.9338942,21.030664 C21.9338942,21.030664 21.9338942,21.030664 21.9338942,20.9751741 C21.9338942,20.9751741 21.9338942,20.9751741 21.9338942,20.9196842 C21.9338942,20.9196842 21.9338942,20.9196842 21.9338942,20.8641943 C21.9338942,20.8641943 21.9338942,20.8641943 21.9338942,20.8087045 C21.9338942,20.8087045 21.9338942,20.8087045 21.9338942,20.7532146 C21.9338942,20.7532146 21.9338942,20.7532146 21.9338942,20.6977247 L21.9338942,20.6422348 L21.9338942,20.6422348 C21.9338942,20.6422348 21.9338942,20.5867449 21.8783654,20.5867449 L21.8783654,20.5867449 C21.8783654,20.5867449 21.8783654,20.5312551 21.8228365,20.5312551 L17.7692308,16.7024534 C17.4360577,16.3695142 16.8807692,16.3695142 16.5475962,16.7024534 C16.2144231,17.0353927 16.2144231,17.5902915 16.5475962,17.9232308 L19.8793269,21.2526235 L16.6586538,24.4710364 C16.3254808,24.8039757 16.3254808,25.3588745 16.6586538,25.6918138 C16.8252404,25.8582834 17.0473558,25.9137733 17.2694712,25.9137733 C17.4915865,25.9137733 17.7137019,25.8582834 17.8802885,25.6918138 L21.7673077,21.8075223 L21.8228365,21.7520324 L21.8228365,21.7520324 C21.8228365,21.7520324 21.8228365,21.6965425 21.8783654,21.6965425 L21.8783654,21.6965425 L21.8783654,21.6410526 C21.8783654,21.6410526 21.8783654,21.6410526 21.8783654,21.5855628 C21.8783654,21.5855628 21.8783654,21.5855628 21.8783654,21.5300729 C21.8783654,21.5300729 21.8783654,21.5300729 21.8783654,21.474583 C21.8783654,21.474583 21.8783654,21.474583 21.8783654,21.4190931 C21.8783654,21.4190931 21.8783654,21.4190931 21.8783654,21.3636032 C21.8783654,21.3636032 21.8783654,21.3636032 21.8783654,21.3081134 C21.8783654,21.3081134 21.8783654,21.3081134 21.8783654,21.2526235 C21.8783654,21.2526235 21.8783654,21.2526235 21.8783654,21.1971336 C21.8783654,21.1971336 21.8783654,21.1971336 21.8783654,21.1416437 C21.8783654,21.1416437 21.8783654,21.1416437 21.8783654,21.0861538 C21.8783654,21.0861538 21.8783654,21.0861538 21.8783654,21.030664 C21.9338942,21.1971336 21.9338942,21.1971336 21.9338942,21.1416437 L21.9338942,21.1416437 Z" id="Fill-6" fill="url(#linearGradient-4)" fill-rule="nonzero"></path>
                    <path d="M6.71899038,21.1416437 L9.99519231,17.8677409 C10.3283654,17.5348016 10.3283654,16.9799028 9.99519231,16.6469636 C9.66201923,16.3140243 9.10673077,16.3140243 8.77355769,16.6469636 L4.88653846,20.5312551 C4.88653846,20.5312551 4.88653846,20.5867449 4.83100962,20.5867449 L4.83100962,20.5867449 C4.83100962,20.5867449 4.83100962,20.5867449 4.77548077,20.6422348 L4.77548077,20.6422348 C4.77548077,20.6422348 4.77548077,20.6422348 4.77548077,20.6977247 C4.77548077,20.6977247 4.77548077,20.6977247 4.77548077,20.7532146 C4.77548077,20.7532146 4.77548077,20.7532146 4.77548077,20.8087045 C4.77548077,20.8087045 4.77548077,20.8087045 4.77548077,20.8641943 C4.77548077,20.8641943 4.77548077,20.8641943 4.77548077,20.9196842 L4.77548077,20.9751741 C4.77548077,20.9751741 4.77548077,20.9751741 4.77548077,21.030664 L4.77548077,21.0861538 C4.77548077,21.0861538 4.77548077,21.0861538 4.77548077,21.1416437 C4.77548077,21.1416437 4.77548077,21.1416437 4.77548077,21.1971336 C4.77548077,21.1971336 4.77548077,21.1971336 4.77548077,21.2526235 C4.77548077,21.2526235 4.77548077,21.2526235 4.77548077,21.3081134 C4.77548077,21.3081134 4.77548077,21.3081134 4.77548077,21.3636032 C4.77548077,21.3636032 4.77548077,21.3636032 4.77548077,21.4190931 C4.77548077,21.4190931 4.77548077,21.4190931 4.77548077,21.474583 C4.77548077,21.474583 4.77548077,21.474583 4.77548077,21.5300729 L4.77548077,21.5855628 C4.77548077,21.5855628 4.77548077,21.5855628 4.77548077,21.6410526 C4.77548077,21.6410526 4.77548077,21.6410526 4.77548077,21.6965425 C4.77548077,21.6965425 4.77548077,21.6965425 4.77548077,21.7520324 C4.77548077,21.7520324 4.77548077,21.7520324 4.77548077,21.8075223 C4.77548077,21.8075223 4.77548077,21.8075223 4.77548077,21.8630121 C4.77548077,21.8630121 4.77548077,21.8630121 4.77548077,21.918502 L4.77548077,21.9739919 L4.77548077,21.9739919 C4.77548077,21.9739919 4.77548077,22.0294818 4.83100962,22.0294818 L4.83100962,22.0294818 C4.83100962,22.0294818 4.83100962,22.0849717 4.88653846,22.0849717 L8.82908654,26.024753 C8.99567308,26.1912227 9.21778846,26.2467126 9.43990385,26.2467126 C9.66201923,26.2467126 9.88413462,26.1912227 10.0507212,26.024753 C10.3838942,25.6918138 10.3838942,25.136915 10.0507212,24.8039757 L6.71899038,21.1416437" id="Fill-7" fill="url(#linearGradient-5)" fill-rule="nonzero"></path>
                </g>
            </g>
        </g>
    </g>
</svg>