<?xml version="1.0" encoding="UTF-8" standalone="no"?>
<svg width="111px" height="111px" viewBox="0 0 111 111" version="1.1" xmlns="http://www.w3.org/2000/svg" xmlns:xlink="http://www.w3.org/1999/xlink">
    <!-- Generator: Sketch 43.1 (39012) - http://www.bohemiancoding.com/sketch -->
    <title>Group</title>
    <desc>Created with Sketch.</desc>
    <defs>
        <linearGradient x1="0%" y1="0%" x2="79.5235846%" y2="78.7439423%" id="linearGradient-1">
            <stop stop-color="#1D9AD7" offset="0%"></stop>
            <stop stop-color="#A6449F" offset="100%"></stop>
        </linearGradient>
        <linearGradient x1="-3.24064928%" y1="-1.95558336%" x2="101.975454%" y2="93.6614288%" id="linearGradient-2">
            <stop stop-color="#1D9AD7" offset="0%"></stop>
            <stop stop-color="#A6449F" offset="100%"></stop>
        </linearGradient>
    </defs>
    <g id="Page-8" stroke="none" stroke-width="1" fill="none" fill-rule="evenodd">
        <g id="Group">
            <ellipse id="Oval-2-Copy-5" stroke="url(#linearGradient-1)" stroke-width="2" cx="55.5" cy="55.5" rx="54.5" ry="54.5"></ellipse>
            <g id="magic-wand" transform="translate(58.000000, 56.000000) scale(-1, 1) translate(-58.000000, -56.000000) translate(37.000000, 30.000000)" fill="url(#linearGradient-2)">
                <g id="Group-5">
                    <path d="M38.9850635,47.8882244 L28.1217765,27.394364 L32.3592694,27.3887207 C32.7376768,27.38823 33.0825529,27.1753797 33.2494645,26.8399719 C33.4163761,26.5049321 33.3761385,26.1048717 33.1451448,25.8087216 L28.2736611,19.5538684 L30.7317572,12.0431374 C30.8481234,11.6879781 30.7501373,11.2978548 30.4790302,11.03765 C30.2077988,10.7769545 29.8105145,10.6912009 29.4539645,10.8163348 L21.9224514,13.4582543 L15.4578562,8.82854653 C15.1517274,8.60894886 14.7456255,8.5807324 14.410933,8.75469301 C14.0762405,8.92914435 13.8709542,9.27608413 13.8811377,9.64989089 L14.0989673,17.5363915 L7.63772519,22.1862188 C7.33209317,22.4061845 7.17921507,22.7785191 7.24379396,23.1465599 C7.30824866,23.5150914 7.57898324,23.8151673 7.94186692,23.9205497 L15.6081263,26.1551706 L18.0808768,33.6592769 C18.1982365,34.0148043 18.5092087,34.2736597 18.8836421,34.3267802 C18.9312069,34.3340184 18.9787718,34.33684 19.0258399,34.33684 C19.3503488,34.33684 19.6579678,34.1796866 19.8447499,33.9108941 L22.2780079,30.4072685 L33.1476286,50.9212485 C33.2698317,51.1522555 33.4804583,51.3257254 33.7326885,51.403382 C33.8291843,51.4330706 33.9286606,51.4479149 34.0281369,51.4479149 C34.1877213,51.4479149 34.3473057,51.409516 34.4913663,51.334313 L38.5682813,49.211331 C39.0524987,48.9593458 39.2392808,48.3674135 38.9850635,47.8882244 Z M23.0246392,25.8628236 L21.5702481,27.9574664 C21.5692546,27.9589385 21.5683853,27.95992 21.5673917,27.9613921 L19.3469956,31.1586851 L17.3362325,25.0563235 C17.2347692,24.7486414 16.9863888,24.5105191 16.6725603,24.4189996 L10.435854,22.6012461 L15.6915821,18.8187683 C15.955983,18.6284912 16.1088611,18.3217906 16.0995468,17.9988961 L15.9225758,11.5859081 L21.1792974,15.3502293 C21.4441951,15.5400156 21.7865874,15.5888424 22.0952,15.4805157 L28.2217496,13.3317709 L26.2220394,19.441248 C26.121197,19.74893 26.1803115,20.0853193 26.3797609,20.3417211 L30.3421726,25.4281674 L26.4981142,25.4334427 L26.4894209,25.4334427 L23.8425557,25.436755 C23.515563,25.4372458 23.2094342,25.5968528 23.0246392,25.8628236 Z M32.3093449,45.1059588 L23.5505846,28.5756522 L24.3675076,27.3992712 L25.8800197,27.3973083 L34.6238772,43.8925283 L32.3093449,45.1059588 Z M34.4462852,49.1390724 L33.2305876,46.8449515 L35.5459892,45.6316437 L36.7651641,47.9314079 L34.4462852,49.1390724 Z" id="Fill-1"></path>
                    <path d="M6.23487338,15.4483757 C6.61526788,15.4483757 6.97852414,15.2307409 7.14344869,14.8651537 C7.36612167,14.3696482 7.14009555,13.7897386 6.63898821,13.5697729 L1.45404849,11.294054 C0.952444382,11.0740883 0.365397435,11.2968756 0.142724455,11.7923812 C-0.0799485253,12.2878868 0.145705019,12.8677964 0.647309127,13.0877621 L5.83175208,15.363481 C5.96277272,15.421018 6.10000286,15.4483757 6.23487338,15.4483757 Z" id="Fill-3"></path>
                    <path d="M23.7843698,6.90960078 C23.9065729,6.95891824 24.0332469,6.98198213 24.157437,6.98198213 C24.549878,6.98198213 24.921455,6.7509752 25.078183,6.36956227 L27.094783,1.46186107 C27.3014355,0.959608075 27.0564083,0.386936612 26.5480979,0.183287377 C26.0396633,-0.0208525785 25.4604403,0.221563619 25.2537879,0.72332589 L23.2370637,5.63151781 C23.030908,6.13328008 23.2754384,6.70595154 23.7843698,6.90960078 Z" id="Fill-4"></path>
                </g>
                <path d="M10.4065332,29.3103382 L6.59054176,32.8667163 C6.19127035,33.2385601 6.1728902,33.8595676 6.54980738,34.2539847 C6.74528271,34.4586153 7.00869007,34.5621575 7.27259419,34.5621575 C7.51712464,34.5621575 7.76215185,34.4734597 7.95427404,34.2942238 L11.7701413,30.7379684 C12.1689159,30.3661245 12.1874203,29.7449943 11.8108757,29.3505773 C11.4344553,28.9562829 10.8058046,28.9380036 10.4065332,29.3103382 Z" id="Fill-6"></path>
                <path d="M34.4520928,18.614222 C34.5049979,19.118806 34.9363103,19.4945756 35.4387838,19.4945756 C35.4733086,19.4945756 35.5077093,19.4926127 35.5426068,19.4893003 L41.1089345,18.9199412 C41.6546261,18.8638764 42.0510411,18.3818656 41.9946588,17.8426859 C41.9379039,17.3035061 41.451451,16.9120334 40.9041449,16.9671168 L35.3379414,17.5369667 C34.7921255,17.5925408 34.3953379,18.075165 34.4520928,18.614222 Z" id="Fill-7"></path>
            </g>
        </g>
    </g>
</svg>