<?xml version="1.0" encoding="UTF-8" standalone="no"?>
<svg width="111px" height="111px" viewBox="0 0 111 111" version="1.1" xmlns="http://www.w3.org/2000/svg" xmlns:xlink="http://www.w3.org/1999/xlink">
    <!-- Generator: Sketch 43.1 (39012) - http://www.bohemiancoding.com/sketch -->
    <title>Group 2</title>
    <desc>Created with Sketch.</desc>
    <defs>
        <linearGradient x1="-0.744930732%" y1="-0.477866667%" x2="100.255274%" y2="100.284667%" id="linearGradient-1">
            <stop stop-color="#1D9AD7" offset="0%"></stop>
            <stop stop-color="#A6449F" offset="100%"></stop>
        </linearGradient>
        <linearGradient x1="-321.116511%" y1="-392.229354%" x2="188%" y2="199.331507%" id="linearGradient-2">
            <stop stop-color="#1D9AD7" offset="0%"></stop>
            <stop stop-color="#A6449F" offset="100%"></stop>
        </linearGradient>
        <linearGradient x1="-130.455331%" y1="-171.600726%" x2="340.514121%" y2="377.016334%" id="linearGradient-3">
            <stop stop-color="#1D9AD7" offset="0%"></stop>
            <stop stop-color="#A6449F" offset="100%"></stop>
        </linearGradient>
        <linearGradient x1="-282.466466%" y1="-338.964644%" x2="418.119919%" y2="458.627968%" id="linearGradient-4">
            <stop stop-color="#1D9AD7" offset="0%"></stop>
            <stop stop-color="#A6449F" offset="100%"></stop>
        </linearGradient>
        <linearGradient x1="0%" y1="0%" x2="79.5235846%" y2="78.7439423%" id="linearGradient-5">
            <stop stop-color="#1D9AD7" offset="0%"></stop>
            <stop stop-color="#A6449F" offset="100%"></stop>
        </linearGradient>
    </defs>
    <g id="Page-8" stroke="none" stroke-width="1" fill="none" fill-rule="evenodd">
        <g id="Group-2">
            <g id="devices" transform="translate(34.000000, 35.000000)" fill-rule="nonzero">
                <g id="Layer_1">
                    <g id="Group">
                        <path d="M43.4756098,17.192 L43.2512195,17.192 L43.2512195,3.248 C43.2512195,1.456 41.7926829,0 39.997561,0 L4.03902439,0 C2.24390244,0 0.785365854,1.456 0.785365854,3.248 L0.785365854,22.456 C0.785365854,24.248 2.24390244,25.704 4.03902439,25.704 L19.5219512,25.704 L18.7926829,28.112 C18.4,27.888 18.0073171,27.72 17.502439,27.72 L2.63658537,27.72 C1.34634146,27.72 0.336585366,28.728 0.336585366,30.016 L0.336585366,36.96 C0.336585366,38.248 1.34634146,39.256 2.63658537,39.256 L17.5585366,39.256 C18.8487805,39.256 19.8585366,38.248 19.8585366,36.96 L19.8585366,36.512 L27.6560976,36.512 L27.6560976,39.704 C27.6560976,40.992 28.6658537,42 29.9560976,42 L43.4195122,42 C44.7097561,42 45.7195122,40.992 45.7195122,39.704 L45.7195122,19.488 C45.7756098,18.2 44.7658537,17.192 43.4756098,17.192 Z M44.2609756,19.488 L44.2609756,36.736 L29.2268293,36.736 L29.2268293,19.488 C29.2268293,19.04 29.5634146,18.704 30.0121951,18.704 L43.4756098,18.704 C43.9243902,18.704 44.2609756,19.04 44.2609756,19.488 Z M27.7121951,27.44 L27.7121951,31.192 L27.095122,31.08 C26.4780488,30.968 25.9170732,30.464 25.804878,29.848 L24.795122,25.704 L27.7121951,25.704 L27.7121951,27.44 L27.7121951,27.44 Z M4.03902439,1.512 L39.997561,1.512 C40.9512195,1.512 41.6804878,2.296 41.6804878,3.192 L41.6804878,17.136 L30.0121951,17.136 C28.8341463,17.136 27.8804878,18.032 27.7121951,19.152 L2.35609756,19.152 L2.35609756,3.248 C2.35609756,2.296 3.08536585,1.512 4.03902439,1.512 Z M4.03902439,24.136 C3.08536585,24.136 2.35609756,23.352 2.35609756,22.456 L2.35609756,20.776 L27.7121951,20.776 L27.7121951,24.136 L4.03902439,24.136 Z M1.85121951,36.96 L1.85121951,29.96 C1.85121951,29.512 2.18780488,29.176 2.63658537,29.176 L15.3707317,29.176 L15.3707317,37.688 L2.63658537,37.688 C2.18780488,37.744 1.85121951,37.408 1.85121951,36.96 Z M18.3439024,36.96 C18.3439024,37.408 18.0073171,37.744 17.5585366,37.744 L16.8853659,37.744 L16.8853659,29.232 L17.5585366,29.232 C18.0073171,29.232 18.3439024,29.568 18.3439024,30.016 L18.3439024,36.96 Z M19.8585366,35 L19.8585366,29.96 C19.8585366,29.848 19.8585366,29.736 19.802439,29.624 C19.9146341,29.512 20.0268293,29.4 20.0268293,29.288 L21.0926829,25.648 L23.1121951,25.648 L24.2341463,30.184 C24.5146341,31.416 25.5243902,32.368 26.7585366,32.592 L27.6560976,32.76 L27.6560976,35 L19.8585366,35 L19.8585366,35 Z M43.4756098,40.488 L30.0121951,40.488 C29.5634146,40.488 29.2268293,40.152 29.2268293,39.704 L29.2268293,38.304 L44.2609756,38.304 L44.2609756,39.704 C44.2609756,40.096 43.9243902,40.488 43.4756098,40.488 Z" id="Fill-5" fill="url(#linearGradient-1)"></path>
                        <path d="M40.2219512,24.08 L35.1170732,29.176 L33.8829268,27.944 C33.602439,27.664 33.097561,27.664 32.8170732,27.944 C32.5365854,28.224 32.5365854,28.728 32.8170732,29.008 L34.6121951,30.8 C34.7804878,30.968 34.9487805,31.024 35.1731707,31.024 C35.3414634,31.024 35.5658537,30.968 35.7341463,30.8 L41.4,25.144 C41.6804878,24.864 41.6804878,24.36 41.4,24.08 C41.0073171,23.8 40.5585366,23.8 40.2219512,24.08 Z" id="Fill-1" fill="url(#linearGradient-2)"></path>
                        <path d="M20.8121951,14.112 C20.9804878,14.28 21.1487805,14.336 21.3731707,14.336 C21.597561,14.336 21.7658537,14.28 21.9341463,14.112 L28.1609756,7.896 C28.4414634,7.616 28.4414634,7.112 28.1609756,6.832 C27.8804878,6.552 27.3756098,6.552 27.095122,6.832 L21.3731707,12.488 L19.9146341,11.032 C19.6341463,10.752 19.1292683,10.752 18.8487805,11.032 C18.5682927,11.312 18.5682927,11.816 18.8487805,12.096 L20.8121951,14.112 Z" id="Fill-2" fill="url(#linearGradient-3)"></path>
                        <path d="M12.7341463,31.024 C12.4536585,30.744 11.9487805,30.744 11.6682927,31.024 L8.41463415,34.272 L7.68536585,33.6 C7.40487805,33.32 6.9,33.32 6.6195122,33.6 C6.33902439,33.88 6.33902439,34.384 6.6195122,34.664 L7.85365854,35.896 C8.02195122,36.064 8.1902439,36.12 8.41463415,36.12 C8.63902439,36.12 8.80731707,36.064 8.97560976,35.896 L12.7902439,32.088 C13.0146341,31.808 13.0146341,31.304 12.7341463,31.024 Z" id="Fill-3" fill="url(#linearGradient-4)"></path>
                    </g>
                </g>
            </g>
            <ellipse id="Oval-2-Copy-2" stroke="url(#linearGradient-5)" stroke-width="2" cx="55.5" cy="55.5" rx="54.5" ry="54.5"></ellipse>
        </g>
    </g>
</svg>