<?xml version="1.0" encoding="UTF-8" standalone="no"?>
<svg width="111px" height="111px" viewBox="0 0 111 111" version="1.1" xmlns="http://www.w3.org/2000/svg" xmlns:xlink="http://www.w3.org/1999/xlink">
    <!-- Generator: Sketch 43.1 (39012) - http://www.bohemiancoding.com/sketch -->
    <title>Group</title>
    <desc>Created with Sketch.</desc>
    <defs>
        <linearGradient x1="0%" y1="0%" x2="79.5235846%" y2="78.7439423%" id="linearGradient-1">
            <stop stop-color="#1D9AD7" offset="0%"></stop>
            <stop stop-color="#A6449F" offset="100%"></stop>
        </linearGradient>
        <linearGradient x1="-122.695433%" y1="-155.278114%" x2="104.859201%" y2="95.5636364%" id="linearGradient-2">
            <stop stop-color="#1D9AD7" offset="0%"></stop>
            <stop stop-color="#A6449F" offset="100%"></stop>
        </linearGradient>
        <linearGradient x1="-119.435626%" y1="-151.713907%" x2="104.245054%" y2="94.9748344%" id="linearGradient-3">
            <stop stop-color="#1D9AD7" offset="0%"></stop>
            <stop stop-color="#A6449F" offset="100%"></stop>
        </linearGradient>
        <linearGradient x1="-6.98405573%" y1="5.43150492%" x2="111.30805%" y2="110.213502%" id="linearGradient-4">
            <stop stop-color="#1D9AD7" offset="0%"></stop>
            <stop stop-color="#A6449F" offset="100%"></stop>
        </linearGradient>
        <linearGradient x1="-6.5136294%" y1="5.8722067%" x2="110.510413%" y2="109.922486%" id="linearGradient-5">
            <stop stop-color="#1D9AD7" offset="0%"></stop>
            <stop stop-color="#A6449F" offset="100%"></stop>
        </linearGradient>
    </defs>
    <g id="Page-8" stroke="none" stroke-width="1" fill="none" fill-rule="evenodd">
        <g id="Group">
            <ellipse id="Oval-2-Copy" stroke="url(#linearGradient-1)" stroke-width="2" cx="55.5" cy="55.5" rx="54.5" ry="54.5"></ellipse>
            <g id="user" transform="translate(34.000000, 34.000000)" fill-rule="nonzero">
                <g id="Layer_1">
                    <g id="user-_x28_1_x29_" transform="translate(0.230347, 0.082656)">
                        <g id="Fill-1" transform="translate(24.003797, 24.376096)">
                            <path d="M19.0355696,5.37382127 C18.7564557,2.43760965 16.5235443,0.332401316 13.7882278,0.332401316 C12.0577215,0.332401316 10.6063291,1.38500548 9.71316456,2.60381031 C8.76417722,1.32960526 7.31278481,0.332401316 5.63810127,0.332401316 C2.90278481,0.332401316 0.669873418,2.43760965 0.390759494,5.37382127 C0.334936709,5.54002193 0.279113924,6.26022478 0.558227848,7.31282895 C0.948987342,8.86403509 1.8421519,10.3044408 3.18189873,11.4678454 L9.21075949,16.5646656 C9.37822785,16.675466 9.5456962,16.7862664 9.76898734,16.7862664 C9.99227848,16.7862664 10.1597468,16.7308662 10.3272152,16.5646656 L16.3560759,11.4678454 C17.6958228,10.359841 18.5889873,8.91943531 18.9797468,7.31282895 C19.1472152,6.26022478 19.0913924,5.59542215 19.0355696,5.37382127 Z M17.4725316,6.98042763 C17.1375949,8.25463268 16.4118987,9.41803728 15.295443,10.359841 L9.71316456,15.1242599 L4.07506329,10.359841 C2.95860759,9.41803728 2.23291139,8.25463268 1.89797468,6.98042763 C1.67468354,6.09402412 1.73050633,5.65082237 1.73050633,5.65082237 L1.73050633,5.59542215 C1.89797468,3.71181469 3.2935443,1.82820724 5.5264557,1.82820724 C7.08949367,1.82820724 8.37341772,3.10241228 8.98746835,4.43201754 L9.65734177,5.92782346 L10.3272152,4.43201754 C10.885443,3.1578125 12.1693671,1.82820724 13.7882278,1.82820724 C16.076962,1.82820724 17.4167089,3.71181469 17.5841772,5.65082237 C17.64,5.59542215 17.6958228,6.09402412 17.4725316,6.98042763 Z" id="Shape" fill="url(#linearGradient-2)"></path>
                            <path d="M9.71316456,16.8970669 C9.48987342,16.8970669 9.26658228,16.7862664 9.04329114,16.675466 L3.01443038,11.5786458 C1.67468354,10.4152412 0.725696203,8.97483553 0.334936709,7.36822917 C0.0558227848,6.315625 0.11164557,5.59542215 0.167468354,5.37382127 C0.446582278,2.38220943 2.73531646,0.166200658 5.58227848,0.166200658 C7.08949367,0.166200658 8.59670886,0.941803728 9.65734177,2.38220943 C10.7179747,0.997203947 12.2251899,0.166200658 13.7324051,0.166200658 C16.5793671,0.166200658 18.8122785,2.32680921 19.1472152,5.37382127 C19.203038,5.65082237 19.2588608,6.315625 18.9797468,7.36822917 C18.5889873,8.97483553 17.64,10.4152412 16.3002532,11.5786458 L10.383038,16.675466 C10.1597468,16.8416667 9.9364557,16.8970669 9.71316456,16.8970669 Z M5.63810127,0.498601974 C2.95860759,0.498601974 0.837341772,2.54841009 0.558227848,5.37382127 C0.502405063,5.59542215 0.446582278,6.26022478 0.725696203,7.25742873 C1.1164557,8.80863487 2.00962025,10.1936404 3.2935443,11.3016447 L9.32240506,16.3984649 C9.60151899,16.6200658 9.9364557,16.6200658 10.2155696,16.3984649 L16.1886076,11.357045 C17.4725316,10.2490406 18.3656962,8.86403509 18.7564557,7.31282895 C18.9797468,6.315625 18.9797468,5.65082237 18.9239241,5.42922149 L18.9239241,5.42922149 C18.6448101,2.60381031 16.5235443,0.554002193 13.8440506,0.554002193 C12.3368354,0.554002193 10.885443,1.38500548 9.88063291,2.77001096 L9.76898734,2.93621162 L9.65734177,2.77001096 C8.54088608,1.32960526 7.08949367,0.498601974 5.63810127,0.498601974 Z M9.71316456,15.3458607 L3.96341772,10.4706414 C2.84696203,9.52883772 2.06544304,8.31003289 1.73050633,6.98042763 C1.50721519,6.09402412 1.56303797,5.59542215 1.56303797,5.54002193 L1.56303797,5.48462171 C1.73050633,3.54561404 3.18189873,1.55120614 5.5264557,1.55120614 C7.20113924,1.55120614 8.54088608,2.8808114 9.09911392,4.21041667 L9.60151899,5.37382127 L10.1039241,4.21041667 C10.7179747,2.8808114 12.0577215,1.55120614 13.6765823,1.55120614 C16.0211392,1.55120614 17.4725316,3.54561404 17.64,5.54002193 L17.64,5.54002193 C17.6958228,5.76162281 17.64,6.37102522 17.5283544,6.98042763 C17.1934177,8.31003289 16.4118987,9.4734375 15.295443,10.4706414 L9.71316456,15.3458607 Z M5.63810127,1.93900768 C3.46101266,1.93900768 2.17708861,3.76721491 2.00962025,5.54002193 L2.00962025,5.59542215 C2.00962025,5.59542215 1.95379747,6.09402412 2.12126582,6.86962719 C2.45620253,8.14383224 3.18189873,9.25183662 4.24253165,10.1936404 L9.71316456,14.9580592 L15.2396203,10.2490406 C16.3002532,9.36263706 17.0259494,8.19923246 17.3608861,6.92502741 L17.3608861,6.92502741 C17.5283544,6.26022478 17.5283544,5.81702303 17.5283544,5.65082237 L17.5283544,5.65082237 L17.5283544,5.59542215 C17.3608861,3.82261513 16.1327848,1.88360746 13.8998734,1.88360746 C12.3926582,1.88360746 11.164557,3.1578125 10.6063291,4.37661732 L9.82481013,6.20482456 L8.93164557,4.43201754 C8.37341772,3.21321272 7.14531646,1.93900768 5.63810127,1.93900768 Z" id="Shape" fill="url(#linearGradient-3)"></path>
                        </g>
                        <g id="Fill-2">
                            <path d="M22.6640506,22.7694901 C22.4965823,22.5478893 21.8825316,21.7722862 21.268481,20.6088816 L21.2126582,20.5534814 L21.2126582,20.5534814 C21.1568354,20.3872807 21.0451899,20.22108 20.9893671,20.0548794 L20.9335443,19.9994792 C20.8777215,19.8886787 20.8777215,19.8332785 20.8218987,19.7224781 C20.8218987,19.6670779 20.7660759,19.6670779 20.7660759,19.6116776 C20.7102532,19.5008772 20.7102532,19.445477 20.6544304,19.3346765 C20.5986076,19.1130757 20.486962,18.946875 20.4311392,18.7252741 L20.3753165,18.5590735 C20.3194937,18.3374726 20.2636709,18.1158717 20.2078481,17.8942708 L20.2078481,17.8942708 L20.2078481,17.8388706 L20.1520253,17.6172697 L19.9287342,17.4510691 C19.5379747,17.174068 19.2588608,16.7308662 19.2588608,16.2322643 L19.2588608,13.2960526 C19.2588608,12.9082511 19.4263291,12.5204496 19.7612658,12.2434485 L19.984557,12.0218476 L19.984557,7.31282895 L19.984557,7.31282895 C19.984557,6.81422697 19.984557,5.20762061 21.1568354,3.87801535 C22.3291139,2.54841009 24.394557,1.82820724 27.241519,1.82820724 C30.0326582,1.82820724 32.0981013,2.49300987 33.2703797,3.87801535 C34.6659494,5.42922149 34.4426582,7.47902961 34.4426582,7.47902961 L34.4426582,12.0218476 L34.6659494,12.2434485 C35.0008861,12.5204496 35.1683544,12.8528509 35.1683544,13.2960526 L35.1683544,16.176864 C35.1683544,16.7862664 34.7775949,17.3402686 34.1635443,17.5618695 C33.7727848,17.67267 33.5494937,18.0604715 33.6611392,18.448273 C33.7727848,18.8360746 34.1635443,19.0576754 34.5543038,18.946875 C35.7824051,18.5590735 36.6197468,17.5064693 36.6197468,16.2322643 L36.6197468,13.2960526 C36.6197468,12.63125 36.3406329,11.9664474 35.8940506,11.4124452 L35.8940506,7.58983004 C35.9498734,7.20202851 36.061519,4.8752193 34.3868354,2.93621162 C32.8796203,1.27420504 30.4792405,0.387801535 27.241519,0.387801535 C24.0037975,0.387801535 21.6034177,1.21880482 20.0962025,2.93621162 C19.0913924,4.09961623 18.7006329,5.42922149 18.5889873,6.37102522 C17.3608861,5.76162281 15.9094937,5.42922149 14.2348101,5.42922149 C6.75455696,5.42922149 6.30797468,11.7448465 6.30797468,11.8556469 L6.30797468,15.1242599 C5.86139241,15.6228618 5.58227848,16.2322643 5.58227848,16.7862664 L5.58227848,19.2792763 C5.58227848,20.0548794 5.91721519,20.7750822 6.53126582,21.2736842 C7.14531646,23.489693 8.59670886,25.2070998 9.15493671,25.761102 L9.15493671,27.7001096 C9.15493671,28.2541118 8.87582278,28.7527138 8.31759494,29.0851151 L3.51683544,32.076727 C1.67468354,33.0739309 0.558227848,34.9575384 0.558227848,37.0627467 L0.558227848,39.7773575 L20.0403797,39.7773575 C20.4311392,39.7773575 20.7660759,39.4449561 20.7660759,39.0571546 C20.7660759,38.6693531 20.4311392,38.3369518 20.0403797,38.3369518 L12.1135443,38.3369518 L12.1135443,36.7303454 C12.1135443,34.9021382 13.1183544,33.1847314 14.7372152,32.2983279 L21.1568354,28.808114 C22.2174684,28.2541118 22.8873418,27.1461075 22.8873418,25.9273026 L22.8873418,23.0464912 L22.7198734,22.8248904 C22.7198734,22.8248904 22.7198734,22.8248904 22.6640506,22.7694901 Z M21.4359494,25.9273026 C21.4359494,26.5921053 21.0451899,27.2569079 20.4311392,27.5893092 L18.5331646,28.6419134 L18.0865823,28.9189145 L14.011519,31.1349232 C11.9460759,32.2429276 10.6063291,34.4589364 10.6063291,36.7857456 L10.6063291,38.392352 L1.95379747,38.392352 L1.95379747,37.1181469 C1.95379747,35.5669408 2.79113924,34.1265351 4.24253165,33.350932 L9.04329114,30.3593202 C9.99227848,29.805318 10.6063291,28.808114 10.6063291,27.7001096 L10.6063291,25.1516996 L10.383038,24.9300987 C10.383038,24.9300987 8.42924051,23.1018914 7.87101266,20.6642818 L7.81518987,20.3872807 L7.59189873,20.22108 C7.25696203,19.9994792 7.03367089,19.6670779 7.03367089,19.2792763 L7.03367089,16.7862664 C7.03367089,16.5092654 7.20113924,16.2322643 7.53607595,15.9552632 L7.75936709,15.7336623 L7.75936709,11.9110471 C7.75936709,11.6894463 8.15012658,6.86962719 14.2348101,6.86962719 C15.9653165,6.86962719 17.4167089,7.25742873 18.5889873,8.0330318 L18.5889873,11.4124452 C18.1424051,11.9110471 17.8632911,12.63125 17.8632911,13.2960526 L17.8632911,16.176864 C17.8632911,16.675466 18.0307595,17.174068 18.2540506,17.6172697 C18.421519,17.8942708 18.6448101,18.1712719 18.9239241,18.3928728 L18.9239241,18.448273 C18.9797468,18.6144737 19.0355696,18.7806743 19.0355696,18.8914748 L19.0913924,19.1130757 C19.0913924,19.1684759 19.0913924,19.1684759 19.1472152,19.2238761 C19.1472152,19.2792763 19.203038,19.3900768 19.203038,19.445477 C19.2588608,19.5562774 19.3146835,19.7224781 19.3705063,19.8332785 C19.3705063,19.8886787 19.4263291,19.9440789 19.4263291,19.9994792 C19.4821519,20.1656798 19.5379747,20.3318805 19.5937975,20.4426809 C19.5937975,20.4980811 19.5937975,20.4980811 19.6496203,20.5534814 L19.705443,20.6642818 C19.705443,20.719682 19.7612658,20.719682 19.7612658,20.7750822 C19.8170886,20.9412829 19.8729114,21.0520833 19.984557,21.218284 C19.984557,21.218284 19.984557,21.2736842 20.0403797,21.2736842 L20.0962025,21.3844846 C20.0962025,21.4398849 20.1520253,21.4398849 20.1520253,21.4398849 C20.2636709,21.6614857 20.3753165,21.8830866 20.486962,22.0492873 L20.5427848,22.1046875 C20.6544304,22.3262884 20.7660759,22.492489 20.8777215,22.6586897 C20.8777215,22.6586897 20.8777215,22.6586897 20.8777215,22.7140899 C21.1010127,23.1018914 21.3243038,23.3788925 21.4359494,23.5450932 L21.4359494,25.9273026 L21.4359494,25.9273026 Z" id="Shape" fill="url(#linearGradient-4)"></path>
                            <path d="M20.0403797,39.8881579 L0.390759494,39.8881579 L0.390759494,37.0073465 C0.390759494,34.8467379 1.56303797,32.9077303 3.46101266,31.9105263 L8.26177215,28.9189145 C8.76417722,28.6419134 9.04329114,28.1987116 9.04329114,27.7001096 L9.04329114,25.8165022 C8.42924051,25.1516996 7.03367089,23.489693 6.41962025,21.3290844 C5.80556962,20.8304825 5.47063291,20.0548794 5.47063291,19.2792763 L5.47063291,16.7862664 C5.47063291,16.176864 5.69392405,15.5674616 6.19632911,15.0688596 L6.19632911,11.8556469 C6.19632911,11.5786458 6.75455696,5.26302083 14.2906329,5.26302083 C15.8536709,5.26302083 17.3050633,5.54002193 18.5331646,6.14942434 C18.6448101,5.20762061 19.0355696,3.98881579 20.0403797,2.82541118 C21.5475949,1.10800439 24.0037975,0.221600877 27.2973418,0.221600877 C30.5908861,0.221600877 33.0470886,1.10800439 34.5543038,2.82541118 C36.3406329,4.8752193 36.1173418,7.31282895 36.1173418,7.58983004 L36.1173418,11.3016447 C36.5639241,11.8556469 36.843038,12.5204496 36.843038,13.2406524 L36.843038,16.1214638 C36.843038,17.4510691 35.9498734,18.6144737 34.6659494,19.0022752 C34.2193671,19.1684759 33.716962,18.8914748 33.5494937,18.448273 C33.4936709,18.2266721 33.4936709,18.0050713 33.6053165,17.7834704 C33.716962,17.5618695 33.8844304,17.4510691 34.1077215,17.3402686 C34.6659494,17.174068 35.0008861,16.675466 35.0008861,16.1214638 L35.0008861,13.2960526 C35.0008861,12.9636513 34.8334177,12.63125 34.5543038,12.3542489 L34.2751899,12.0772478 L34.2751899,7.47902961 C34.2751899,7.42362939 34.498481,5.48462171 33.1587342,3.98881579 C31.9864557,2.65921053 29.9768354,1.99440789 27.241519,1.99440789 C24.4503797,1.99440789 22.4407595,2.65921053 21.3243038,3.98881579 C20.2636709,5.20762061 20.1520253,6.70342654 20.2078481,7.20202851 L20.2078481,7.20202851 L20.2078481,7.31282895 L20.2078481,12.0772478 L19.9287342,12.3542489 C19.6496203,12.63125 19.4821519,12.9636513 19.4821519,13.2960526 L19.4821519,16.176864 C19.4821519,16.6200658 19.705443,17.0078673 20.0962025,17.2294682 L20.3753165,17.4510691 L20.486962,17.8388706 C20.5427848,18.0050713 20.5986076,18.2820724 20.6544304,18.448273 L20.7102532,18.6144737 C20.7660759,18.8360746 20.8218987,19.0022752 20.9335443,19.2238761 C20.9893671,19.3346765 20.9893671,19.445477 21.0451899,19.5008772 C21.0451899,19.5562774 21.1010127,19.6116776 21.1010127,19.6116776 C21.1568354,19.6670779 21.1568354,19.7778783 21.2126582,19.8332785 L21.2126582,19.9440789 C21.268481,20.1102796 21.3801266,20.2764803 21.4359494,20.4426809 L21.4917722,20.5534814 C22.05,21.6614857 22.6082278,22.4370888 22.831519,22.7140899 L22.8873418,22.7694901 L23.1106329,22.991091 L23.1106329,25.9273026 C23.1106329,27.2015077 22.3849367,28.3649123 21.268481,28.9743147 L14.8488608,32.4645285 C13.2858228,33.2955318 12.2810127,34.9575384 12.2810127,36.7303454 L12.2810127,38.1707511 L20.0403797,38.1707511 C20.5427848,38.1707511 20.9335443,38.5585526 20.9335443,39.0571546 C20.9335443,39.5557566 20.486962,39.8881579 20.0403797,39.8881579 Z M0.725696203,39.6111568 L20.0403797,39.6111568 C20.3194937,39.6111568 20.5986076,39.3341557 20.5986076,39.0571546 C20.5986076,38.7801535 20.3753165,38.5031524 20.0403797,38.5031524 L11.9460759,38.5031524 L11.9460759,36.7303454 C11.9460759,34.8467379 13.0067089,33.0739309 14.6813924,32.1875274 L21.1010127,28.6973136 C22.1058228,28.1433114 22.7756962,27.0907072 22.7756962,25.9273026 L22.7756962,23.1018914 L22.6640506,22.9356908 C22.6640506,22.9356908 22.6640506,22.8802906 22.6082278,22.8802906 L22.6082278,22.8802906 C22.3849367,22.6032895 21.7708861,21.7722862 21.2126582,20.6642818 L21.1568354,20.5534814 C21.1010127,20.3872807 20.9893671,20.22108 20.9335443,20.0548794 L20.8777215,19.8886787 C20.8218987,19.8332785 20.8218987,19.7224781 20.7660759,19.6670779 C20.7660759,19.6116776 20.7660759,19.6116776 20.7102532,19.5562774 C20.6544304,19.445477 20.6544304,19.3346765 20.5986076,19.2238761 C20.5427848,19.0576754 20.4311392,18.8360746 20.3753165,18.6144737 L20.3194937,18.448273 C20.2636709,18.2266721 20.2078481,18.0050713 20.1520253,17.7834704 L20.1520253,17.7280702 L20.1520253,17.7280702 L20.0962025,17.5064693 L19.9287342,17.3956689 C19.4821519,17.1186678 19.203038,16.6200658 19.203038,16.0660636 L19.203038,13.2960526 C19.203038,12.8528509 19.3705063,12.4096491 19.7612658,12.132648 L19.9287342,11.9664474 L19.9287342,7.42362939 L19.9287342,7.36822917 C19.8729114,6.75882675 19.984557,5.15222039 21.1568354,3.82261513 C22.2732911,2.38220943 24.3387342,1.66200658 27.241519,1.66200658 C30.088481,1.66200658 32.1539241,2.38220943 33.3820253,3.76721491 C34.8334177,5.42922149 34.6101266,7.47902961 34.6101266,7.53442982 L34.6101266,11.9664474 L34.7775949,12.132648 C35.1125316,12.4650493 35.3358228,12.8528509 35.3358228,13.2960526 L35.3358228,16.176864 C35.3358228,16.8970669 34.8892405,17.5064693 34.2193671,17.67267 C34.0518987,17.7280702 33.9402532,17.8388706 33.8844304,17.9496711 C33.8286076,18.0604715 33.7727848,18.2266721 33.8286076,18.3928728 C33.9402532,18.6698739 34.2193671,18.8360746 34.5543038,18.7806743 C35.7265823,18.448273 36.5081013,17.3956689 36.5081013,16.2322643 L36.5081013,13.2960526 C36.5081013,12.63125 36.2848101,12.0218476 35.8382278,11.5232456 L35.7265823,11.4678454 L35.7265823,7.58983004 C35.7265823,7.31282895 35.9498734,4.93061952 34.2751899,3.04701206 C32.8237975,1.38500548 30.4234177,0.554002193 27.241519,0.554002193 C24.0037975,0.554002193 21.6592405,1.38500548 20.2078481,3.04701206 C19.203038,4.21041667 18.8681013,5.48462171 18.7564557,6.37102522 L18.7564557,6.5926261 L18.5331646,6.48182566 C17.3050633,5.87242325 15.9094937,5.54002193 14.2348101,5.54002193 C6.9778481,5.54002193 6.47544304,11.5786458 6.47544304,11.8556469 L6.47544304,15.1796601 L6.41962025,15.2350603 C5.97303797,15.7336623 5.74974684,16.2322643 5.74974684,16.7862664 L5.74974684,19.2792763 C5.74974684,19.9994792 6.08468354,20.6642818 6.64291139,21.1074836 L6.69873418,21.1628838 L6.69873418,21.218284 C7.25696203,23.3788925 8.70835443,25.0408991 9.26658228,25.6503015 L9.32240506,25.7057018 L9.32240506,27.7001096 C9.32240506,28.3095121 8.98746835,28.9189145 8.37341772,29.1959156 L3.57265823,32.1875274 C1.78632911,33.1847314 0.669873418,35.0129386 0.669873418,37.0073465 L0.669873418,39.6111568 L0.725696203,39.6111568 Z M10.8296203,38.5031524 L1.8421519,38.5031524 L1.8421519,37.0627467 C1.8421519,35.4561404 2.73531646,33.9603344 4.18670886,33.1847314 L8.98746835,30.1931195 C9.88063291,29.6945175 10.4946835,28.7527138 10.4946835,27.7001096 L10.4946835,25.2070998 L10.3272152,25.0408991 C10.1039241,24.8192982 8.31759494,23.0464912 7.75936709,20.719682 L7.7035443,20.4980811 L7.53607595,20.3872807 C7.14531646,20.1656798 6.92202532,19.7224781 6.92202532,19.2792763 L6.92202532,16.7862664 C6.92202532,16.5092654 7.14531646,16.1214638 7.48025316,15.8444627 L7.64772152,15.6782621 L7.64772152,11.9110471 C7.64772152,11.8556469 7.98265823,6.70342654 14.2906329,6.70342654 C16.0211392,6.70342654 17.5283544,7.09122807 18.7006329,7.92223136 L18.7564557,7.97763158 L18.7564557,11.5232456 L18.7006329,11.5786458 C18.2540506,12.0772478 18.0307595,12.6866502 18.0307595,13.3514529 L18.0307595,16.2322643 C18.0307595,16.675466 18.1424051,17.174068 18.421519,17.5618695 C18.5889873,17.8942708 18.8122785,18.1158717 19.0355696,18.3374726 L19.0913924,18.3928728 L19.0913924,18.448273 L18.9239241,18.5590735 L19.0913924,18.5036732 C19.1472152,18.6698739 19.1472152,18.8360746 19.203038,18.946875 L19.4263291,19.6116776 C19.4263291,19.6670779 19.4821519,19.7778783 19.5379747,19.8332785 L19.5937975,19.8886787 C19.5937975,19.9440789 19.5937975,19.9440789 19.6496203,19.9994792 C19.705443,20.1656798 19.7612658,20.2764803 19.8170886,20.4426809 C19.8170886,20.4426809 19.8170886,20.4980811 19.8729114,20.4980811 L19.9287342,20.6642818 C19.9287342,20.6642818 19.9287342,20.719682 19.984557,20.719682 L20.2078481,21.1628838 C20.2078481,21.1628838 20.2078481,21.1628838 20.2078481,21.218284 L20.3194937,21.3844846 C20.4311392,21.6614857 20.5427848,21.8276864 20.6544304,22.0492873 L20.7102532,22.1046875 C20.8218987,22.3262884 20.9335443,22.492489 21.0451899,22.6586897 L21.1010127,22.7140899 C21.3243038,23.1018914 21.5475949,23.3788925 21.6592405,23.489693 L21.7150633,23.5450932 L21.7150633,25.9827029 C21.7150633,26.7583059 21.3243038,27.4231086 20.6544304,27.7555099 L14.2348101,31.2457237 C12.1693671,32.3537281 10.9412658,34.4589364 10.9412658,36.7857456 L10.9412658,38.5031524 L10.8296203,38.5031524 Z M2.17708861,38.1707511 L10.4946835,38.1707511 L10.4946835,36.7303454 C10.4946835,34.2927357 11.8344304,32.076727 13.9556962,30.9133224 L20.3753165,27.4231086 C20.9335443,27.1461075 21.268481,26.536705 21.268481,25.9273026 L21.268481,23.6004934 C21.1568354,23.4342928 20.9335443,23.1572917 20.7102532,22.8248904 C20.5986076,22.6032895 20.486962,22.4370888 20.3194937,22.2154879 L20.2636709,22.1600877 C20.1520253,21.9384868 20.0403797,21.7722862 19.9287342,21.5506853 C19.9287342,21.4952851 19.8729114,21.4952851 19.8729114,21.4952851 L19.5937975,20.8858827 C19.5937975,20.8304825 19.5937975,20.8304825 19.5379747,20.8304825 L19.4821519,20.6642818 C19.4821519,20.6088816 19.4821519,20.6088816 19.4263291,20.5534814 C19.3705063,20.3872807 19.3146835,20.22108 19.2588608,20.1102796 C19.2588608,20.0548794 19.2588608,20.0548794 19.203038,20.0548794 C19.203038,20.0548794 19.203038,19.9994792 19.1472152,19.9440789 C19.0913924,19.8886787 19.0913924,19.7778783 19.0355696,19.7224781 L18.8122785,19.0576754 C18.7564557,18.8914748 18.7006329,18.7252741 18.7006329,18.5590735 L18.7006329,18.5590735 C18.421519,18.3374726 18.1982278,18.0604715 18.0307595,17.7280702 C17.7516456,17.2294682 17.5841772,16.7308662 17.5841772,16.2322643 L17.5841772,13.2960526 C17.5841772,12.5758498 17.8632911,11.9110471 18.3098734,11.357045 L18.3098734,8.14383224 C17.1934177,7.42362939 15.7978481,7.03582785 14.1231646,7.03582785 C8.15012658,7.03582785 7.81518987,11.7448465 7.81518987,11.9110471 L7.81518987,15.8444627 L7.53607595,16.1214638 C7.25696203,16.3430647 7.08949367,16.6200658 7.08949367,16.8416667 L7.08949367,19.3346765 C7.08949367,19.6670779 7.25696203,19.9440789 7.53607595,20.1656798 L7.81518987,20.3318805 L7.87101266,20.6642818 C8.37341772,22.9356908 10.1039241,24.6530976 10.3272152,24.8192982 L10.6063291,25.0962993 L10.6063291,27.7001096 C10.6063291,28.8635143 9.99227848,29.9161184 8.98746835,30.4701206 L4.18670886,33.4617325 C2.84696203,34.1819353 2.00962025,35.5669408 2.00962025,37.0627467 L2.00962025,38.1707511 L2.17708861,38.1707511 Z" id="Shape" fill="url(#linearGradient-5)"></path>
                        </g>
                    </g>
                </g>
            </g>
        </g>
    </g>
</svg>