<?xml version="1.0" encoding="UTF-8" standalone="no"?>
<svg width="111px" height="111px" viewBox="0 0 111 111" version="1.1" xmlns="http://www.w3.org/2000/svg" xmlns:xlink="http://www.w3.org/1999/xlink">
    <!-- Generator: Sketch 43.1 (39012) - http://www.bohemiancoding.com/sketch -->
    <title>Group</title>
    <desc>Created with Sketch.</desc>
    <defs>
        <linearGradient x1="0%" y1="0%" x2="79.5235846%" y2="78.7439423%" id="linearGradient-1">
            <stop stop-color="#1D9AD7" offset="0%"></stop>
            <stop stop-color="#A6449F" offset="100%"></stop>
        </linearGradient>
        <linearGradient x1="-0.29959893%" y1="-0.418716578%" x2="100.970455%" y2="101.018449%" id="linearGradient-2">
            <stop stop-color="#1D9AD7" offset="0%"></stop>
            <stop stop-color="#A6449F" offset="100%"></stop>
        </linearGradient>
        <linearGradient x1="-1161.54839%" y1="-1163.89032%" x2="1282%" y2="1283.69032%" id="linearGradient-3">
            <stop stop-color="#1D9AD7" offset="0%"></stop>
            <stop stop-color="#A6449F" offset="100%"></stop>
        </linearGradient>
        <linearGradient x1="-1062.19355%" y1="-1063.40645%" x2="1381.35484%" y2="1384.17419%" id="linearGradient-4">
            <stop stop-color="#1D9AD7" offset="0%"></stop>
            <stop stop-color="#A6449F" offset="100%"></stop>
        </linearGradient>
        <linearGradient x1="-962.841935%" y1="-962.925806%" x2="1480.70645%" y2="1484.65484%" id="linearGradient-5">
            <stop stop-color="#1D9AD7" offset="0%"></stop>
            <stop stop-color="#A6449F" offset="100%"></stop>
        </linearGradient>
        <linearGradient x1="3.4976%" y1="-494.8%" x2="205.4976%" y2="1876.29375%" id="linearGradient-6">
            <stop stop-color="#1D9AD7" offset="0%"></stop>
            <stop stop-color="#A6449F" offset="100%"></stop>
        </linearGradient>
        <linearGradient x1="-447.129943%" y1="-92.971525%" x2="490.657206%" y2="176.674302%" id="linearGradient-7">
            <stop stop-color="#1D9AD7" offset="0%"></stop>
            <stop stop-color="#A6449F" offset="100%"></stop>
        </linearGradient>
        <linearGradient x1="-443.542995%" y1="-212.393352%" x2="288.341063%" y2="207.966759%" id="linearGradient-8">
            <stop stop-color="#1D9AD7" offset="0%"></stop>
            <stop stop-color="#A6449F" offset="100%"></stop>
        </linearGradient>
        <linearGradient x1="-240.497537%" y1="-131.203252%" x2="505.807882%" y2="280.04336%" id="linearGradient-9">
            <stop stop-color="#1D9AD7" offset="0%"></stop>
            <stop stop-color="#A6449F" offset="100%"></stop>
        </linearGradient>
    </defs>
    <g id="Page-8" stroke="none" stroke-width="1" fill="none" fill-rule="evenodd">
        <g id="Group">
            <ellipse id="Oval-2-Copy-3" stroke="url(#linearGradient-1)" stroke-width="2" cx="55.5" cy="55.5" rx="54.5" ry="54.5"></ellipse>
            <g id="webdev" transform="translate(35.000000, 35.000000)" fill-rule="nonzero">
                <g id="Layer_1">
                    <g id="Page-4">
                        <g id="Services-bigger-title">
                            <g id="Group-4">
                                <g id="browser" transform="translate(0.214632, 0.174647)">
                                    <path d="M40.671318,0.056620543 L1.69935869,0.056620543 C0.736388766,0.056620543 0,0.792687601 0,1.75523683 L0,40.7101704 C0,41.6727196 0.736388766,42.4087867 1.69935869,42.4087867 L40.671318,42.4087867 C41.6342879,42.4087867 42.3706767,41.6727196 42.3706767,40.7101704 L42.3706767,1.75523683 C42.3706767,0.792687601 41.5776426,0.056620543 40.671318,0.056620543 Z M40.5580274,39.7476212 C40.5580274,40.2005855 40.1615104,40.5969293 39.7083481,40.5969293 L2.60568333,40.5969293 C2.15252101,40.5969293 1.75600398,40.2005855 1.75600398,39.7476212 L1.75600398,9.68211285 C1.75600398,9.2291485 2.15252101,8.8328047 2.60568333,8.8328047 L39.7083481,8.8328047 C40.1615104,8.8328047 40.5580274,9.2291485 40.5580274,9.68211285 L40.5580274,39.7476212 Z M40.7279633,6.34150081 C40.7279633,6.79446515 40.3880916,7.13418841 39.9349292,7.13418841 L2.66232862,7.13418841 C2.2091663,7.13418841 1.86929456,6.79446515 1.86929456,6.34150081 L1.86929456,2.60454498 C1.86929456,2.15158063 2.2091663,1.81185737 2.66232862,1.81185737 L39.9349292,1.81185737 C40.3880916,1.81185737 40.7279633,2.15158063 40.7279633,2.60454498 L40.7279633,6.34150081 Z" id="Shape" fill="url(#linearGradient-2)"></path>
                                    <polygon id="Fill-4" fill="url(#linearGradient-3)" points="37.0460195 5.32233104 38.8020234 5.32233104 38.8020234 3.56709421 37.0460195 3.56709421"></polygon>
                                    <polygon id="Fill-5" fill="url(#linearGradient-4)" points="33.5340115 5.32233104 35.2900155 5.32233104 35.2900155 3.56709421 33.5340115 3.56709421"></polygon>
                                    <polygon id="Fill-6" fill="url(#linearGradient-5)" points="30.0220035 5.32233104 31.7780075 5.32233104 31.7780075 3.56709421 30.0220035 3.56709421"></polygon>
                                    <path d="M4.4183326,4.47302289 C4.4183326,4.98260778 4.81484962,5.37895158 5.32465723,5.37895158 L24.7539916,5.37895158 C25.2637992,5.37895158 25.6603162,4.98260778 25.6603162,4.47302289 L25.6603162,4.47302289 C25.6603162,3.96343801 25.2637992,3.56709421 24.7539916,3.56709421 L5.26801194,3.56709421 C4.81484962,3.56709421 4.4183326,3.96343801 4.4183326,4.47302289 L4.4183326,4.47302289 Z" id="Fill-7" fill="url(#linearGradient-6)"></path>
                                </g>
                                <path d="M22.48818,16.8163013 C21.9783724,16.7030602 21.5252101,17.0427834 21.4119195,17.4957478 L18.6363003,31.6508835 C18.5230097,32.1604684 18.8628815,32.6134327 19.3160438,32.7266738 L19.4859797,32.7266738 C19.8824967,32.7266738 20.2790137,32.4435711 20.3923043,31.9906068 L23.1679235,17.835471 C23.2812141,17.3825067 22.9413423,16.9295423 22.48818,16.8163013" id="Fill-5_1_" fill="url(#linearGradient-7)"></path>
                                <path d="M34.1004644,24.7431773 C34.1004644,24.7431773 34.1004644,24.6865567 34.1004644,24.7431773 L34.1004644,24.6299362 C34.1004644,24.6299362 34.1004644,24.6299362 34.1004644,24.5733156 C34.1004644,24.5733156 34.1004644,24.5733156 34.1004644,24.5166951 C34.1004644,24.5166951 34.1004644,24.5166951 34.1004644,24.4600746 C34.1004644,24.4600746 34.1004644,24.4600746 34.1004644,24.403454 C34.1004644,24.403454 34.1004644,24.403454 34.1004644,24.3468335 L34.1004644,24.2902129 C34.1004644,24.2902129 34.1004644,24.2902129 34.1004644,24.2335924 L34.1004644,24.1769718 L34.1004644,24.1769718 C34.1004644,24.1769718 34.1004644,24.1203513 34.0438191,24.1203513 L34.0438191,24.1203513 L33.9871738,24.0637308 L29.8520677,19.8738106 C29.5121959,19.5340873 28.945743,19.5340873 28.6058713,19.8738106 C28.2659996,20.2135338 28.2659996,20.7797393 28.6058713,21.1194625 L32.1178793,24.6299362 L28.4925807,28.3102715 C28.152709,28.6499947 28.152709,29.2162002 28.4925807,29.5559234 C28.6625166,29.7257851 28.8890977,29.8390261 29.1156789,29.8390261 C29.3422601,29.8390261 29.5688412,29.7257851 29.7387771,29.5559234 L33.8172379,25.4792443 L33.8738832,25.4226238 L33.8738832,25.4226238 C33.8738832,25.4226238 33.8738832,25.3660032 33.9305285,25.3660032 L33.9305285,25.3660032 L33.9305285,25.3093827 C33.9305285,25.3093827 33.9305285,25.3093827 33.9305285,25.2527622 L33.9305285,25.1961416 C33.9305285,25.1961416 33.9305285,25.1961416 33.9305285,25.1395211 C33.9305285,25.1395211 33.9305285,25.1395211 33.9305285,25.0829005 C33.9305285,25.0829005 33.9305285,25.0829005 33.9305285,25.02628 C33.9305285,25.02628 33.9305285,25.02628 33.9305285,24.9696594 C33.9305285,24.9696594 33.9305285,24.9696594 33.9305285,24.9130389 L33.9305285,24.8564184 C33.9305285,24.8564184 33.9305285,24.8564184 33.9305285,24.7997978 L33.9305285,24.7431773 C33.9305285,24.7431773 33.9305285,24.7431773 33.9305285,24.6865567 C33.9305285,24.6299362 34.1004644,24.7997978 34.1004644,24.7431773 L34.1004644,24.7431773 Z" id="Fill-6_1_" fill="url(#linearGradient-8)"></path>
                                <path d="M9.85628041,24.7431773 L13.3116431,21.2893242 C13.6515148,20.9496009 13.6515148,20.3833955 13.3116431,20.0436722 C12.9717713,19.7039489 12.4053184,19.7039489 12.0654467,20.0436722 L7.98698585,24.1203513 L7.93034056,24.1769718 L7.93034056,24.1769718 C7.93034056,24.1769718 7.93034056,24.2335924 7.87369527,24.2335924 C7.87369527,24.2335924 7.87369527,24.2335924 7.87369527,24.2902129 C7.87369527,24.2902129 7.87369527,24.2902129 7.87369527,24.3468335 C7.87369527,24.3468335 7.87369527,24.3468335 7.87369527,24.403454 C7.87369527,24.403454 7.87369527,24.403454 7.87369527,24.4600746 C7.87369527,24.4600746 7.87369527,24.4600746 7.87369527,24.5166951 C7.87369527,24.5166951 7.87369527,24.5166951 7.87369527,24.5733156 L7.87369527,24.6299362 C7.87369527,24.6299362 7.87369527,24.6299362 7.87369527,24.6865567 L7.87369527,24.7431773 C7.87369527,24.7431773 7.87369527,24.7431773 7.87369527,24.7997978 L7.87369527,24.8564184 L7.87369527,24.9130389 L7.87369527,24.9696594 L7.87369527,25.02628 L7.87369527,25.0829005 L7.87369527,25.1395211 C7.87369527,25.1395211 7.87369527,25.1395211 7.87369527,25.1961416 L7.87369527,25.2527622 C7.87369527,25.2527622 7.87369527,25.2527622 7.87369527,25.3093827 L7.87369527,25.3660032 C7.87369527,25.3660032 7.87369527,25.3660032 7.87369527,25.4226238 C7.87369527,25.4226238 7.87369527,25.4226238 7.87369527,25.4792443 C7.87369527,25.4792443 7.87369527,25.4792443 7.87369527,25.5358649 C7.87369527,25.5358649 7.87369527,25.5358649 7.87369527,25.5924854 L7.87369527,25.649106 L7.87369527,25.649106 C7.87369527,25.649106 7.87369527,25.7057265 7.93034056,25.7057265 L7.93034056,25.7057265 L7.98698585,25.762347 L12.122092,29.9522672 C12.2920279,30.1221289 12.518609,30.2353699 12.7451902,30.2353699 C12.9717713,30.2353699 13.1983525,30.1221289 13.3682884,29.9522672 C13.7081601,29.612544 13.7081601,29.0463385 13.3682884,28.7066153 L9.85628041,24.7431773" id="Fill-7_1_" fill="url(#linearGradient-9)"></path>
                            </g>
                        </g>
                    </g>
                </g>
            </g>
        </g>
    </g>
</svg>