<?xml version="1.0" encoding="UTF-8"?>
<svg width="30px" height="30px" viewBox="0 0 30 30" version="1.1" xmlns="http://www.w3.org/2000/svg" xmlns:xlink="http://www.w3.org/1999/xlink">
    <!-- Generator: Sketch 43.1 (39012) - http://www.bohemiancoding.com/sketch -->
    <title>ic-social-fb</title>
    <desc>Created with Sketch.</desc>
    <defs></defs>
    <g id="Homepage-Josh" stroke="none" stroke-width="1" fill="none" fill-rule="evenodd" opacity="1">
        <g id="Homepage-3-Copy" transform="translate(-1305.000000, -3426.000000)" fill="#FFFFFF">
            <g id="Footer" transform="translate(0.000000, 3391.000000)">
                <g id="Social" transform="translate(1305.000000, 35.000000)">
                    <path d="M30,15 C30,23.2841667 23.2841667,30 15,30 C6.71583333,30 0,23.2841667 0,15 C0,6.71583333 6.71583333,0 15,0 C23.2841667,0 30,6.71583333 30,15 L30,15 Z M15.9025,15 L17.52,15 L17.735,12.9791667 L15.9025,12.9791667 L15.905,11.9683333 C15.905,11.4416667 15.955,11.1591667 16.7125,11.1591667 L17.7233333,11.1591667 L17.7233333,9.13833333 L16.105,9.13833333 C14.1616667,9.13833333 13.4766667,10.1191667 13.4766667,11.7666667 L13.4766667,12.9791667 L12.265,12.9791667 L12.265,15 L13.4766667,15 L13.4766667,20.8616667 L15.9025,20.8616667 L15.9025,15 L15.9025,15 Z" id="ic-social-fb"></path>
                </g>
            </g>
        </g>
    </g>
</svg>
