<?xml version="1.0" encoding="UTF-8"?>
<svg width="30px" height="30px" viewBox="0 0 30 30" version="1.1" xmlns="http://www.w3.org/2000/svg" xmlns:xlink="http://www.w3.org/1999/xlink">
    <!-- Generator: Sketch 43.1 (39012) - http://www.bohemiancoding.com/sketch -->
    <title>ic-social-dribbble</title>
    <desc>Created with Sketch.</desc>
    <defs></defs>
    <g id="Homepage-Josh" stroke="none" stroke-width="1" fill="none" fill-rule="evenodd" opacity="1">
        <g id="Homepage-3-Copy" transform="translate(-1498.000000, -3427.000000)" fill="#FFFFFF">
            <g id="Footer" transform="translate(0.000000, 3391.000000)">
                <g id="Social" transform="translate(1305.000000, 35.000000)">
                    <path d="M208,31 C199.715729,31 193,24.2842712 193,16 C193,7.71572875 199.715729,1 208,1 C216.284271,1 223,7.71572875 223,16 C223,24.2842712 216.284271,31 208,31 Z M215.79727,11.5146621 C214.992313,10.1260368 213.900514,9.02679896 212.520973,8.21604315 C211.141972,7.40546845 209.635825,7 208.002533,7 C206.36924,7 204.863093,7.40546845 203.484092,8.21604315 C202.104371,9.02607458 201.012572,10.1260368 200.207615,11.5146621 C199.402478,12.9040118 199,14.4206702 199,16.0653618 C199,17.709329 199.402478,19.2259874 200.207615,20.6153371 C201.012572,22.0039624 202.104371,23.1039246 203.483372,23.913956 C204.863093,24.7245307 206.36924,25.1299992 208.002533,25.1299992 C209.635825,25.1299992 211.141972,24.7245307 212.520973,23.913956 C213.899975,23.1039246 214.992313,22.0039624 215.79727,20.6153371 C216.601687,19.2259874 217.004166,17.709329 217.004166,16.0653618 C217.004166,14.4206702 216.601687,12.9032874 215.79727,11.5146621 Z M208.002533,8.32216397 C209.939932,8.32216397 211.632212,8.96740027 213.077214,10.2576918 L212.931185,10.4641384 C212.872198,10.5468982 212.725989,10.7060794 212.49148,10.9424065 C212.25751,11.1780092 212.00106,11.4029274 211.72357,11.615169 C211.446079,11.8274106 211.069497,12.0693516 210.592566,12.3409919 C210.115634,12.6126322 209.60831,12.8509513 209.068795,13.055406 C208.170322,11.3866289 207.209265,9.8840958 206.185085,8.54635778 C206.80265,8.39641233 207.408166,8.32216397 208.002533,8.32216397 Z M201.977945,11.2607689 C202.727511,10.3085791 203.64199,9.57714224 204.720481,9.06573407 C205.689091,10.3638126 206.642414,11.851315 207.580272,13.5271546 C205.204426,14.1568169 202.837033,14.4715575 200.477373,14.4715575 C200.727348,13.2832216 201.227659,12.2129588 201.977945,11.2607689 Z M200.828597,18.8567377 C200.485106,17.9717335 200.313,17.0409127 200.313,16.0653618 C200.313,15.9550758 200.317137,15.872316 200.32487,15.8170825 C203.153908,15.8170825 205.783326,15.4512736 208.213123,14.7191124 C208.463279,15.2073406 208.670452,15.643776 208.835005,16.0300485 C208.803353,16.0456226 208.752639,16.0631886 208.682502,16.0831089 C208.611465,16.1021238 208.560931,16.1162491 208.529279,16.1240361 L208.095869,16.2776034 C207.798776,16.3878894 207.410325,16.5760456 206.929796,16.8442451 C206.449268,17.1115392 205.939246,17.430626 205.399731,17.7998757 C204.860935,18.1698499 204.303795,18.6600701 203.729931,19.269812 C203.155167,19.879554 202.672661,20.5347505 202.282052,21.2350392 C201.656753,20.5347505 201.172089,19.7417418 200.828597,18.8567377 Z M208.002533,23.8078352 C206.173935,23.8078352 204.540643,23.2178324 203.102475,22.0378269 L203.278177,22.1673088 C203.552071,21.5611887 203.95401,20.9789729 204.485792,20.4208426 C205.017574,19.8619879 205.529035,19.4114272 206.021432,19.0689793 C206.51383,18.7265314 207.049209,18.4040038 207.62739,18.1012154 C208.20557,17.7977026 208.599596,17.6053813 208.811086,17.5226215 C209.021857,17.4398618 209.190365,17.3746681 209.315353,17.3281271 L209.338552,17.3159938 L209.361751,17.3159938 C210.127504,19.3384465 210.674752,21.2980597 211.002777,23.1944714 C210.033988,23.6033806 209.033726,23.8078352 208.002533,23.8078352 Z M214.47312,20.2495281 C213.89422,21.1501063 213.171449,21.8963928 212.304448,22.4863956 C211.983436,20.6761845 211.484025,18.8312035 210.804056,16.9503659 C212.358579,16.7062518 213.956803,16.8201597 215.597829,17.2926327 C215.425724,18.3623523 215.0513,19.3484066 214.47312,20.2495281 Z M215.57463,15.9585166 C215.496041,15.9429425 215.398388,15.9253765 215.280954,15.9054562 C215.164419,15.8864413 215.021807,15.8623559 214.853118,15.8348297 C214.685329,15.8071224 214.497758,15.7817693 214.290404,15.7584082 C214.083949,15.7350471 213.862748,15.7131348 213.628059,15.6932145 C213.394089,15.6734753 213.143934,15.6579013 212.878492,15.6459491 C212.612151,15.6345402 212.343113,15.6282019 212.069219,15.6282019 C211.795865,15.6282019 211.508663,15.6367133 211.207973,15.6522874 C210.907283,15.6678614 210.616484,15.6953877 210.334677,15.7350471 C210.311478,15.6953877 210.281985,15.6303751 210.246916,15.5398283 C210.211848,15.4492815 210.186491,15.3806471 210.171024,15.3332006 C210.022118,15.0028859 209.850732,14.62929 209.654708,14.2120504 C210.194224,13.9912974 210.707842,13.7379475 211.196643,13.4507332 C211.684904,13.1636999 212.075514,12.9074525 212.36847,12.6832587 C212.661427,12.4590649 212.938918,12.2212891 213.200943,11.9695691 C213.462967,11.7176679 213.632195,11.5421883 213.710964,11.4438545 C213.788834,11.3455207 213.863287,11.24936 213.933604,11.1546481 L213.945474,11.1432392 C215.086369,12.5439978 215.668865,14.1568169 215.691885,15.982602 L215.57463,15.9585166 Z" id="ic-social-dribbble"></path>
                </g>
            </g>
        </g>
    </g>
</svg>
