<?xml version="1.0" encoding="UTF-8"?>
<svg width="30px" height="30px" viewBox="0 0 30 30" version="1.1" xmlns="http://www.w3.org/2000/svg" xmlns:xlink="http://www.w3.org/1999/xlink">
    <!-- Generator: Sketch 43.1 (39012) - http://www.bohemiancoding.com/sketch -->
    <title>ic-social-twitter</title>
    <desc>Created with Sketch.</desc>
    <defs></defs>
    <g id="Homepage-Josh" stroke="none" stroke-width="1" fill="none" fill-rule="evenodd" opacity="1">
        <g id="Homepage-3-Copy" transform="translate(-1369.000000, -3426.000000)" fill="#FFFFFF">
            <g id="Footer" transform="translate(0.000000, 3391.000000)">
                <g id="Social" transform="translate(1305.000000, 35.000000)">
                    <path d="M94,15 C94,23.2841667 87.2841667,30 79,30 C70.7158333,30 64,23.2841667 64,15 C64,6.71583333 70.7158333,0 79,0 C87.2841667,0 94,6.71583333 94,15 L94,15 Z M85.9183333,11.01 C85.445,11.22 84.9366667,11.3616667 84.4025,11.4258333 C84.9475,11.0991667 85.3666667,10.5816667 85.5633333,9.965 C85.0533333,10.2675 84.4883333,10.4875 83.8875,10.6058333 C83.4058333,10.0925 82.72,9.7725 81.9608333,9.7725 C80.5025,9.7725 79.3208333,10.9541667 79.3208333,12.4116667 C79.3208333,12.6183333 79.3441667,12.82 79.3891667,13.0133333 C77.1958333,12.9033333 75.2508333,11.8525 73.9491667,10.2558333 C73.7225,10.645 73.5916667,11.0983333 73.5916667,11.5825 C73.5916667,12.4983333 74.0575,13.3058333 74.7658333,13.7791667 C74.3333333,13.7658333 73.9266667,13.6466667 73.5708333,13.4491667 C73.57,13.46 73.57,13.4708333 73.57,13.4825 C73.57,14.7608333 74.48,15.8283333 75.6875,16.07 C75.4658333,16.1308333 75.2325,16.1633333 74.9925,16.1633333 C74.8216667,16.1633333 74.6566667,16.1466667 74.4958333,16.1158333 C74.8316667,17.1641667 75.8058333,17.9275 76.9608333,17.9483333 C76.0575,18.6566667 74.92,19.0783333 73.6833333,19.0783333 C73.47,19.0783333 73.26,19.0658333 73.0533333,19.0416667 C74.2216667,19.79 75.6091667,20.2275 77.1,20.2275 C81.9541667,20.2275 84.6091667,16.2058333 84.6091667,12.7175 C84.6091667,12.6033333 84.6066667,12.4891667 84.6016667,12.3758333 C85.1175,12.0041667 85.565,11.5391667 85.9183333,11.01 L85.9183333,11.01 Z" id="ic-social-twitter"></path>
                </g>
            </g>
        </g>
    </g>
</svg>
